<?xml version="1.0" encoding="UTF-8"?>
<svg width="80px" height="80px" viewBox="0 0 80 80" version="1.1" xmlns="http://www.w3.org/2000/svg" xmlns:xlink="http://www.w3.org/1999/xlink">
    <!-- Generator: Sketch 46.1 (44463) - http://www.bohemiancoding.com/sketch -->
    <title>icon-tw</title>
    <desc>Created with Sketch.</desc>
    <defs>
        <filter x="-20.3%" y="-17.2%" width="140.6%" height="140.6%" filterUnits="objectBoundingBox" id="filter-1">
            <feOffset dx="0" dy="2" in="SourceAlpha" result="shadowOffsetOuter1"></feOffset>
            <feGaussianBlur stdDeviation="4" in="shadowOffsetOuter1" result="shadowBlurOuter1"></feGaussianBlur>
            <feColorMatrix values="0 0 0 0 0   0 0 0 0 0   0 0 0 0 0  0 0 0 0.3 0" type="matrix" in="shadowBlurOuter1" result="shadowMatrixOuter1"></feColorMatrix>
            <feMerge>
                <feMergeNode in="shadowMatrixOuter1"></feMergeNode>
                <feMergeNode in="SourceGraphic"></feMergeNode>
            </feMerge>
        </filter>
    </defs>
    <g id="Page-1" stroke="none" stroke-width="1" fill="none" fill-rule="evenodd">
        <g id="Whipers---Pre-sales" transform="translate(-242.000000, -3245.000000)">
            <g id="join-us" transform="translate(155.000000, 3144.000000)">
                <g id="icon-tw" filter="url(#filter-1)" transform="translate(95.000000, 107.000000)">
                    <path d="M0,32 C0,14.3268871 14.3268871,0 32,0 C49.6731129,0 64,14.3268871 64,32 C64,49.6731129 49.6731129,64 32,64 C14.3268871,64 0,49.6731129 0,32 Z" id="back" fill="#55ACEE"></path>
                    <path d="M31.0416035,26.0100008 L31.1087535,27.117273 L29.9895866,26.9816887 C25.915819,26.4619487 22.3568681,24.6993521 19.3351174,21.7390938 L17.8578171,20.2702633 L17.4773003,21.3549381 C16.6715002,23.7728591 17.1863169,26.3263643 18.8650673,28.0437661 C19.7604009,28.9928565 19.5589508,29.1284409 18.0145005,28.5635061 C17.4773003,28.382727 17.0072502,28.2471426 16.9624836,28.3149348 C16.8058002,28.4731165 17.3430003,30.5294792 17.7682837,31.3429853 C18.3502505,32.4728549 19.5365675,33.5801271 20.8348011,34.2354514 L21.9315847,34.7551914 L20.6333511,34.7777888 C19.3798841,34.7777888 19.3351174,34.8003862 19.4694175,35.2749314 C19.9170842,36.7437619 21.685368,38.3029819 23.6551018,38.9809037 L25.0428688,39.4554489 L23.8341685,40.1785654 C22.0435014,41.2180454 19.9394676,41.8055776 17.8354338,41.8507724 C16.8281835,41.8733698 16,41.9637594 16,42.0315516 C16,42.2575255 18.7307673,43.5229794 20.3199843,44.020122 C25.0876354,45.4889525 30.7506201,44.8562255 35.0034544,42.347915 C38.0252051,40.5627211 41.0469558,37.0149306 42.4571062,33.5801271 C43.2181397,31.7497383 43.9791732,28.4053244 43.9791732,26.8009095 C43.9791732,25.7614295 44.0463232,25.6258452 45.2997901,24.3829886 C46.0384403,23.6598721 46.7323238,22.8689634 46.8666238,22.6429895 C47.0904572,22.213639 47.0680739,22.213639 45.9265236,22.5977947 C44.0239399,23.2757164 43.7553398,23.1853269 44.69544,22.1684442 C45.3893235,21.4453277 46.217507,20.134679 46.217507,19.7505233 C46.217507,19.6827312 45.8817569,19.7957181 45.5012402,19.9990946 C45.0983401,20.2250686 44.2030066,20.5640294 43.5315064,20.767406 L42.3228061,21.1515616 L41.2260225,20.4058477 C40.6216724,19.9990946 39.7711055,19.5471468 39.3234388,19.4115625 C38.1818885,19.095199 36.4359881,19.1403938 35.4063545,19.501952 C32.6084372,20.5188347 30.8401535,23.1401321 31.0416035,26.0100008 Z" id="Shape" fill="#FFFFFF"></path>
                </g>
            </g>
        </g>
    </g>
</svg>