<?xml version="1.0" encoding="UTF-8"?>
<svg width="81px" height="80px" viewBox="0 0 81 80" version="1.1" xmlns="http://www.w3.org/2000/svg" xmlns:xlink="http://www.w3.org/1999/xlink">
    <!-- Generator: Sketch 46.1 (44463) - http://www.bohemiancoding.com/sketch -->
    <title>icon-slack</title>
    <desc>Created with Sketch.</desc>
    <defs>
        <filter x="-19.7%" y="-17.2%" width="139.4%" height="140.6%" filterUnits="objectBoundingBox" id="filter-1">
            <feOffset dx="0" dy="2" in="SourceAlpha" result="shadowOffsetOuter1"></feOffset>
            <feGaussianBlur stdDeviation="4" in="shadowOffsetOuter1" result="shadowBlurOuter1"></feGaussianBlur>
            <feColorMatrix values="0 0 0 0 0   0 0 0 0 0   0 0 0 0 0  0 0 0 0.3 0" type="matrix" in="shadowBlurOuter1" result="shadowMatrixOuter1"></feColorMatrix>
            <feMerge>
                <feMergeNode in="shadowMatrixOuter1"></feMergeNode>
                <feMergeNode in="SourceGraphic"></feMergeNode>
            </feMerge>
        </filter>
    </defs>
    <g id="Page-1" stroke="none" stroke-width="1" fill="none" fill-rule="evenodd">
        <g id="Whipers---Pre-sales" transform="translate(-334.000000, -3245.000000)">
            <g id="join-us" transform="translate(155.000000, 3144.000000)">
                <g id="icon-slack" filter="url(#filter-1)" transform="translate(187.000000, 107.000000)">
                    <path d="M0,32 C0,14.3268871 14.5533963,0 32.5059225,0 C50.4584486,0 65.011845,14.3268871 65.011845,32 C65.011845,49.6731129 50.4584486,64 32.5059225,64 C14.5533963,64 0,49.6731129 0,32 Z" id="back" fill="#FFFFFF"></path>
                    <g id="Group" transform="translate(15.147541, 14.933333)">
                        <path d="M22.4458887,2.11179016 C21.9197334,0.515077596 20.1803558,-0.358679781 18.5610234,0.160314755 C16.9414072,0.679029508 16.0551163,2.39380984 16.5815554,3.99024263 L24.5539156,28.1723104 C25.1013556,29.6638252 26.7357292,30.5020503 28.304546,30.056918 C29.9409062,29.5924809 30.9384446,27.8790995 30.4162623,26.2946973 C30.3963967,26.2342645 22.4458887,2.11179016 22.4458887,2.11179016" id="Shape" fill="#DFA22F"></path>
                        <path d="M10.092874,6.0687388 C9.56643482,4.47230601 7.82705724,3.59854864 6.20772481,4.11726339 C4.58810857,4.63597815 3.70181779,6.35075847 4.22825692,7.94747104 L12.200617,32.1295388 C12.748057,33.6210536 14.3824306,34.4592787 15.9512475,34.0138667 C17.5876076,33.5497093 18.585146,31.8363279 18.0629637,30.2516459 C18.0430981,30.1914929 10.092874,6.0687388 10.092874,6.0687388" id="Shape" fill="#3CB187"></path>
                        <path d="M32.4808686,22.1393836 C34.1004848,21.6206688 34.9864918,19.9058885 34.4603364,18.309176 C33.9341812,16.7127432 32.1948035,15.8389857 30.5754711,16.3577005 L6.04652942,24.2176 C4.53362,24.7570185 3.68337114,26.3682797 4.13488848,27.9149115 C4.60598763,29.5281312 6.34394625,30.5115628 7.95107552,29.9967651 C8.01237517,29.9771803 32.4808686,22.1393836 32.4808686,22.1393836" id="Shape" fill="#CE1E5B"></path>
                        <path d="M11.1588068,28.9694076 C12.7554356,28.4579672 14.8132308,27.7988021 17.0214372,27.0915148 C16.5026606,25.5174645 15.8340403,23.4884896 15.1163235,21.3112307 L9.25340929,23.1899628 L11.1588068,28.9694076" id="Shape" fill="#392538"></path>
                        <path d="M23.5121054,25.0121792 C25.7285418,24.3023737 27.7886074,23.6423693 29.3747358,23.1342864 C28.8559591,21.560236 28.1870551,19.5307016 27.4693384,17.3528831 L21.6064241,19.2316153 L23.5121054,25.0121792" id="Shape" fill="#BB242A"></path>
                        <path d="M28.4671604,9.96077815 C30.0864929,9.44206339 30.9727836,7.72728307 30.4466284,6.13057049 C29.920473,4.53413771 28.1810953,3.66038033 26.5614791,4.17909508 L2.03253749,12.0389945 C0.519628057,12.5784131 -0.3306208,14.1896743 0.121180328,15.736306 C0.5919957,17.3495257 2.32995432,18.3329573 3.93736737,17.8181596 C3.99838323,17.7985748 28.4671604,9.96077815 28.4671604,9.96077815" id="Shape" fill="#72C5CD"></path>
                        <path d="M7.14396345,16.791082 C8.74059231,16.2796415 10.7989551,15.6201967 13.0074453,14.9129093 C12.2874582,12.7275366 11.6179866,10.6966033 11.1026154,9.13262513 L5.23828218,11.0116372 L7.14396345,16.791082" id="Shape" fill="#248C73"></path>
                        <path d="M19.4969782,12.8341333 C21.7139823,12.1240481 23.7743316,11.4640437 25.3607438,10.9556809 C24.640473,8.77002841 23.9710013,6.73853552 23.4553464,5.1742776 L17.591297,7.05328961 L19.4969782,12.8341333" id="Shape" fill="#62803A"></path>
                    </g>
                </g>
            </g>
        </g>
    </g>
</svg>