<?xml version="1.0" encoding="UTF-8"?>
<svg width="80px" height="80px" viewBox="0 0 80 80" version="1.1" xmlns="http://www.w3.org/2000/svg" xmlns:xlink="http://www.w3.org/1999/xlink">
    <!-- Generator: Sketch 46.1 (44463) - http://www.bohemiancoding.com/sketch -->
    <title>icon-git</title>
    <desc>Created with Sketch.</desc>
    <defs>
        <filter x="-20.3%" y="-17.2%" width="140.6%" height="140.6%" filterUnits="objectBoundingBox" id="filter-1">
            <feOffset dx="0" dy="2" in="SourceAlpha" result="shadowOffsetOuter1"></feOffset>
            <feGaussianBlur stdDeviation="4" in="shadowOffsetOuter1" result="shadowBlurOuter1"></feGaussianBlur>
            <feColorMatrix values="0 0 0 0 0   0 0 0 0 0   0 0 0 0 0  0 0 0 0.3 0" type="matrix" in="shadowBlurOuter1" result="shadowMatrixOuter1"></feColorMatrix>
            <feMerge>
                <feMergeNode in="shadowMatrixOuter1"></feMergeNode>
                <feMergeNode in="SourceGraphic"></feMergeNode>
            </feMerge>
        </filter>
        <circle id="path-2" cx="32.1403123" cy="32.0996935" r="31.8513924"></circle>
    </defs>
    <g id="Page-1" stroke="none" stroke-width="1" fill="none" fill-rule="evenodd">
        <g id="Whipers---Pre-sales" transform="translate(-519.000000, -3245.000000)">
            <g id="join-us" transform="translate(155.000000, 3144.000000)">
                <g id="icon-git" filter="url(#filter-1)" transform="translate(372.000000, 107.000000)">
                    <mask id="mask-3" fill="white">
                        <use xlink:href="#path-2"></use>
                    </mask>
                    <use id="Oval-2" fill="#373730" xlink:href="#path-2"></use>
                    <path d="M22.4900457,64.5553698 C23.9872107,64.8326777 24.5368657,63.9055069 24.5368657,63.1142617 C24.5368657,62.3999086 24.5090853,60.0400631 24.4961872,57.536851 C16.1620682,59.3490258 14.4034699,54.0022915 14.4034699,54.0022915 C13.0407422,50.5396635 11.0772634,49.6189418 11.0772634,49.6189418 C8.35924927,47.7596395 11.2821439,47.7978376 11.2821439,47.7978376 C14.290364,48.009167 15.8743427,50.8849342 15.8743427,50.8849342 C18.5462215,55.464731 22.8824438,54.1406975 24.5919304,53.3752483 C24.8608049,51.4390539 25.6371678,50.1175007 26.4938954,49.3694143 C19.8399943,48.6119024 12.8452873,46.0432079 12.8452873,34.5644472 C12.8452873,31.2938015 14.0155365,28.6214266 15.9318878,26.5235105 C15.6208465,25.7689751 14.5954523,22.7220609 16.2220937,18.5956798 C16.2220937,18.5956798 18.7377078,17.7905444 24.4624539,21.6664058 C26.8520641,21.0026528 29.4148057,20.6697841 31.9606806,20.6583743 C34.5065556,20.6697841 37.0712815,21.0026528 39.4653564,21.6664058 C45.1831573,17.7905444 47.6952989,18.5956798 47.6952989,18.5956798 C49.325909,22.7220609 48.3000186,25.7689751 47.9889774,26.5235105 C49.9097934,28.6214266 51.0721054,31.2938015 51.0721054,34.5644472 C51.0721054,46.0704922 44.0640042,48.6039652 37.3932364,49.3456025 C38.4677425,50.2752537 39.425174,52.0983422 39.425174,54.8932486 C39.425174,58.9015629 39.3904485,62.1275615 39.3904485,63.1142617 C39.3904485,63.9114599 39.9296859,64.8455757 41.4481822,64.5514011 C47.0672409,62.6783035 40.5590613,70.494164 33.3109647,70.3920232 C25.213665,70.2779154 16.2092427,62.4651717 22.4900457,64.5553698 Z" id="Fill-4" fill="#FFFFFF" mask="url(#mask-3)"></path>
                    <path d="M12.2144793,46.0953388 C12.1441322,46.2540165 11.8944793,46.3016198 11.6670413,46.1926612 C11.4353719,46.0884628 11.3052562,45.8721322 11.3803636,45.7129256 C11.449124,45.5494876 11.6993058,45.504 11.9304463,45.6134876 C12.1626446,45.717686 12.294876,45.9361322 12.2144793,46.0953388" id="Fill-5" fill="#161514" mask="url(#mask-3)"></path>
                    <path d="M13.5082314,47.5382479 C13.3559008,47.6794711 13.0581157,47.6138843 12.8560661,47.3906777 C12.6471405,47.168 12.608,46.8702149 12.7624463,46.726876 C12.9195372,46.5856529 13.2083306,46.6517686 13.4177851,46.8744463 C13.6267107,47.0997686 13.667438,47.395438 13.5082314,47.5382479" id="Fill-6" fill="#161514" mask="url(#mask-3)"></path>
                    <path d="M14.7676033,49.3778512 C14.5719008,49.5137851 14.2519008,49.386314 14.0540826,49.102281 C13.8583802,48.8182479 13.8583802,48.4776198 14.058314,48.341157 C14.2566612,48.2046942 14.5719008,48.327405 14.7723636,48.6093223 C14.9675372,48.8981157 14.9675372,49.2387438 14.7676033,49.3778512" id="Fill-7" fill="#161514" mask="url(#mask-3)"></path>
                    <path d="M16.4929587,51.1550413 C16.3178843,51.3480992 15.9449917,51.2962645 15.6720661,51.0328595 C15.3927934,50.7752727 15.3150413,50.4097851 15.4906446,50.2167273 C15.6678347,50.0231405 16.042843,50.0776198 16.3178843,50.3389091 C16.5950413,50.5959669 16.6796694,50.9640992 16.4929587,51.1550413" id="Fill-8" fill="#161514" mask="url(#mask-3)"></path>
                    <path d="M18.873124,52.1869752 C18.7959008,52.437157 18.4367603,52.550876 18.0749752,52.444562 C17.713719,52.3350744 17.4772893,52.0420496 17.550281,51.7892231 C17.6253884,51.5374545 17.9861157,51.4189752 18.3505455,51.5326942 C18.7112727,51.6416529 18.9482314,51.932562 18.873124,52.1869752" id="Fill-9" fill="#161514" mask="url(#mask-3)"></path>
                    <path d="M21.4870744,52.3784463 C21.4960661,52.6418512 21.1892893,52.8602975 20.8095207,52.8650579 C20.4276364,52.8735207 20.1187438,52.6603636 20.1145124,52.4011901 C20.1145124,52.1351405 20.4144132,51.9188099 20.7962975,51.9124628 C21.1760661,51.9050579 21.4870744,52.1166281 21.4870744,52.3784463" id="Fill-10" fill="#161514" mask="url(#mask-3)"></path>
                    <path d="M23.9196033,51.9642975 C23.9650909,52.2213554 23.701157,52.4852893 23.3240331,52.5556364 C22.9532562,52.6233388 22.6099835,52.4646612 22.5629091,52.209719 C22.5168926,51.946314 22.7855868,51.6823802 23.1558347,51.6141488 C23.5334876,51.548562 23.8714711,51.7030083 23.9196033,51.9642975" id="Fill-11" fill="#161514" mask="url(#mask-3)"></path>
                </g>
            </g>
        </g>
    </g>
</svg>