<?xml version="1.0" encoding="UTF-8"?>
<svg width="204px" height="52px" viewBox="0 0 204 52" version="1.1" xmlns="http://www.w3.org/2000/svg" xmlns:xlink="http://www.w3.org/1999/xlink">
    <!-- Generator: Sketch 46.1 (44463) - http://www.bohemiancoding.com/sketch -->
    <title>logo-rosecoin-inverted</title>
    <desc>Created with Sketch.</desc>
    <defs>
        <linearGradient x1="14.3222953%" y1="16.7351991%" x2="78.5856008%" y2="89.8020213%" id="linearGradient-1">
            <stop stop-color="#FB167F" offset="0%"></stop>
            <stop stop-color="#FF4958" offset="100%"></stop>
        </linearGradient>
        <linearGradient x1="50%" y1="0%" x2="50%" y2="100%" id="linearGradient-2">
            <stop stop-color="#FF6969" offset="0%"></stop>
            <stop stop-color="#D3394A" offset="100%"></stop>
        </linearGradient>
        <linearGradient x1="13.9138297%" y1="8.31608149%" x2="84.7611938%" y2="90.6994421%" id="linearGradient-3">
            <stop stop-color="#FB167F" offset="0%"></stop>
            <stop stop-color="#FF4958" offset="100%"></stop>
        </linearGradient>
        <ellipse id="path-4" cx="18.6084371" cy="18.6488043" rx="18.6084371" ry="18.6488043"></ellipse>
        <ellipse id="path-6" cx="20.4896695" cy="19.8788238" rx="18.6084371" ry="18.6488043"></ellipse>
        <linearGradient x1="14.3222953%" y1="16.7351991%" x2="78.5856008%" y2="89.8020213%" id="linearGradient-7">
            <stop stop-color="#FFFFFF" offset="0%"></stop>
            <stop stop-color="#FFD8DB" offset="100%"></stop>
        </linearGradient>
        <path d="M24.2121556,13.6986301 L22.0434997,17.4281189 L24.9068088,20.1923834 L27.8058792,17.6701111 L25.1764673,15.5756437 L23.2282895,16.9455068 L25.1764673,13.6986301 L30.3785887,17.4281189 C27.0218721,20.4014521 25.3721872,22.6245886 25.4295339,24.0975284 C25.4868806,25.5704683 25.4868806,29.284167 25.4295339,35.2386245 L24.9068088,36.0808904 L24.3589543,35.2386245 L24.3589543,24.0975284 C24.4069584,22.979469 23.8539336,21.7971084 22.6998801,20.5504467 C21.5458265,19.3037849 20.5261119,18.263009 19.6407362,17.4281189 L24.2121556,13.6986301 Z M23.8579861,17.756 L25.0570117,16.6478409 L26.2441058,17.756 L25.0510459,19.0378414 L23.8579861,17.756 Z M31.7226244,18.5721955 C31.8408003,18.5052275 29.6967671,25.7122896 29.4493594,28.5584589 C29.284421,30.4559051 28.4844496,31.9506431 27.0494453,33.0426729 C26.9274394,27.5068286 27.0221641,24.1672452 27.3336195,23.0239226 C27.8008026,21.3089388 31.6044485,18.6391634 31.7226244,18.5721955 Z M32.6573307,19.9833305 L35.879826,22.5511672 L30.5956417,28.9869349 L32.6573307,19.9833305 Z M18.0304608,18.5721955 C18.1486366,18.6391634 21.9522825,21.3089388 22.4194656,23.0239226 C22.730921,24.1672452 22.8256458,27.5068286 22.7036398,33.0426729 C21.2686355,31.9506431 20.4686642,30.4559051 20.3037257,28.5584589 C20.0563181,25.7122896 17.9122849,18.5052275 18.0304608,18.5721955 Z M17.2331978,19.9833305 L19.2948869,28.9869349 L14.0107025,22.5511672 L17.2331978,19.9833305 Z" id="path-8"></path>
        <filter x="0.0%" y="0.0%" width="100.0%" height="100.0%" filterUnits="objectBoundingBox" id="filter-9">
            <feOffset dx="0" dy="0" in="SourceAlpha" result="shadowOffsetOuter1"></feOffset>
            <feColorMatrix values="0 0 0 0 0.600791879   0 0 0 0 0.0760827626   0 0 0 0 0.170786359  0 0 0 1 0" type="matrix" in="shadowOffsetOuter1"></feColorMatrix>
        </filter>
    </defs>
    <g id="Page-1" stroke="none" stroke-width="1" fill="none" fill-rule="evenodd">
        <g id="Whipers---Home" transform="translate(-156.000000, -14.000000)">
            <g id="hero-section">
                <g id="header" transform="translate(135.000000, 0.000000)">
                    <g id="logo-rosecoin-inverted" transform="translate(22.000000, 15.000000)">
                        <g id="rosecoin">
                            <ellipse id="Oval" stroke="url(#linearGradient-2)" stroke-width="0.5" fill="url(#linearGradient-1)" cx="24.945885" cy="25" rx="24.945885" ry="25"></ellipse>
                            <path d="M24.6154635,4.87575815 L24.6154635,1.36986301 L26.4309371,1.36986301 L26.4309371,4.87575815 L24.6154635,4.87575815 Z M24.6154635,48.3896715 L24.6154635,44.8837764 L26.4309371,44.8837764 L26.4309371,48.3896715 L24.6154635,48.3896715 Z M17.9436607,6.27204539 L16.5665119,2.97756539 L17.6794222,2.62491682 L19.0564599,5.91939683 L17.9436607,6.27204539 Z M32.8981193,47.131911 L31.5210815,43.8375276 L32.6339918,43.4848791 L34.0110296,46.7792624 L32.8981193,47.131911 Z M11.8188813,9.8400987 L9.55147231,7.15463349 L10.3462132,6.49177406 L12.6136221,9.17733594 L11.8188813,9.8400987 Z M39.8529729,43.1882985 L37.585564,40.5028333 L38.3802076,39.8400706 L40.6477138,42.5255358 L39.8529729,43.1882985 Z M7.43939333,15.2767641 L4.38463557,13.5238648 L4.90334233,12.6309331 L7.95810008,14.3838324 L7.43939333,15.2767641 Z M45.2824214,37.0739834 L42.2276636,35.3210841 L42.7463704,34.4280558 L45.8011281,36.1810517 L45.2824214,37.0739834 Z M5.18404507,22.7996434 L1.71027574,21.8718418 L1.89050518,20.3249166 L5.36427451,21.252571 L5.18404507,22.7996434 Z M48.2800854,30.2639413 L44.8062188,29.3361397 L44.9864483,27.7892146 L48.4603149,28.7168689 L48.2800854,30.2639413 Z M5.36262103,29.3620009 L1.8888517,30.2896553 L1.70862226,28.7427302 L5.18239159,27.8149285 L5.36262103,29.3620009 Z M48.4524365,21.8915162 L44.9785699,22.8191706 L44.7983405,21.2722454 L48.2722071,20.3444438 L48.4524365,21.8915162 Z M7.95703018,35.3726087 L4.90227243,37.125508 L4.38356567,36.2325763 L7.43832343,34.479677 L7.95703018,35.3726087 Z M45.7908182,13.5753894 L42.7360605,15.3283853 L42.2172564,14.435357 L45.2720142,12.6824577 L45.7908182,13.5753894 Z M12.6156646,40.5828753 L10.3482557,43.2683405 L9.55361211,42.6055777 L11.8210211,39.9200158 L12.6156646,40.5828753 Z M40.6497563,7.23051867 L38.3823474,9.91598388 L37.5876065,9.25322112 L39.8550155,6.56765924 L40.6497563,7.23051867 Z M19.0569463,43.8432311 L17.6798471,47.1377111 L16.5669982,46.7850625 L17.9440974,43.4905825 L19.0569463,43.8432311 Z M34.0115159,2.9781454 L32.6344168,6.27262541 L31.5215679,5.91997684 L32.898667,2.62549684 L34.0115159,2.9781454 Z" id="Combined-Shape" fill="#DB2342"></path>
                            <g id="Oval-3" transform="translate(6.492765, 6.506849)">
                                <mask id="mask-5" fill="white">
                                    <use xlink:href="#path-4"></use>
                                </mask>
                                <g id="Mask">
                                    <use fill="url(#linearGradient-3)" xlink:href="#path-4"></use>
                                    <use fill-opacity="0.299394248" fill="#000000" xlink:href="#path-4"></use>
                                </g>
                                <g mask="url(#mask-5)">
                                    <use fill="url(#linearGradient-3)" xlink:href="#path-6"></use>
                                    <use fill-opacity="0.100000001" fill="#000000" xlink:href="#path-6"></use>
                                </g>
                            </g>
                            <g id="Combined-Shape">
                                <use fill="black" fill-opacity="1" filter="url(#filter-9)" xlink:href="#path-8"></use>
                                <use fill="url(#linearGradient-7)" fill-rule="evenodd" xlink:href="#path-8"></use>
                            </g>
                        </g>
                        <path d="M72.4596394,26.6295701 L78.6530183,35.1736783 L74.9603133,35.1736783 L69.2463382,26.9671792 L68.7021501,26.9671792 L68.7021501,35.1736783 L65.6832018,35.1736783 L65.6832018,15.1248894 L69.2204245,15.1248894 C71.8636371,15.1248894 73.7725953,15.6226415 74.9473564,16.6181606 C76.2430489,17.7262166 76.8908854,19.189175 76.8908854,21.0070794 C76.8908854,22.4267762 76.4849078,23.6473509 75.6729406,24.6688401 C74.8609733,25.6903292 73.7898836,26.3438994 72.4596394,26.6295701 Z M68.7021501,24.3312309 L69.6609577,24.3312309 C72.520119,24.3312309 73.9496782,23.2361763 73.9496782,21.0460343 C73.9496782,18.9943993 72.5589892,17.9685972 69.7775694,17.9685972 L68.7021501,17.9685972 L68.7021501,24.3312309 Z M80.2078414,25.0583891 C80.2078414,22.2363088 81.2400609,19.8124726 83.3045309,17.7868076 C85.3603629,15.7611427 87.8307794,14.7483254 90.7158546,14.7483254 C93.5663779,14.7483254 96.010881,15.7697992 98.0494371,17.8127776 C100.096631,19.8557559 101.120213,22.3098901 101.120213,25.1752538 C101.120213,28.0579308 100.092312,30.5034085 98.0364803,32.5117601 C95.9720103,34.5287683 93.4799992,35.5372573 90.5603723,35.5372573 C87.9776253,35.5372573 85.6583707,34.6413036 83.6025387,32.8493692 C81.3393959,30.8669877 80.2078414,28.2700203 80.2078414,25.0583891 Z M83.2527034,25.097344 C83.2527034,27.3134561 83.995556,29.1356615 85.4812833,30.564015 C86.9583727,31.9923685 88.6643421,32.7065346 90.5992428,32.7065346 C92.6982646,32.7065346 94.4690177,31.9793837 95.9115553,30.5250601 C97.3540929,29.0534232 98.0753508,27.2615157 98.0753508,25.1492838 C98.0753508,23.0110819 97.3627307,21.2191744 95.937469,19.7735076 C94.5208453,18.319184 92.7673678,17.5920331 90.676984,17.5920331 C88.5952381,17.5920331 86.8374418,18.319184 85.4035421,19.7735076 C83.9696425,21.2105177 83.2527034,22.9851121 83.2527034,25.097344 Z M116.227911,18.1114318 L113.779065,19.5657481 C113.321253,18.7693328 112.885043,18.2499393 112.470422,18.0075521 C112.038524,17.730538 111.481385,17.5920331 110.798987,17.5920331 C109.961106,17.5920331 109.265761,17.8300885 108.712933,18.3062063 C108.160104,18.7736674 107.883694,19.3623134 107.883694,20.0721618 C107.883694,21.0503675 108.60927,21.8381143 110.060446,22.4354258 L112.055802,23.2534787 C113.679737,23.911387 114.867437,24.7142827 115.618939,25.66219 C116.37044,26.6100973 116.746186,27.7722403 116.746186,29.1486536 C116.746186,30.9925281 116.1329,32.5160824 114.906311,33.719362 C113.671085,34.9312983 112.137872,35.5372573 110.306626,35.5372573 C108.570398,35.5372573 107.13652,35.0221921 106.004949,33.9920463 C104.890653,32.9619004 104.195309,31.511927 103.918895,29.6420824 L106.976713,28.9668641 C107.114921,30.1441736 107.35678,30.9578901 107.702298,31.4080379 C108.32423,32.2737067 109.231201,32.7065346 110.423238,32.7065346 C111.364775,32.7065346 112.146497,32.3905702 112.76843,31.758632 C113.390362,31.1266938 113.701324,30.3259621 113.701324,29.3564131 C113.701324,28.9668621 113.647337,28.6097791 113.539363,28.2851533 C113.431388,27.9605275 113.262951,27.6618763 113.034045,27.3891906 C112.80514,27.116505 112.509294,26.8611365 112.1465,26.6230776 C111.783706,26.3850187 111.351815,26.157784 110.850814,25.9413668 L108.920242,25.1362989 C106.182012,23.9763027 104.812918,22.2796173 104.812918,20.0461919 C104.812918,18.5399282 105.387333,17.280399 106.53618,16.2675665 C107.685027,15.2460773 109.114587,14.7353404 110.824901,14.7353404 C113.131233,14.7353404 114.932219,15.8606929 116.227911,18.1114318 Z M131.426307,17.9685972 L123.406011,17.9685972 L123.406011,22.7860199 L131.193084,22.7860199 L131.193084,25.6297276 L123.406011,25.6297276 L123.406011,32.3299705 L131.426307,32.3299705 L131.426307,35.1736783 L120.387063,35.1736783 L120.387063,15.1248894 L131.426307,15.1248894 L131.426307,17.9685972 Z M150.174883,16.2026417 L150.174883,19.7864925 C148.430018,18.3235123 146.624713,17.5920331 144.758916,17.5920331 C142.703084,17.5920331 140.971201,18.3321688 139.563215,19.8124625 C138.146592,21.2840994 137.43829,23.0846635 137.43829,25.2142087 C137.43829,27.3177838 138.146592,29.0923782 139.563215,30.5380451 C140.979839,31.983712 142.716041,32.7065346 144.771873,32.7065346 C145.834341,32.7065346 146.736993,32.5334034 147.479857,32.1871359 C147.894478,32.0140021 148.32421,31.7802751 148.769064,31.4859477 C149.213918,31.1916203 149.68252,30.8367014 150.174883,30.4211804 L150.174883,34.0699561 C148.447293,35.0481618 146.633351,35.5372573 144.733002,35.5372573 C141.873841,35.5372573 139.433657,34.5374249 137.412377,32.53773 C135.399734,30.5207217 134.393428,28.0882289 134.393428,25.2401786 C134.393428,22.6864557 135.235616,20.4097809 136.920016,18.410086 C138.993124,15.9602434 141.675167,14.7353404 144.966226,14.7353404 C146.762919,14.7353404 148.499121,15.2244359 150.174883,16.2026417 Z M152.856953,25.0583891 C152.856953,22.2363088 153.889173,19.8124726 155.953643,17.7868076 C158.009475,15.7611427 160.479891,14.7483254 163.364966,14.7483254 C166.21549,14.7483254 168.659993,15.7697992 170.698549,17.8127776 C172.745743,19.8557559 173.769325,22.3098901 173.769325,25.1752538 C173.769325,28.0579308 172.741424,30.5034085 170.685592,32.5117601 C168.621122,34.5287683 166.129111,35.5372573 163.209484,35.5372573 C160.626737,35.5372573 158.307483,34.6413036 156.251651,32.8493692 C153.988508,30.8669877 152.856953,28.2700203 152.856953,25.0583891 Z M155.901815,25.097344 C155.901815,27.3134561 156.644668,29.1356615 158.130395,30.564015 C159.607485,31.9923685 161.313454,32.7065346 163.248355,32.7065346 C165.347376,32.7065346 167.11813,31.9793837 168.560667,30.5250601 C170.003205,29.0534232 170.724463,27.2615157 170.724463,25.1492838 C170.724463,23.0110819 170.011843,21.2191744 168.586581,19.7735076 C167.169957,18.319184 165.41648,17.5920331 163.326096,17.5920331 C161.24435,17.5920331 159.486554,18.319184 158.052654,19.7735076 C156.618754,21.2105177 155.901815,22.9851121 155.901815,25.097344 Z M180.584633,15.1248894 L180.584633,35.1736783 L177.565685,35.1736783 L177.565685,15.1248894 L180.584633,15.1248894 Z M185.391628,35.1736783 L185.391628,13.7614679 L199.981052,29.0577589 L199.981052,15.1248894 L203,15.1248894 L203,36.3942651 L188.410576,21.1369291 L188.410576,35.1736783 L185.391628,35.1736783 Z" id="ROSECOIN" fill="#FFFFFF"></path>
                    </g>
                </g>
            </g>
        </g>
    </g>
</svg>