<?xml version="1.0" encoding="UTF-8"?>
<svg width="260px" height="262px" viewBox="0 0 260 262" version="1.1" xmlns="http://www.w3.org/2000/svg" xmlns:xlink="http://www.w3.org/1999/xlink">
    <!-- Generator: Sketch 46.1 (44463) - http://www.bohemiancoding.com/sketch -->
    <title>Group 11</title>
    <desc>Created with Sketch.</desc>
    <defs>
        <filter x="-4.5%" y="-2.5%" width="109.0%" height="107.9%" filterUnits="objectBoundingBox" id="filter-1">
            <feOffset dx="0" dy="2" in="SourceAlpha" result="shadowOffsetOuter1"></feOffset>
            <feGaussianBlur stdDeviation="1.5" in="shadowOffsetOuter1" result="shadowBlurOuter1"></feGaussianBlur>
            <feColorMatrix values="0 0 0 0 0   0 0 0 0 0   0 0 0 0 0  0 0 0 0.1 0" type="matrix" in="shadowBlurOuter1" result="shadowMatrixOuter1"></feColorMatrix>
            <feMerge>
                <feMergeNode in="shadowMatrixOuter1"></feMergeNode>
                <feMergeNode in="SourceGraphic"></feMergeNode>
            </feMerge>
        </filter>
        <polygon id="path-2" points="0.0162053571 82.53125 0.0162053571 -1.13686838e-13 121 -8.28226376e-14 121 82.53125"></polygon>
        <linearGradient x1="14.3222953%" y1="16.7351991%" x2="78.5856008%" y2="89.8020213%" id="linearGradient-4">
            <stop stop-color="#FB167F" offset="0%"></stop>
            <stop stop-color="#FF4958" offset="100%"></stop>
        </linearGradient>
    </defs>
    <g id="Page-1" stroke="none" stroke-width="1" fill="none" fill-rule="evenodd">
        <g id="Whipers---Pre-sales" transform="translate(-157.000000, -2417.000000)">
            <g id="how-to" transform="translate(156.000000, 2262.000000)">
                <g id="Group-6" transform="translate(1.000000, 114.000000)">
                    <g id="Group-11" transform="translate(0.000000, 41.000000)">
                        <rect id="Rectangle-12" fill="#000000" opacity="0.0299999993" x="0" y="0" width="260" height="262" rx="8"></rect>
                        <text id="Open" font-family="GothamRounded-Medium, Gotham Rounded" font-size="18" font-weight="400" fill="#FD2D6E">
                            <tspan x="105" y="229">Open</tspan>
                        </text>
                        <g id="pdf" filter="url(#filter-1)" transform="translate(64.000000, 49.000000)">
                            <path d="M25.9285714,0 C21.175,0 17.2857143,3.909375 17.2857143,8.6875 L17.2857143,130.3125 C17.2857143,135.090625 21.175,139 25.9285714,139 L112.357143,139 C117.110714,139 121,135.090625 121,130.3125 L121,34.75 L86.4285714,0 L25.9285714,0" id="Fill-1" fill="#FFFFFF"></path>
                            <path d="M95.0714286,34.75 L121,34.75 L86.4285714,0 L86.4285714,26.0625 C86.4285714,30.840625 90.3178571,34.75 95.0714286,34.75" id="Fill-2" fill="#DBE3E5"></path>
                            <g id="Group-6" transform="translate(0.000000, 34.750000)">
                                <mask id="mask-3" fill="white">
                                    <use xlink:href="#path-2"></use>
                                </mask>
                                <g id="Clip-4"></g>
                                <polyline id="Fill-3" fill="#E9EDEE" mask="url(#mask-3)" points="121 26.0625 95.0714286 0 121 0 121 26.0625"></polyline>
                                <path d="M103.714286,78.1875 C103.714286,80.5765625 101.769643,82.53125 99.3928571,82.53125 L4.32142857,82.53125 C1.94464286,82.53125 0,80.5765625 0,78.1875 L0,34.75 C0,32.3609375 1.94464286,30.40625 4.32142857,30.40625 L99.3928571,30.40625 C101.769643,30.40625 103.714286,32.3609375 103.714286,34.75 L103.714286,78.1875" id="Fill-5" fill="url(#linearGradient-4)" mask="url(#mask-3)"></path>
                            </g>
                            <path d="M23.3962143,84.2774375 L23.3962143,92.9301875 L29.1653214,92.9301875 C31.4816071,92.9301875 33.3138929,90.8755937 33.3138929,88.7210937 C33.3138929,86.2929375 31.4816071,84.2774375 29.1653214,84.2774375 L23.3962143,84.2774375 Z M18.8371071,82.3010312 C18.8371071,81.1542812 19.7359643,79.9032812 21.1836429,79.9032812 L29.1653214,79.9032812 C33.6596071,79.9032812 37.7044643,82.9265312 37.7044643,88.7210937 C37.7044643,94.2115937 33.6596071,97.2695937 29.1653214,97.2695937 L23.3962143,97.2695937 L23.3962143,101.856594 C23.3962143,103.385594 22.4282143,104.25 21.1836429,104.25 C20.0427857,104.25 18.8371071,103.385594 18.8371071,101.856594 L18.8371071,82.3010312 L18.8371071,82.3010312 Z" id="Fill-7" fill="#FFFFFE"></path>
                            <path d="M46.6498214,84.4555312 L46.6498214,100.014844 L52.3843571,100.014844 C61.7143214,100.014844 62.1291786,84.4555312 52.3843571,84.4555312 L46.6498214,84.4555312 Z M44.4718214,104.25 C43.3309643,104.25 42.0863929,103.6245 42.0863929,102.099844 L42.0863929,82.3705312 C42.0863929,81.123875 43.3309643,80.2160313 44.4718214,80.2160313 L52.3843571,80.2160313 C68.1748571,80.2160313 67.8291429,104.25 52.6955,104.25 L44.4718214,104.25 L44.4718214,104.25 Z" id="Fill-8" fill="#FFFFFE"></path>
                            <path d="M73.4297143,84.7335312 L73.4297143,90.2544375 L82.2411071,90.2544375 C83.4856786,90.2544375 84.73025,91.5054375 84.73025,92.7173437 C84.73025,93.8640937 83.4856786,94.8023437 82.2411071,94.8023437 L73.4297143,94.8023437 L73.4297143,102.0955 C73.4297143,103.31175 72.56975,104.245656 71.35975,104.245656 C69.8386071,104.245656 68.9095,103.31175 68.9095,102.0955 L68.9095,82.3661875 C68.9095,81.1195312 69.8429286,80.2116875 71.35975,80.2116875 L83.49,80.2116875 C85.0111429,80.2116875 85.91,81.1195312 85.91,82.3661875 C85.91,83.4781875 85.0111429,84.7291875 83.49,84.7291875 L73.4297143,84.7291875 L73.4297143,84.7335312" id="Fill-9" fill="#FFFFFE"></path>
                            <path d="M99.3928571,117.28125 L17.2857143,117.28125 L17.2857143,121.625 L99.3928571,121.625 C101.769643,121.625 103.714286,119.670313 103.714286,117.28125 L103.714286,112.9375 C103.714286,115.326563 101.769643,117.28125 99.3928571,117.28125" id="Fill-10" fill="#C6CCCE" opacity="0.5"></path>
                        </g>
                    </g>
                </g>
            </g>
        </g>
    </g>
</svg>