<?xml version="1.0" encoding="UTF-8"?>
<svg width="99px" height="101px" viewBox="0 0 99 101" version="1.1" xmlns="http://www.w3.org/2000/svg" xmlns:xlink="http://www.w3.org/1999/xlink">
    <!-- Generator: Sketch 46.1 (44463) - http://www.bohemiancoding.com/sketch -->
    <title>percentage</title>
    <desc>Created with Sketch.</desc>
    <defs></defs>
    <g id="Page-1" stroke="none" stroke-width="1" fill="none" fill-rule="evenodd">
        <g id="Whipers---Pre-sales" transform="translate(-671.000000, -399.000000)">
            <g id="pre-sales" transform="translate(470.000000, 310.000000)">
                <g id="percentage" transform="translate(201.000000, 89.000000)">
                    <g id="Group-5">
                        <path d="M96.7918159,55.7128207 L95.2739537,53.6366574 C93.6338321,51.3746726 93.5928227,48.3105456 95.2129521,46.0084666 L96.6885233,43.9112281 C98.9442992,40.703687 97.8980457,36.241915 94.4330037,34.3705923 L92.178253,33.1577408 C89.7171736,31.8415695 88.3636055,29.0868879 88.8352141,26.3108741 L89.265557,23.7818513 C89.9224771,19.91661 87.0310548,16.3384539 83.1141399,16.1737076 L80.5510495,16.0714158 C77.7629197,15.9477918 75.3428496,14.056422 74.5639265,11.3629099 L73.8460048,8.89505649 C72.7597671,5.11205983 68.6178129,3.1584925 65.0094941,4.72165478 L62.650682,5.72863766 C60.0875915,6.83894036 57.0939019,6.18124022 55.2287409,4.08400177 L53.5265925,2.17155676 C50.9224926,-0.747871123 46.3499393,-0.726795933 43.7658314,2.2538014 L42.0847004,4.18655056 C40.2395316,6.3048642 37.2660903,7.00368667 34.6827515,5.93450628 L32.3039472,4.94757054 C28.6746111,3.44660577 24.5736664,5.48267476 23.5274128,9.2654144 L22.8515259,11.7533149 C22.1125869,14.4671312 19.7348079,16.4006514 16.9453965,16.5443225 L14.3823061,16.6877366 C10.4666728,16.9146804 7.63625197,20.5329308 8.35417361,24.3981721 L8.82578226,26.9271949 C9.33840035,29.6831616 8.02661065,32.4581473 5.5857796,33.8154409 L3.35102103,35.0694148 C-0.0730115206,36.9818598 -1.05723826,41.4647069 1.25953921,44.6311258 L2.77740138,46.707289 C4.41726666,48.9692738 4.45853242,52.0323728 2.83840294,54.3354799 L1.36257545,56.4327183 C-0.89294416,59.6402595 0.152284131,64.1020315 3.61732613,65.9733541 L5.87310204,67.1862056 C8.33418151,68.502377 9.68672434,71.2573156 9.2151157,74.0330723 L8.7845165,76.5620952 C8.12887796,80.4273365 11.0203003,84.0054926 14.9359336,84.1702389 L17.4990241,84.2725306 C20.2884354,84.3961546 22.7074802,86.2875244 23.4874286,88.9812936 L24.204325,91.4488899 C25.291588,95.2318866 29.4335422,97.1846829 33.041861,95.6222916 L35.3996479,94.6145377 C37.9627383,93.5050061 40.956428,94.1627062 42.8226142,96.2599447 L44.5247625,98.1713616 C47.1488546,101.092075 51.7214079,101.070999 54.2844984,98.090145 L55.9663984,96.1566248 C57.8118235,94.0390822 60.7852647,93.3405168 63.3683473,94.4096972 L65.7474079,95.3966329 C69.376744,96.8973407 73.4776887,94.8615287 74.522917,91.078532 L75.1998292,88.5906315 C75.9374866,85.8760442 78.3165472,83.943295 81.1049333,83.7996239 L83.6680238,83.6562098 C87.5846823,83.429266 90.4140779,79.8110157 89.6961562,75.9457744 L89.2245476,73.4167515 C88.7119295,70.6607849 90.0244881,67.8850281 92.4645502,66.5285055 L94.7003341,65.2735036 C98.1243666,63.3821338 99.1085933,58.9005717 96.7918159,55.7128207 Z" id="Fill-4" fill="#FFFFFF"></path>
                        <text id="20%" font-family="GothamRounded-Bold, Gotham Rounded" font-size="33.6000013" font-weight="bold" letter-spacing="-1.47840048" fill="#FC2177">
                            <tspan x="17.2392013" y="63.0000014">20%</tspan>
                        </text>
                    </g>
                </g>
            </g>
        </g>
    </g>
</svg>