<?xml version="1.0" encoding="UTF-8"?>
<svg width="114px" height="114px" viewBox="0 0 114 114" version="1.1" xmlns="http://www.w3.org/2000/svg" xmlns:xlink="http://www.w3.org/1999/xlink">
    <!-- Generator: Sketch 46.1 (44463) - http://www.bohemiancoding.com/sketch -->
    <title>rosecoin</title>
    <desc>Created with Sketch.</desc>
    <defs>
        <linearGradient x1="14.3222953%" y1="16.7351991%" x2="78.5856008%" y2="89.8020213%" id="linearGradient-1">
            <stop stop-color="#FB167F" offset="0%"></stop>
            <stop stop-color="#FF4958" offset="100%"></stop>
        </linearGradient>
        <linearGradient x1="50%" y1="0%" x2="50%" y2="100%" id="linearGradient-2">
            <stop stop-color="#FF6969" offset="0%"></stop>
            <stop stop-color="#D3394A" offset="100%"></stop>
        </linearGradient>
        <linearGradient x1="13.9138297%" y1="8.31608149%" x2="84.7611938%" y2="90.6994421%" id="linearGradient-3">
            <stop stop-color="#FB167F" offset="0%"></stop>
            <stop stop-color="#FF4958" offset="100%"></stop>
        </linearGradient>
        <ellipse id="path-4" cx="41.6828991" cy="41.7733216" rx="41.6828991" ry="41.7733216"></ellipse>
        <ellipse id="path-6" cx="45.8968597" cy="44.5285654" rx="41.6828991" ry="41.7733216"></ellipse>
        <linearGradient x1="14.3222953%" y1="16.7351991%" x2="78.5856008%" y2="89.8020213%" id="linearGradient-7">
            <stop stop-color="#FFFFFF" offset="0%"></stop>
            <stop stop-color="#FFD8DB" offset="100%"></stop>
        </linearGradient>
        <path d="M54.2352284,30.6849315 L49.3774392,39.0389864 L55.7912518,45.2309388 L62.2851694,39.581049 L56.3952868,34.8894418 L52.0313684,37.9579351 L56.3952868,30.6849315 L68.0480386,39.0389864 C60.5289935,45.6992527 56.8336993,50.6790785 56.962156,53.9784637 C57.0906126,57.2778489 57.0906126,65.596534 56.962156,78.934519 L55.7912518,80.8211944 L54.5640576,78.934519 L54.5640576,53.9784637 C54.6715868,51.4740106 53.4328113,48.8255228 50.8477314,46.0330005 C48.2626514,43.2404782 45.9784907,40.9091402 43.9952492,39.0389864 L54.2352284,30.6849315 Z M53.4418889,39.7734399 L56.1277063,37.2911636 L58.7867969,39.7734399 L56.1143429,42.6447647 L53.4418889,39.7734399 Z M71.0586786,41.6017179 C71.3233926,41.4517097 66.5207583,57.5955286 65.9665651,63.970948 C65.597103,68.2212275 63.8051671,71.5694406 60.5907575,74.0155873 C60.3174642,61.6152961 60.5296476,54.1346292 61.2273077,51.5735867 C62.2737978,47.732023 70.7939646,41.751726 71.0586786,41.6017179 Z M73.1524208,44.7626603 L80.3708103,50.5146145 L68.5342374,64.9307341 L73.1524208,44.7626603 Z M40.3882321,41.6017179 C40.6529461,41.751726 49.1731129,47.732023 50.219603,51.5735867 C50.9172631,54.1346292 51.1294465,61.6152961 50.8561532,74.0155873 C47.6417436,71.5694406 45.8498078,68.2212275 45.4803456,63.970948 C44.9261524,57.5955286 40.1235181,41.4517097 40.3882321,41.6017179 Z M38.6023632,44.7626603 L43.2205466,64.9307341 L31.3839737,50.5146145 L38.6023632,44.7626603 Z" id="path-8"></path>
        <filter x="0.0%" y="0.0%" width="100.0%" height="100.0%" filterUnits="objectBoundingBox" id="filter-9">
            <feOffset dx="0" dy="0" in="SourceAlpha" result="shadowOffsetOuter1"></feOffset>
            <feColorMatrix values="0 0 0 0 0.600791879   0 0 0 0 0.0760827626   0 0 0 0 0.170786359  0 0 0 1 0" type="matrix" in="shadowOffsetOuter1"></feColorMatrix>
        </filter>
    </defs>
    <g id="Page-1" stroke="none" stroke-width="1" fill="none" fill-rule="evenodd">
        <g id="Mobile---Whipers---Pre-sales" transform="translate(-150.000000, -131.000000)">
            <g id="hero-section" transform="translate(47.000000, 132.000000)">
                <g id="rosecoin" transform="translate(104.000000, 0.000000)">
                    <ellipse id="Oval" stroke="url(#linearGradient-2)" stroke-width="1.11887999" fill="url(#linearGradient-1)" cx="55.8787824" cy="56" rx="55.8787824" ry="56"></ellipse>
                    <path d="M55.1386382,10.9216983 L55.1386382,3.06849315 L59.2052992,3.06849315 L59.2052992,10.9216983 L55.1386382,10.9216983 Z M55.1386382,108.392864 L55.1386382,100.539659 L59.2052992,100.539659 L59.2052992,108.392864 L55.1386382,108.392864 Z M40.1937999,14.0493817 L37.1089866,6.66974647 L39.6019057,5.87981369 L42.6864703,13.2594489 L40.1937999,14.0493817 Z M73.6917872,105.575481 L70.6072226,98.1960619 L73.1001417,97.4061291 L76.1847063,104.785548 L73.6917872,105.575481 Z M26.474294,22.0418211 L21.395298,16.026379 L23.1755175,14.5415739 L28.2545135,20.5572325 L26.474294,22.0418211 Z M89.2706594,96.7417887 L84.1916634,90.7263466 L85.971665,89.241758 L91.0508789,95.2572001 L89.2706594,96.7417887 Z M16.664241,34.2199515 L9.82158368,30.2934572 L10.9834868,28.2932902 L17.8261442,32.2197845 L16.664241,34.2199515 Z M101.432624,83.0457228 L94.5899666,79.1192285 L95.7518697,77.118845 L102.594527,81.0455558 L101.432624,83.0457228 Z M11.6122609,51.0712012 L3.83101766,48.9929256 L4.23473161,45.5278133 L12.0159749,47.6057591 L11.6122609,51.0712012 Z M108.147391,67.7912286 L100.36593,65.712953 L100.769644,62.2478407 L108.551105,64.3257864 L108.147391,67.7912286 Z M12.0122711,65.7708821 L4.23102782,67.8488279 L3.82731386,64.3837156 L11.6085572,62.3054399 L12.0122711,65.7708821 Z M108.533458,49.0369963 L100.751997,51.114942 L100.348283,47.6498297 L108.129744,45.5715541 L108.533458,49.0369963 Z M17.8237476,79.2346436 L10.9810902,83.1611378 L9.81918711,81.1609709 L16.6618445,77.2344766 L17.8237476,79.2346436 Z M102.571433,30.4088723 L95.7287754,34.3355831 L94.5666544,32.3351996 L101.409312,28.4087053 L102.571433,30.4088723 Z M28.2590888,90.9056406 L23.1800927,96.9210827 L21.4000911,95.4364941 L26.4790872,89.4208355 L28.2590888,90.9056406 Z M91.0554542,16.1963618 L85.9764581,22.2118039 L84.1962386,20.7272153 L89.2752347,14.7115567 L91.0554542,16.1963618 Z M42.6875596,98.2088377 L39.6028575,105.588473 L37.110076,104.79854 L40.1947781,97.4189049 L42.6875596,98.2088377 Z M76.1857956,6.6710457 L73.1010935,14.0506809 L70.608312,13.2607481 L73.6930141,5.88111292 L76.1857956,6.6710457 Z" id="Combined-Shape" fill="#DB2342"></path>
                    <g id="Oval-3" transform="translate(14.543793, 14.575342)">
                        <mask id="mask-5" fill="white">
                            <use xlink:href="#path-4"></use>
                        </mask>
                        <g id="Mask">
                            <use fill="url(#linearGradient-3)" xlink:href="#path-4"></use>
                            <use fill-opacity="0.299394248" fill="#000000" xlink:href="#path-4"></use>
                        </g>
                        <g mask="url(#mask-5)">
                            <use fill="url(#linearGradient-3)" xlink:href="#path-6"></use>
                            <use fill-opacity="0.100000001" fill="#000000" xlink:href="#path-6"></use>
                        </g>
                    </g>
                    <g id="Combined-Shape">
                        <use fill="black" fill-opacity="1" filter="url(#filter-9)" xlink:href="#path-8"></use>
                        <use fill="url(#linearGradient-7)" fill-rule="evenodd" xlink:href="#path-8"></use>
                    </g>
                </g>
            </g>
        </g>
    </g>
</svg>