<?xml version="1.0" encoding="UTF-8"?>
<svg width="30px" height="29px" viewBox="0 0 30 29" version="1.1" xmlns="http://www.w3.org/2000/svg" xmlns:xlink="http://www.w3.org/1999/xlink">
    <!-- Generator: Sketch 46.1 (44463) - http://www.bohemiancoding.com/sketch -->
    <title>ic-footer-git</title>
    <desc>Created with Sketch.</desc>
    <defs></defs>
    <g id="Page-1" stroke="none" stroke-width="1" fill="none" fill-rule="evenodd" opacity="0.900000036">
        <g id="Whipers---Home" transform="translate(-1216.000000, -6007.000000)">
            <g id="footer" transform="translate(0.000000, 5721.000000)">
                <g id="social" transform="translate(1056.000000, 286.000000)">
                    <g id="ic-footer-git" transform="translate(160.000000, 0.000000)">
                        <path d="M0.5,14.5 C0.5,22.2317619 6.78083858,28.5 14.529148,28.5 C22.2774574,28.5 28.558296,22.2317619 28.558296,14.5 C28.558296,6.76823813 22.2774574,0.5 14.529148,0.5 C6.78083858,0.5 0.5,6.76823813 0.5,14.5 Z" id="back" stroke="#FFFFFF"></path>
                        <path d="M12.2894935,21.9294174 C12.3926371,21.8342778 12.4437542,21.7154898 12.4437542,21.5734172 C12.4437542,21.5499506 12.4415712,21.3367507 12.4381149,20.9330897 C12.4337491,20.5303383 12.4315661,20.178522 12.4315661,19.8780047 L12.159427,19.9254835 C11.9853379,19.9574999 11.7657711,19.9709613 11.5014541,19.9667774 C11.2364095,19.9631392 10.9613597,19.9354887 10.6772144,19.883644 C10.3923415,19.8325269 10.1278426,19.7144665 9.8828082,19.5283714 C9.63759189,19.3428219 9.46423051,19.0997886 9.36126877,18.7992713 L9.24248075,18.5264045 C9.16371319,18.3444932 9.03928593,18.1434814 8.86938086,17.9217316 C8.69893006,17.7007095 8.52702397,17.550087 8.35366259,17.4711375 L8.27034726,17.4121983 C8.21504625,17.3723598 8.1639292,17.3248809 8.11626846,17.269398 C8.06860773,17.2146427 8.03313504,17.1591598 8.0096685,17.1038588 C7.98620195,17.0483759 8.00530263,17.0028981 8.06860773,16.9674254 C8.13191283,16.9310432 8.24706262,16.9141254 8.41260182,16.9141254 L8.64981403,16.9495981 C8.80771296,16.9808868 9.00381324,17.0760264 9.2368415,17.2339253 C9.46986976,17.39237 9.66178608,17.5977477 9.81168091,17.8506043 C9.99359212,18.1745882 10.2124313,18.4212598 10.4696538,18.5917106 C10.7268762,18.7616156 10.9855539,18.8462044 11.2464146,18.8462044 C11.5070934,18.8462044 11.7324814,18.8261941 11.9222147,18.7872651 C12.1119481,18.7474266 12.2894935,18.6884873 12.4557603,18.6095379 C12.5268876,18.0794486 12.7208049,17.6723313 13.0364209,17.3880041 C12.5858268,17.3403434 12.1808925,17.269398 11.821254,17.1740765 C11.4616156,17.0796646 11.089971,16.9254039 10.7070479,16.7114763 C10.3233971,16.4984583 10.0050525,16.2334137 9.75201404,15.9177977 C9.49970319,15.6016361 9.29159677,15.185969 9.13024153,14.6727974 C8.96815865,14.1583525 8.88720816,13.5656858 8.88720816,12.8942516 C8.88720816,11.9377624 9.19918588,11.1235279 9.82386897,10.4511841 C9.53099192,9.73208905 9.55864243,8.92640432 9.90700239,8.03303838 C10.1356648,7.96136536 10.4760206,8.01539299 10.9266147,8.19293833 C11.3772088,8.37066558 11.7068319,8.52347099 11.9163936,8.64917164 C12.1261372,8.77559993 12.2938593,8.88292754 12.4202876,8.96969918 C13.1557546,8.76432143 13.9146882,8.66135969 14.6970883,8.66135969 C15.4793065,8.66135969 16.23824,8.76432143 16.973707,8.96969918 L17.4243011,8.68464432 C17.731913,8.49491093 18.0957354,8.32154955 18.5150407,8.16310489 C18.9336184,8.00538788 19.253964,7.96209301 19.4757138,8.03303838 C19.8309864,8.92640432 19.8630028,9.73208905 19.5703076,10.4519117 C20.1948088,11.1235279 20.5067865,11.9377624 20.5067865,12.8942516 C20.5067865,13.5656858 20.425836,14.1605355 20.2637531,14.6786186 C20.1018522,15.1965198 19.8928362,15.6116412 19.6356137,15.923437 C19.3783913,16.2361424 19.0585914,16.4984583 18.6749407,16.712204 C18.2918357,16.9254039 17.9201911,17.0796646 17.5607345,17.1740765 C17.2010961,17.269398 16.7961617,17.3403434 16.3455677,17.3880041 C16.7563232,17.7440043 16.9617009,18.3046547 16.9617009,19.0714104 L16.9617009,21.5734172 C16.9617009,21.7154898 17.0113627,21.8342778 17.1101405,21.9286898 C17.2089182,22.0232836 12.1872594,22.0240112 12.2894935,21.9294174 Z" id="github-logo" fill="#FFFFFF"></path>
                    </g>
                </g>
            </g>
        </g>
    </g>
</svg>