<?xml version="1.0" encoding="UTF-8"?>
<svg width="30px" height="29px" viewBox="0 0 30 29" version="1.1" xmlns="http://www.w3.org/2000/svg" xmlns:xlink="http://www.w3.org/1999/xlink">
    <!-- Generator: Sketch 46.1 (44463) - http://www.bohemiancoding.com/sketch -->
    <title>ic-footer-medium</title>
    <desc>Created with Sketch.</desc>
    <defs></defs>
    <g id="Page-1" stroke="none" stroke-width="1" fill="none" fill-rule="evenodd" opacity="0.900000036">
        <g id="Whipers---Home" transform="translate(-1256.000000, -6007.000000)">
            <g id="footer" transform="translate(0.000000, 5721.000000)">
                <g id="social" transform="translate(1056.000000, 286.000000)">
                    <g id="ic-footer-medium" transform="translate(200.000000, 0.000000)">
                        <path d="M0.5,14.5 C0.5,22.2317619 6.78083858,28.5 14.529148,28.5 C22.2774574,28.5 28.558296,22.2317619 28.558296,14.5 C28.558296,6.76823813 22.2774574,0.5 14.529148,0.5 C6.78083858,0.5 0.5,6.76823813 0.5,14.5 Z" id="back" stroke="#FFFFFF"></path>
                        <path d="M12.6496856,16.0902856 C12.6496856,17.5847245 12.650707,19.0792313 12.6490046,20.5736702 C12.6484599,21.0298738 12.537737,21.0951331 12.1191553,20.8868471 C10.8821366,20.270962 9.64879509,19.6475994 8.40796306,19.0394639 C8.11494911,18.8958254 7.99918715,18.6955608 8.00000429,18.3713714 C8.00756287,15.3937101 8.00402191,12.4161168 8.00470287,9.43845543 C8.00477096,8.98959353 8.04617289,8.9634898 8.44064879,9.16001558 C9.74814609,9.81145335 11.0525791,10.4690092 12.3645707,11.1112019 C12.5766875,11.215005 12.657108,11.3339673 12.6553375,11.5729117 C12.6443061,13.078635 12.6497537,14.5844943 12.6496856,16.0902856 Z M21.9747814,11.2987681 C20.504945,13.6827734 19.0507024,16.0417625 17.5754864,18.434469 C17.1062419,17.6738578 16.6606945,16.9519944 16.2154877,16.229927 C15.6983722,15.3912765 15.1868405,14.5490231 14.6601917,13.7164227 C14.5530097,13.5468844 14.5590702,13.4283299 14.6627112,13.2619866 C15.5011683,11.9163526 16.3305687,10.5651443 17.1610586,9.21447994 C17.2548939,9.0617323 17.3325906,8.92917426 17.5569645,9.04249439 C18.9828114,9.7626584 20.4130845,10.4739852 21.8412466,11.1896626 C21.8795842,11.2088326 21.909478,11.2446572 21.9747814,11.2987681 Z M21.9995204,12.220128 L21.9995204,12.5177378 C21.9994523,15.1562545 21.9993842,17.7948391 21.999248,20.4334238 C21.999248,20.5013343 22.0016995,20.5695167 21.9977499,20.6372233 C21.9764361,21.0022677 21.8508684,21.0801031 21.5174059,20.9157991 C20.6842603,20.505481 19.8545194,20.0881611 19.0237571,19.6728806 C18.5995235,19.4609237 18.176039,19.2474713 17.7101312,19.0136253 C19.1214057,16.7238382 20.5191973,14.4560761 21.9169889,12.1882461 C21.9444313,12.1989187 21.9720099,12.2095234 21.9995204,12.220128 Z M17.3038067,18.7921038 C17.1257376,18.7152202 17.0349666,18.681095 16.9486218,18.6381326 C15.7534136,18.042981 14.5612016,17.4417113 13.3617715,16.855193 C13.1519699,16.7526135 13.0639227,16.6380698 13.066238,16.3949107 C13.0789718,15.0490048 13.0720942,13.702827 13.0728432,12.3567851 C13.0728432,12.268821 13.0804699,12.1808568 13.1540128,12.0616226 C14.5205487,14.2779929 15.8870846,16.4943632 17.3038067,18.7921038 Z" id="Combined-Shape" fill="#FFFFFF"></path>
                    </g>
                </g>
            </g>
        </g>
    </g>
</svg>