<?xml version="1.0" encoding="UTF-8"?>
<svg width="30px" height="29px" viewBox="0 0 30 29" version="1.1" xmlns="http://www.w3.org/2000/svg" xmlns:xlink="http://www.w3.org/1999/xlink">
    <!-- Generator: Sketch 46.1 (44463) - http://www.bohemiancoding.com/sketch -->
    <title>ic-footer-slack</title>
    <desc>Created with Sketch.</desc>
    <defs></defs>
    <g id="Page-1" stroke="none" stroke-width="1" fill="none" fill-rule="evenodd" opacity="0.900000036">
        <g id="Whipers---Home" transform="translate(-1136.000000, -6007.000000)">
            <g id="footer" transform="translate(0.000000, 5721.000000)">
                <g id="social" transform="translate(1056.000000, 286.000000)">
                    <g id="ic-footer-slack" transform="translate(80.000000, 0.000000)">
                        <path d="M0.5,14.5 C0.5,22.2317619 6.78083858,28.5 14.529148,28.5 C22.2774574,28.5 28.558296,22.2317619 28.558296,14.5 C28.558296,6.76823813 22.2774574,0.5 14.529148,0.5 C6.78083858,0.5 0.5,6.76823813 0.5,14.5 Z" id="back" stroke="#FFFFFF"></path>
                        <path d="M20.9006065,14.7676894 C20.6442656,14.194039 19.9698205,13.9356379 19.3966713,14.1919718 L18.8493629,14.4384864 L17.4441396,11.2994299 L17.9935152,11.0549825 C18.5666644,10.7986486 18.8230053,10.1242218 18.5666644,9.55108815 C18.3103236,8.97743772 17.6379457,8.71903663 17.0627292,8.97743772 L16.5159376,9.22188516 L16.2714836,8.67459164 C16.0151427,8.09939081 15.3406975,7.84305693 14.7675483,8.09939081 C14.1938823,8.35572469 13.9354742,9.03015155 14.1918151,9.60328517 L14.4383364,10.1526459 L11.2991946,11.5557638 L11.0547406,11.0064031 C10.7983997,10.4332695 10.1239545,10.1769356 9.55080535,10.4332695 C8.97765615,10.6896034 8.7213153,11.361963 8.97765615,11.9371638 L9.22159341,12.4844574 L8.67480184,12.728388 C8.10113583,12.9867891 7.84272772,13.6591487 8.09906857,14.2322823 C8.35592623,14.8059328 9.02985459,15.0643339 9.6035206,14.808 L10.1523794,14.5614853 L11.5555355,17.7005418 L11.0061598,17.9449892 C10.4330106,18.2013231 10.1766698,18.87575 10.4330106,19.4488836 C10.6893515,20.022534 11.3617294,20.2809351 11.9369459,20.0240844 L12.4842542,19.7780866 L12.7281915,20.3269305 C12.9850492,20.9005809 13.6589775,21.1569148 14.2326435,20.9005809 C14.8057927,20.6442471 15.0642008,19.9718874 14.8057927,19.3966866 L14.5613387,18.8493931 L17.7009972,17.4462751 L17.9449345,17.9935686 C18.2012753,18.5667023 18.8757205,18.8251034 19.4488697,18.5667023 C20.0225357,18.3124356 20.2809438,17.6380087 20.0225357,17.0648751 L19.7780816,16.5155144 L20.32539,16.2715838 C20.9006065,16.0152499 21.1569473,15.3428902 20.9006065,14.7676894 Z M13.5439754,17 L12,13.5445443 L15.4531801,12 L17,15.453749 L13.5439754,17 Z" id="Fill-1" fill="#FFFFFF"></path>
                    </g>
                </g>
            </g>
        </g>
    </g>
</svg>