<?xml version="1.0" encoding="UTF-8"?>
<svg width="30px" height="29px" viewBox="0 0 30 29" version="1.1" xmlns="http://www.w3.org/2000/svg" xmlns:xlink="http://www.w3.org/1999/xlink">
    <!-- Generator: Sketch 46.1 (44463) - http://www.bohemiancoding.com/sketch -->
    <title>ic-footer-telegram</title>
    <desc>Created with Sketch.</desc>
    <defs></defs>
    <g id="Page-1" stroke="none" stroke-width="1" fill="none" fill-rule="evenodd" opacity="0.900000036">
        <g id="Whipers---Home" transform="translate(-1176.000000, -6007.000000)">
            <g id="footer" transform="translate(0.000000, 5721.000000)">
                <g id="social" transform="translate(1056.000000, 286.000000)">
                    <g id="ic-footer-telegram" transform="translate(120.000000, 0.000000)">
                        <path d="M0.5,14.5 C0.5,22.2317619 6.78083858,28.5 14.529148,28.5 C22.2774574,28.5 28.558296,22.2317619 28.558296,14.5 C28.558296,6.76823813 22.2774574,0.5 14.529148,0.5 C6.78083858,0.5 0.5,6.76823813 0.5,14.5 Z" id="back" stroke="#FFFFFF"></path>
                        <path d="M7.24722939,13.7538956 L10.4731164,14.9392454 L11.7217979,18.8922876 C11.8015395,19.1455404 12.1162474,19.239089 12.3249637,19.0710577 L14.1230278,17.6279756 C14.3115025,17.4767705 14.5798938,17.4691901 14.7770018,17.6100584 L18.0202138,19.9282125 C18.2435135,20.0879168 18.5597964,19.9674925 18.6158546,19.7018928 L20.9917679,8.45109025 C21.0528428,8.16108411 20.7632182,7.91879977 20.4825186,8.0257862 L7.24361273,13.0535738 C6.91682987,13.1776161 6.91957153,13.6330118 7.24722939,13.7538956 Z M11.5206065,14.308238 L17.8251474,10.4854977 C17.9384306,10.4171022 18.0550971,10.5678479 17.9577972,10.6566874 L12.7544714,15.4181863 C12.5717717,15.5857581 12.4537052,15.8100678 12.4202219,16.0534433 L12.2431805,17.3464687 C12.2196722,17.519209 11.9733892,17.5362648 11.924856,17.3693246 L11.2432903,15.0112588 C11.1651237,14.742271 11.2788736,14.4551362 11.5206065,14.308238 Z" id="Fill-1" fill="#FFFFFF"></path>
                    </g>
                </g>
            </g>
        </g>
    </g>
</svg>