<?xml version="1.0" encoding="UTF-8"?>
<svg width="54px" height="54px" viewBox="0 0 54 54" version="1.1" xmlns="http://www.w3.org/2000/svg" xmlns:xlink="http://www.w3.org/1999/xlink">
    <!-- Generator: Sketch 46.1 (44463) - http://www.bohemiancoding.com/sketch -->
    <title>icon-git</title>
    <desc>Created with Sketch.</desc>
    <defs>
        <filter x="-3.8%" y="-14.7%" width="107.5%" height="141.2%" filterUnits="objectBoundingBox" id="filter-1">
            <feOffset dx="0" dy="4" in="SourceAlpha" result="shadowOffsetOuter1"></feOffset>
            <feGaussianBlur stdDeviation="4" in="shadowOffsetOuter1" result="shadowBlurOuter1"></feGaussianBlur>
            <feColorMatrix values="0 0 0 0 0   0 0 0 0 0   0 0 0 0 0  0 0 0 0.1 0" type="matrix" in="shadowBlurOuter1" result="shadowMatrixOuter1"></feColorMatrix>
            <feMerge>
                <feMergeNode in="shadowMatrixOuter1"></feMergeNode>
                <feMergeNode in="SourceGraphic"></feMergeNode>
            </feMerge>
        </filter>
        <circle id="path-2" cx="19.0833104" cy="19.059193" r="18.9117642"></circle>
    </defs>
    <g id="Page-1" stroke="none" stroke-width="1" fill="none" fill-rule="evenodd">
        <g id="Whipers---Home" transform="translate(-366.000000, -656.000000)">
            <g id="hero-section">
                <g id="socials" filter="url(#filter-1)" transform="translate(155.000000, 630.000000)">
                    <g id="icon-git" transform="translate(219.000000, 30.000000)">
                        <mask id="mask-3" fill="white">
                            <use xlink:href="#path-2"></use>
                        </mask>
                        <use id="Oval-2" fill="#373730" xlink:href="#path-2"></use>
                        <path d="M13.3534646,38.3297508 C14.2424063,38.4944024 14.568764,37.9438947 14.568764,37.4740929 C14.568764,37.0499457 14.5522694,35.6487875 14.5446112,34.1625053 C9.596228,35.238484 8.55206024,32.0638606 8.55206024,32.0638606 C7.74294068,30.0079252 6.57712517,29.4612467 6.57712517,29.4612467 C4.96330425,28.357286 6.69877292,28.3799661 6.69877292,28.3799661 C8.48490361,28.5054429 9.42539096,30.2129297 9.42539096,30.2129297 C11.011819,32.932184 13.586451,32.1460391 14.6014587,31.6915537 C14.7611029,30.5419382 15.2220684,29.757266 15.7307504,29.3130897 C11.7799966,28.8633171 7.62688931,27.3381547 7.62688931,20.5226405 C7.62688931,18.5806947 8.32172478,16.993972 9.45955837,15.7483344 C9.27487764,15.300329 8.66604978,13.4912236 9.63186814,11.0411849 C9.63186814,11.0411849 11.125514,10.5631357 14.524582,12.8644284 C15.9434131,12.4703251 17.4650409,12.2726843 18.9766541,12.2659097 C20.4882674,12.2726843 22.0110734,12.4703251 23.4325553,12.8644284 C26.8274997,10.5631357 28.3190837,11.0411849 28.3190837,11.0411849 C29.2872585,13.4912236 28.6781361,15.300329 28.4934553,15.7483344 C29.6339398,16.993972 30.3240626,18.5806947 30.3240626,20.5226405 C30.3240626,27.3543547 26.1630025,28.8586043 22.2022341,29.2989515 C22.8402221,29.8509319 23.4086971,30.9333907 23.4086971,32.5928663 C23.4086971,34.972803 23.3880788,36.8882397 23.3880788,37.4740929 C23.3880788,37.9474293 23.708251,38.5020606 24.6098582,38.3273944 C27.9461743,37.2152427 24.0819427,41.8559099 19.7783853,41.7952638 C14.9706136,41.7275123 9.62423784,37.0886957 13.3534646,38.3297508 Z" id="Fill-4" fill="#FFFFFF" mask="url(#mask-3)"></path>
                        <path d="M7.25234711,27.3691074 C7.21057851,27.4633223 7.06234711,27.4915868 6.92730579,27.4268926 C6.78975207,27.3650248 6.71249587,27.2365785 6.75709091,27.1420496 C6.79791736,27.0450083 6.94646281,27.018 7.08370248,27.0830083 C7.22157025,27.144876 7.30008264,27.2745785 7.25234711,27.3691074" id="Fill-5" fill="#161514" mask="url(#mask-3)"></path>
                        <path d="M8.0205124,28.2258347 C7.93006612,28.309686 7.7532562,28.2707438 7.63328926,28.1382149 C7.50923967,28.006 7.486,27.8291901 7.57770248,27.7440826 C7.67097521,27.6602314 7.84244628,27.6994876 7.96680992,27.8317025 C8.0908595,27.9654876 8.11504132,28.1410413 8.0205124,28.2258347" id="Fill-6" fill="#161514" mask="url(#mask-3)"></path>
                        <path d="M8.76826446,29.3180992 C8.65206612,29.3988099 8.46206612,29.323124 8.34461157,29.1544793 C8.22841322,28.9858347 8.22841322,28.7835868 8.34712397,28.702562 C8.46489256,28.6215372 8.65206612,28.6943967 8.77109091,28.8617851 C8.88697521,29.0332562 8.88697521,29.2355041 8.76826446,29.3180992" id="Fill-7" fill="#161514" mask="url(#mask-3)"></path>
                        <path d="M9.79269421,30.3733058 C9.6887438,30.4879339 9.46733884,30.457157 9.30528926,30.3007603 C9.13947107,30.1478182 9.09330579,29.9308099 9.19757025,29.8161818 C9.30277686,29.7012397 9.52543802,29.7335868 9.6887438,29.8887273 C9.85330579,30.0413554 9.90355372,30.2599339 9.79269421,30.3733058" id="Fill-8" fill="#161514" mask="url(#mask-3)"></path>
                        <path d="M11.2059174,30.9860165 C11.1600661,31.134562 10.9468264,31.2020826 10.7320165,31.1389587 C10.5175207,31.0739504 10.3771405,30.8999669 10.4204793,30.7498512 C10.4650744,30.6003636 10.6792562,30.5300165 10.8956364,30.5975372 C11.1098182,30.6622314 11.2505124,30.8349587 11.2059174,30.9860165" id="Fill-9" fill="#161514" mask="url(#mask-3)"></path>
                        <path d="M12.7579504,31.0997025 C12.7632893,31.2560992 12.5811405,31.3858017 12.3556529,31.3886281 C12.1289091,31.3936529 11.9455041,31.2670909 11.9429917,31.1132066 C11.9429917,30.9552397 12.1210579,30.8267934 12.3478017,30.8230248 C12.5732893,30.8186281 12.7579504,30.9442479 12.7579504,31.0997025" id="Fill-10" fill="#161514" mask="url(#mask-3)"></path>
                        <path d="M14.2022645,30.8538017 C14.2292727,31.0064298 14.072562,31.1631405 13.8486446,31.2049091 C13.6284959,31.2451074 13.4246777,31.1508926 13.3967273,30.9995207 C13.369405,30.843124 13.5289421,30.6864132 13.7487769,30.6459008 C13.9730083,30.6069587 14.173686,30.6986612 14.2022645,30.8538017" id="Fill-11" fill="#161514" mask="url(#mask-3)"></path>
                    </g>
                </g>
            </g>
        </g>
    </g>
</svg>