<?xml version="1.0" encoding="UTF-8"?>
<svg width="169px" height="36px" viewBox="0 0 169 36" version="1.1" xmlns="http://www.w3.org/2000/svg" xmlns:xlink="http://www.w3.org/1999/xlink">
    <!-- Generator: Sketch 46.1 (44463) - http://www.bohemiancoding.com/sketch -->
    <title>logo</title>
    <desc>Created with Sketch.</desc>
    <defs>
        <linearGradient x1="107.62586%" y1="106.901945%" x2="-5.46761414%" y2="-18.1659526%" id="linearGradient-1">
            <stop stop-color="#38ADF2" offset="0%"></stop>
            <stop stop-color="#843CF6" offset="100%"></stop>
        </linearGradient>
    </defs>
    <g id="Page-1" stroke="none" stroke-width="1" fill="none" fill-rule="evenodd">
        <g id="Mobile---Host---Menu" transform="translate(-57.000000, -12.000000)">
            <g id="nav">
                <g id="logo" transform="translate(57.000000, 12.000000)">
                    <g id="Group-2">
                        <rect id="Rectangle-5" fill="url(#linearGradient-1)" x="0" y="0" width="36" height="36" rx="9.04844557"></rect>
                        <path d="M5.65066283,17.7321638 C5.65066283,17.7321638 8.22937691,16.4489249 9.60469108,13.5972828 C10.9800052,10.7456408 12.3553194,8.89207342 14.7621192,9.03465552 C17.168919,9.17723763 18.2004046,10.3178944 18.2004046,10.3178944 C18.2004046,10.3178944 19.7476331,8.74949132 21.8106043,9.03465552 C23.8735756,9.31981973 24.733147,10.1753123 26.2803754,13.0269544 C27.8276038,15.8785965 29.7186608,17.3044175 30.2344036,17.5895817 C30.7501465,17.8747459 29.0310037,17.4469996 27.4837753,20.5838058 C25.9365469,23.7206121 23.7016613,27.0000005 19.5757188,27.0000005 C15.4497763,27.0000005 12.699148,26.8574184 10.4642624,23.4354479 C8.22937691,20.0134774 8.40129118,19.3005669 7.54171982,18.7302385 C6.68214846,18.1599101 5.65066283,17.7321638 5.65066283,17.7321638 Z M11.973811,11.2966747 L12.1457253,11.2966747 C12.1457253,11.2966747 13.1772109,10.5791822 14.3806108,10.4411821 C15.5840107,10.3031821 16.7874106,10.7263463 16.7874106,10.7263463 C16.7874106,10.7263463 16.4435821,10.0134358 14.5525251,9.87085371 C12.6614681,9.72827161 11.973811,11.2966747 11.973811,11.2966747 Z M24.1797243,11.2966747 C24.1797243,11.2966747 23.4920672,9.72827161 21.6010102,9.87085371 C19.7099533,10.0134358 19.3661247,10.7263463 19.3661247,10.7263463 C19.3661247,10.7263463 20.5695246,10.3031821 21.7729245,10.4411821 C22.9763244,10.5791822 24.00781,11.2966747 24.00781,11.2966747 L24.1797243,11.2966747 Z M23.9709732,18.3440709 C23.9709732,15.3981573 21.3706613,13.0098997 18.163179,13.0098997 C14.9556313,13.0098997 12.3553194,15.3981573 12.3553194,18.3440709 C12.3553194,21.2900445 14.9556313,23.6783021 18.163179,23.6783021 C21.3706613,23.6783021 23.9709732,21.2900445 23.9709732,18.3440709 Z M20.3057984,19.283833 C20.5944637,19.5719519 20.8832258,19.8581852 21.1738772,20.1482865 C21.4141006,20.3900375 21.4122114,20.6859892 21.1700019,20.9296259 C21.0052752,21.0940408 20.8327978,21.2506955 20.6778322,21.4228464 C20.4530133,21.6742433 20.1701369,21.7554475 19.846545,21.7380656 C19.3756655,21.7129477 18.9416745,21.5581786 18.5250984,21.3551561 C17.5969273,20.9045079 16.8024802,20.2817089 16.139795,19.4927301 C15.6495145,18.9086354 15.2445645,18.2742322 14.9771894,17.5587216 C14.8473893,17.2125099 14.7562701,16.856604 14.7834218,16.4814064 C14.8008367,16.2493737 14.8880805,16.0521049 15.0585718,15.8895998 C15.2406891,15.715539 15.4170418,15.5317841 15.5971973,15.3538553 C15.8355314,15.1198644 16.1300582,15.1218468 16.3683923,15.3538553 C16.5157041,15.4989059 16.6590437,15.6439565 16.8043694,15.7890072 C16.9458198,15.9283041 17.0872459,16.0694868 17.226807,16.2106694 C17.4747811,16.4601565 17.4747811,16.7502577 17.2286962,16.9977625 C17.0524404,17.1756913 16.8760877,17.3536926 16.6958353,17.5277292 C16.6473934,17.574097 16.6455042,17.6108432 16.6687805,17.6689118 C16.7869546,17.9531627 16.9594319,18.2046321 17.1512134,18.4405328 C17.5387486,18.9162989 17.9767118,19.3379369 18.4979467,19.6647843 C18.6103319,19.7344812 18.7342705,19.784717 18.8505553,19.8485393 C18.9106475,19.8814175 18.9513144,19.8717716 18.9997563,19.821439 C19.1761333,19.6396664 19.3563614,19.4617376 19.5365168,19.283833 C19.7729375,19.049818 20.0693777,19.049818 20.3057984,19.283833 Z" id="Combined-Shape" fill="#FFFFFF"></path>
                    </g>
                    <g id="Group" transform="translate(49.169888, 9.743119)" fill="#5B5B5B">
                        <path d="M28.1049225,5.26979668 C27.8454018,6.33220284 27.6336876,7.48817938 27.4694004,8.7380904 C28.2536536,7.85226648 28.9016965,6.88743567 29.4139083,5.84323387 C29.9261202,4.79976024 30.1822261,3.85349787 30.1822261,3.00371857 C30.1822261,2.61523764 30.1378344,2.31814257 30.0494304,2.11134109 C29.9610265,1.90526779 29.8343015,1.80223114 29.6700143,1.80223114 C29.4423645,1.80223114 29.189294,2.11461788 28.9111819,2.73975543 C28.6330698,3.36489298 28.3640637,4.2081187 28.1049225,5.26979668 Z M71.6258081,12.6122914 C72.1405471,12.1575844 72.505533,11.6923402 72.7207657,11.2165587 C73.3807622,9.75760711 73.2361036,10.122349 73.5977473,9.32339533 C73.8267884,8.81391762 74.3029455,8.55918259 75.0262329,8.55918259 C75.3637671,8.55918259 75.598832,8.58812976 75.7314347,8.64602495 C75.8640374,8.70392014 75.9303377,8.79655106 75.9303377,8.92392049 C75.9303377,8.99339472 75.9062285,9.10339394 75.8580093,9.25392144 C75.8097902,9.40444894 75.7434898,9.55497419 75.6591063,9.70550169 C75.4421201,10.1223471 75.3336286,10.4755025 75.3336286,10.7649784 C75.3336286,10.938664 75.3969153,11.1297153 75.5234906,11.338138 C75.6214485,11.4994384 75.76092,11.6919446 75.9419079,11.91566 C75.9947816,11.9810162 76.0511985,12.0490358 76.1111587,12.1197192 C76.496912,12.6060388 76.7892363,13.0199832 76.9881404,13.3615649 C77.1870444,13.7031465 77.2864949,14.0765649 77.2864949,14.4818313 C77.2864949,14.9681509 77.1689625,15.4284108 76.9338941,15.8626247 C76.6988256,16.2968387 76.3703375,16.6470993 75.9484198,16.9134172 C75.5265021,17.1797351 75.0443177,17.3128921 74.5018521,17.3128921 C73.875003,17.3128921 73.3958323,17.1739457 73.0643255,16.8960488 C72.7328188,16.6181518 72.5670679,16.3055225 72.5670679,15.9581513 C72.5670679,15.6570963 72.6815867,15.3965718 72.9106277,15.1765701 C73.1396687,14.9565684 73.4771978,14.8465692 73.9232251,14.8465692 C74.0799374,14.8465692 74.2637702,14.8610427 74.474729,14.8899903 C74.6856878,14.9189379 74.8454114,14.9392009 74.9539045,14.95078 C74.9418498,14.649725 74.8725357,14.3660428 74.7459604,14.0997249 C74.6193851,13.833407 74.4596616,13.5757773 74.2667849,13.3268279 C74.0739082,13.0778786 73.8930891,12.8607749 73.724322,12.6755103 C73.3506235,13.3586735 72.9183859,13.7434242 72.0607692,14.0997249 C71.2696214,14.4284108 69.6351032,14.2353243 69.5189805,14.0488892 C69.4171358,13.9931456 69.3221593,13.9218852 69.2340165,13.8350913 C68.987396,13.5926093 68.8640857,13.2649309 68.8640857,12.8520562 C68.8640857,12.621589 68.8766065,12.3729176 68.9020273,12.1056776 C68.9270688,11.9116192 68.939969,11.7779992 68.939969,11.7051818 C68.939969,11.6083346 68.9175834,11.5355172 68.8735711,11.4867296 C68.8291794,11.438306 68.7753023,11.4139121 68.7123192,11.4139121 C68.5351319,11.4139121 68.2949614,11.6174368 67.9914285,12.023758 C67.6878955,12.4304433 67.3843626,12.9674718 67.0808296,13.6348434 C66.7772967,14.3025792 66.5306762,15.0063595 66.3409681,15.7465486 C66.2017223,16.329088 66.0435058,16.7175689 65.8666978,16.9116273 C65.6895105,17.1060499 65.3984983,17.202897 64.9940406,17.202897 C64.5133203,17.202897 64.1748811,16.960415 63.9791023,16.4747228 C63.9148767,16.3158179 63.8611857,16.1256883 63.8180161,15.9043212 C63.5263309,16.1142407 63.2002624,16.3165533 62.8397535,16.5112043 C61.986067,16.9725027 61.0724329,17.2029698 60.0984715,17.2029698 C58.7705149,17.2029698 57.7396411,16.8570871 57.0062296,16.1653216 C56.8734277,16.0401255 56.7526555,15.9065816 56.6439085,15.7646901 C56.3133553,16.0753156 55.9694671,16.3484002 55.6121028,16.5838761 C54.986066,16.9967509 54.2746607,17.2028242 53.4778867,17.2028242 C52.8074583,17.2028242 52.2637549,16.9727212 51.8463971,16.5110587 C51.1255064,16.9603422 50.3727446,17.1908093 49.5888708,17.2028242 C49.4242042,19.5449965 49.0512381,21.5019647 48.4695931,23.0737287 C47.8875686,24.6454927 47.0338822,25.4311927 45.9085338,25.4311927 C45.2255847,25.4311927 44.7198229,25.1949001 44.390869,24.7215869 C44.0619152,24.2479096 43.897628,23.5925528 43.897628,22.7551525 C43.897628,21.5656799 44.1821901,20.1792362 44.7513144,18.5958214 C44.9527547,18.0351175 45.1929818,17.4543441 45.4720295,16.8534689 C45.1145339,16.9287801 44.7226556,16.9725734 44.2963944,16.9846632 C43.7902532,17.3971739 43.1896374,17.6032472 42.4941675,17.6032472 C41.8362599,17.6032472 41.3339128,17.4579764 40.9859882,17.1667068 C40.6380635,16.875073 40.4642909,16.5477587 40.4642909,16.1836716 C40.4642909,15.8683722 40.5841865,15.5953068 40.8247363,15.3644756 C41.0649068,15.1340085 41.4189021,15.0185929 41.8871016,15.0185929 C42.0513888,15.0185929 42.2441323,15.0338845 42.4657113,15.0641038 C42.686911,15.0946871 42.8546129,15.1158041 42.9684378,15.1274549 C42.9555376,14.8121555 42.8830691,14.5150604 42.7502735,14.2354415 C42.6174778,13.9569149 42.4497758,13.6863982 42.247547,13.4257118 C42.0453182,13.1646614 41.8556101,12.9371069 41.6784227,12.7430485 C41.2864858,13.4588437 40.8972048,14.053398 40.511718,14.5270753 C40.4414716,14.6132412 40.3700809,14.6985988 40.2975437,14.7831478 C40.2529491,14.8621151 40.201079,14.9344541 40.1419389,15.0001701 C38.8898655,16.4688974 37.7201254,17.202897 36.6323392,17.202897 C35.8101443,17.202897 35.2125639,16.9240063 34.8395977,16.3654967 C34.7411029,16.2180987 34.6556003,16.0580047 34.583097,15.8852082 C34.2866689,16.146512 33.9863705,16.3794362 33.6823404,16.5838033 C33.0688245,16.9966781 32.3703193,17.2031155 31.586066,17.2031155 C30.9410585,17.2031155 30.4538881,17.0239846 30.1253137,16.666087 C29.7963599,16.3081894 29.6320726,15.7893653 29.6320726,15.1096146 C29.6320726,14.7699214 29.7204766,14.1629882 29.897664,13.2891791 C30.0619512,12.5245962 30.1442845,11.9966699 30.1442845,11.7054003 C30.1442845,11.5113418 30.0744719,11.4137665 29.9356056,11.4137665 C29.7713184,11.4137665 29.5372186,11.6172912 29.2336856,12.0239765 C28.9301527,12.4306618 28.6266197,12.9676902 28.3230868,13.6350619 C28.0195538,14.3024335 27.7729333,15.0062139 27.5832252,15.7467671 C27.3430548,16.7177874 26.7485096,17.2031155 25.7999692,17.2031155 C25.420553,17.2031155 25.1708971,17.0727723 25.0506222,16.8113578 C24.9303473,16.5510355 24.8703995,16.0806349 24.8703995,15.4005202 C24.8703995,15.0124034 24.8768496,14.7029294 24.8893703,14.4724622 L24.9083411,13.0161138 C24.9083411,12.6550752 24.9157752,12.2910881 24.9306435,11.9241522 C24.228224,11.9174571 23.5787137,11.8664105 22.9819702,11.7710125 C21.795359,13.9935599 18.9766091,17.3932418 15.1991243,17.3932418 C13.7075176,17.3932418 12.4926779,16.4415615 11.5550247,14.5382011 C9.98667802,16.4415615 8.20320787,17.3932418 6.20419489,17.3932418 C4.83587533,17.3932418 3.74767758,17.0652843 2.94044032,16.4085646 C2.13320307,15.7518449 1.72979411,14.7152579 1.72979411,13.2988036 C1.72979411,12.9595789 1.92562778,12.0630277 2.31771444,10.6099549 C2.70980111,9.1564796 3.02137372,7.9613463 3.25201293,7.02455494 C3.48307149,6.08736118 3.59797176,5.34573469 3.59797176,4.80007787 C3.59797176,3.60494457 3.28262505,3.00737791 2.65277032,3.00737791 C2.43722749,3.00737791 2.24139383,3.06653098 2.06443065,3.1844347 C1.88746747,3.30274083 1.71050429,3.42788778 1.53396045,3.56068037 C1.35699727,3.69387536 1.17626,3.81902232 0.99216797,3.93732844 C0.807237253,4.05482976 0.595887863,4.11438523 0.357700456,4.11438523 C0.119093704,4.11438523 0,3.91519634 0,3.51641617 C0,2.70517417 0.39250601,2.04080883 1.17626,1.52492974 C1.92940187,0.993356977 2.83686235,0.7281742 3.89780274,0.7281742 C4.95916247,0.7281742 5.35595208,1.089531 5.84784262,1.81224461 C6.24747748,2.38767916 6.44750458,3.16954583 6.44750458,4.15824702 C6.44750458,4.58600012 6.36279709,5.13930258 6.19380145,5.81815439 C5.31737243,9.32991477 4.4917742,12.1285327 4.47667781,13.4858339 C4.4917742,14.134908 4.77650879,14.5779523 5.33004291,14.8141622 C5.5451664,14.9022882 5.79886953,14.9465524 6.09115232,14.9465524 C7.45947188,14.9465524 9.5103032,13.8078418 10.7247235,12.258595 C10.1099652,10.1930666 9.80216665,7.84706419 9.80216665,5.22058774 C9.80216665,4.24677541 10.0445475,3.45364149 10.5288898,2.84158838 C11.0128129,2.22913286 11.8011796,1.9229051 12.8927321,1.9229051 C13.7075176,1.9229051 14.3264694,2.14462849 14.7491681,2.58686805 C15.1718669,3.02951001 15.3836357,3.6121878 15.3836357,4.33530381 C15.3836357,5.82580002 14.9760333,7.66276417 14.1612478,9.84619626 C13.8844808,10.5837987 13.5615859,11.314158 13.1925631,12.037274 C13.8538686,13.7486888 14.7298783,14.6045974 15.8218502,14.6045974 C16.8983637,14.6045974 18.4998013,13.9942191 19.5011696,12.7734627 C19.8532622,12.2135218 20.1886021,11.5966457 20.5071892,10.9226858 C19.7358361,10.4610234 19.1538117,9.86355644 18.7614954,9.12955685 C18.3695585,8.39482908 18.1737797,7.54832657 18.1737797,6.59004933 C18.1737797,5.6310439 18.3285815,4.82095011 18.6385645,4.15976793 C18.9485476,3.49785759 19.3723554,3.0034273 19.9096088,2.67574891 C20.4472415,2.34807052 21.044822,2.18423133 21.7023502,2.18423133 C22.511645,2.18423133 23.1536171,2.46348614 23.6278874,3.02163166 C24.1021576,3.58014127 24.3392927,4.34436009 24.3392927,5.31574448 C24.3392927,6.68689649 24.0293097,8.21023692 23.4097231,9.88467349 C23.8978542,9.96760958 24.4511753,10.0188505 25.0696863,10.0388698 C25.1691298,9.10165107 25.3145416,8.14619976 25.5059216,7.17251587 C25.9043086,5.14564298 26.4924037,3.44389988 27.2702069,2.06583021 C28.0480101,0.688852793 28.980615,1.70530257e-13 30.0684013,1.70530257e-13 C30.6500463,1.70530257e-13 31.1212812,0.239569312 31.4817265,0.718707935 C31.8421719,1.19857473 32.0223946,1.8204355 32.0223946,2.58465432 C32.0223946,3.81053559 31.6494285,5.08229183 30.9031169,6.39883078 C30.1568052,7.71573382 28.9426734,9.25400182 27.2607215,11.0136348 C27.2227799,11.6445977 27.203809,12.2941291 27.203809,12.9611367 C27.6211669,11.930042 28.0859517,11.089729 28.5981635,10.4398335 C29.1103754,9.79103029 29.6161372,9.32681924 30.1158283,9.04720035 C30.6155194,8.76867371 31.0738541,8.62886427 31.491212,8.62886427 C32.3134068,8.62886427 32.7243146,9.0231706 32.7243146,9.81214734 C32.7243146,10.2854606 32.5850688,11.1407012 32.3069568,12.3789614 C32.0664069,13.434814 31.9465114,14.132769 31.9465114,14.4724622 C31.9465114,14.9581544 32.1297694,15.2006364 32.4966648,15.2006364 C32.7497354,15.2006364 33.0498536,15.0517248 33.3977783,14.7546297 C33.6379646,14.5495331 33.933843,14.2559449 34.2854133,13.8741047 C34.3047885,13.3730927 34.3757673,12.7623786 34.4981232,12.0419624 C34.6434396,11.1863577 34.8301123,10.3882788 35.057762,9.6480897 C35.1715869,9.25997285 35.3233534,8.99273292 35.5130615,8.84709808 C35.7027696,8.70182732 36.0063025,8.62864582 36.4236603,8.62864582 C37.0686678,8.62864582 37.3911716,8.83544729 37.3911716,9.24795797 C37.3911716,9.55124253 37.2708967,10.2550229 37.0307262,11.3592991 C36.7271933,12.6944065 36.5754268,13.5984347 36.5754268,14.072112 C36.5754268,14.4361991 36.6258891,14.7150899 36.7271933,14.9091483 C36.8284974,15.1035708 36.9992347,15.200418 37.2394051,15.200418 C37.4670548,15.200418 37.751617,15.0489577 38.0930915,14.7453091 C38.1918139,14.6576277 38.30005,14.5552176 38.4177998,14.4380876 C39.0839052,13.6450565 39.5892399,12.9884655 39.9331083,12.4699832 C40.1482373,12.1179109 40.4009284,11.6478745 40.6919406,11.0591457 C40.9825734,10.4704168 41.2671356,9.86093501 41.5456271,9.2292439 C41.7857975,8.69549221 42.2854886,8.42861636 43.044321,8.42861636 C43.3983163,8.42861636 43.6449368,8.45883559 43.7841826,8.51963814 C43.9230489,8.58044068 43.9928615,8.67765194 43.9928615,8.81090782 C43.9928615,8.88372524 43.9674406,8.99877676 43.9169782,9.15679056 C43.8661365,9.31480436 43.7967033,9.47245408 43.7082993,9.63010379 C43.4806496,10.0670083 43.3668248,10.4372849 43.3668248,10.7405694 C43.3668248,10.922613 43.4332226,11.1224968 43.5660183,11.3413132 C43.6988139,11.5597654 43.9040781,11.8328307 44.1825696,12.1605091 C44.5870272,12.669867 44.8939749,13.1042229 45.1026538,13.4617564 C45.3113327,13.8203822 45.4156722,14.2114118 45.4156722,14.6363014 C45.4156722,14.7575424 45.402772,14.9275711 45.3777305,15.1456593 C45.8821804,14.9580195 46.4580578,14.5169681 47.1051581,13.8223086 C47.1974846,13.6699531 47.2918507,13.5165401 47.3882569,13.3620694 C47.3882569,11.5900575 47.3753568,10.3583508 47.3503153,9.66622123 C47.3374152,9.31451309 47.483111,9.03562238 47.7866439,8.8288209 C48.0901769,8.62274761 48.4695931,8.51971096 48.9248925,8.51971096 C49.1904838,8.51971096 49.3832272,8.57104724 49.5035022,8.67444797 C49.6237771,8.77748462 49.6897955,8.98064522 49.7026957,9.28392978 C49.7026957,9.58757842 49.7087663,9.81222016 49.7216665,9.95749091 C50.1261241,9.4725269 50.5248905,9.12336737 50.9168275,8.9107405 C51.3087644,8.69884181 51.7261222,8.59216429 52.1689009,8.59216429 C52.8768915,8.59216429 53.4555012,8.86522961 53.9047299,9.41136026 C54.3535793,9.95749091 54.5781936,10.6740143 54.5781936,11.5594742 C54.5781936,12.2031801 54.4708189,12.8279536 54.2556899,13.4348868 C54.0405609,14.04182 53.743478,14.593776 53.3640619,15.0914831 C53.6296532,15.1643005 53.8508528,15.2003452 54.0280402,15.2003452 C54.445398,15.2003452 54.843785,15.0547103 55.2232012,14.7634406 C55.4354425,14.6005075 55.6812831,14.3768503 55.9607895,14.0924054 C55.9242088,13.8494665 55.9059227,13.5938121 55.9059227,13.3254422 C55.9059227,12.4880419 56.0891807,11.7081673 56.4560761,10.9861826 C56.8225922,10.2641979 57.3317687,9.6907607 57.9832263,9.26587106 C58.6343044,8.84098141 59.3711307,8.62871863 60.1933256,8.62871863 C60.926737,8.62871863 61.5148321,8.83806872 61.9576108,9.25676888 C62.4003895,9.67546905 62.6215891,10.2430808 62.6215891,10.9588761 C62.6215891,11.7962764 62.3085708,12.5153484 61.6825341,13.1160921 C61.0564974,13.7168359 59.9971674,14.1930618 58.5049235,14.545134 C58.8209772,15.1032795 59.421593,15.3825343 60.3071504,15.3825343 C60.8762747,15.3825343 61.5243175,15.1913886 62.2516584,14.8090972 C62.7830468,14.5296528 63.2623337,14.1869833 63.6892227,13.7810885 C63.7224865,12.3363188 63.9548716,10.9585572 64.3869747,9.6480897 C64.5007996,9.29638156 64.6870929,9.0382438 64.9466136,8.87440461 C65.2057549,8.71056541 65.5692356,8.62864582 66.0374351,8.62864582 C66.2901263,8.62864582 66.4669343,8.65922913 66.5686178,8.71966759 C66.6695425,8.78047014 66.7203843,8.89588575 66.7203843,9.06555034 C66.7203843,9.25997285 66.6255302,9.69687737 66.4358221,10.3762639 C66.3090971,10.8619561 66.2081724,11.2864816 66.1322892,11.6505687 C66.0564059,12.0146558 65.992664,12.4639393 65.9425811,12.997691 C66.3599389,11.9542174 66.827759,11.1044381 67.346421,10.4490813 C67.8647035,9.79372454 68.3708447,9.32660079 68.8640857,9.04734598 C69.3573268,8.76845526 69.8061761,8.62864582 70.2110132,8.62864582 C70.5775292,8.62864582 70.859056,8.72876977 71.0552142,8.92901767 C71.2509929,9.12926558 71.3492617,9.42381204 71.3492617,9.81192889 C71.3492617,10.0427601 71.2794492,10.4796646 71.1405828,11.1226425 C71.1405828,11.1226425 70.6633415,12.1696113 71.0552142,12.6153996 C71.2019846,12.7823632 71.4157812,12.732445 71.6258081,12.6122914 Z M35.1905577,6.08003612 C35.1905577,5.65514647 35.3643303,5.30052564 35.712255,5.01544544 C36.0601796,4.73000115 36.4930935,4.58727901 37.0117554,4.58727901 C37.4795756,4.58727901 37.8589918,4.69686922 38.150004,4.9149574 C38.4410162,5.13340966 38.5863326,5.44288369 38.5863326,5.8433795 C38.5863326,6.32907169 38.4220454,6.71463993 38.0930915,6.99935604 C37.7641377,7.28480033 37.3278091,7.42752247 36.7841057,7.42752247 C36.252923,7.42752247 35.854536,7.30883008 35.5889447,7.07217346 C35.3233534,6.83588094 35.1905577,6.50492576 35.1905577,6.08003612 Z M51.8653679,13.3165585 C52.0930176,12.7522235 52.2068425,12.160582 52.2068425,11.5416339 C52.2068425,11.1775468 52.1309592,10.9015688 51.9791928,10.7129716 C51.8274263,10.5251027 51.6251975,10.4311682 51.3721269,10.4311682 C50.9168275,10.4311682 50.366674,10.8921025 49.7216665,11.8146992 C49.7087663,12.3484509 49.7026957,13.1316023 49.7026957,14.163061 C49.7026957,14.7212065 49.6962456,15.1522857 49.6837248,15.4555702 C50.1390243,15.358359 50.5594174,15.1187896 50.9452837,14.7361341 C51.3311499,14.3538426 51.6377182,13.8805294 51.8653679,13.3165585 Z M47.3503153,16.1837444 C46.8062325,17.3972467 46.376354,18.556136 46.0603003,19.6604121 C45.7442466,20.7650524 45.58603,21.6931104 45.58603,22.4460425 C45.58603,22.8341594 45.6334571,23.1316185 45.7283111,23.3376918 C45.8231652,23.5437651 45.9339547,23.64753 46.0603003,23.64753 C46.4017748,23.64753 46.686337,22.9342833 46.9139867,21.5085182 C47.1416364,20.0823891 47.2869528,18.3074645 47.3503153,16.1837444 Z M58.2013906,13.0887856 L58.2013906,13.1251943 C58.9473228,12.9555297 59.5354179,12.7006688 59.9656758,12.3606114 C60.3955544,12.0212822 60.6106834,11.6266118 60.6106834,11.1773283 C60.6106834,10.9468612 60.5442855,10.761905 60.4114899,10.6220955 C60.2786942,10.4826501 60.0984715,10.4127454 59.8708218,10.4127454 C59.4026222,10.4127454 59.00765,10.6737959 58.6851462,11.1955327 C58.3626425,11.7176336 58.2013906,12.3485965 58.2013906,13.0887856 Z M20.089452,6.46261884 C20.089452,7.65172731 20.4882184,8.53136174 21.2849924,9.10188623 C21.7782335,7.74274908 22.024854,6.62026856 22.024854,5.73408055 C22.024854,5.2247227 21.9554208,4.85116934 21.8161751,4.61451272 C21.6773088,4.37785611 21.4872213,4.25989189 21.2470508,4.25989189 C20.9059557,4.25989189 20.6274642,4.45103761 20.4123352,4.83296498 C20.1975856,5.21525644 20.089452,5.75883848 20.089452,6.46261884 Z M12.0556937,5.97182943 C12.0556937,7.05316812 12.1532037,8.14106037 12.3478442,9.23587028 C12.8767503,7.9145982 13.140824,6.6330116 13.140824,5.39111051 C13.140824,5.12423466 13.0956735,4.88393718 13.004993,4.67021805 C12.9146919,4.45686301 12.7788609,4.3498214 12.5982588,4.3498214 C12.2362958,4.3498214 12.0556937,4.89049074 12.0556937,5.97182943 Z" id="logo"></path>
                        <path d="M104.303193,14.2653155 C104.950752,13.4873732 105.446162,12.8393393 105.789436,12.3211972 C106.029497,11.9496963 106.272889,11.5077449 106.519618,10.9953299 C106.766348,10.4829148 107.089758,9.78475981 107.48986,8.90084387 C107.743257,8.33718733 108.27005,8.05536328 109.070253,8.05536328 C109.443681,8.05536328 109.703744,8.08738874 109.850448,8.15144062 C109.997151,8.2154925 110.070502,8.31797397 110.070502,8.45888811 C110.070502,8.53575037 110.043829,8.65744711 109.990482,8.823982 C109.937135,8.99051689 109.863785,9.15704928 109.770428,9.32358417 C109.530367,9.7847577 109.410338,10.1754683 109.410338,10.4957277 C109.410338,10.6878833 109.480355,10.8992514 109.62039,11.1298381 C109.760426,11.3604249 109.977144,11.6486541 110.270552,11.9945342 C110.697327,12.53257 111.020738,12.9905341 111.240794,13.3684402 C111.46085,13.7463463 111.570876,14.1594747 111.570876,14.6078378 C111.570876,15.1458736 111.440845,15.6550784 111.180779,16.1354675 C110.920713,16.6158566 110.557293,17.0033647 110.090507,17.2980033 C109.623722,17.592642 109.090261,17.7399591 108.490109,17.7399591 C107.796599,17.7399591 107.266473,17.5862369 106.899713,17.2787879 C106.532953,16.9713389 106.349576,16.6254639 106.349576,16.2411526 C106.349576,15.9080828 106.476273,15.6198537 106.72967,15.3764566 C106.983068,15.1330594 107.356491,15.0113627 107.849949,15.0113627 C108.023327,15.0113627 108.226709,15.0273754 108.460101,15.0594013 C108.693494,15.0914273 108.870203,15.1138451 108.990233,15.1266555 C108.976897,14.7935857 108.900212,14.4797362 108.760176,14.1850975 C108.62014,13.8904589 108.443432,13.6054323 108.230044,13.3300092 C108.016657,13.0545861 107.816609,12.8143952 107.629895,12.6094292 C107.216456,13.3652414 106.806358,13.9929404 106.399588,14.492545 C105.992818,14.9921497 105.549379,15.4661265 105.069257,15.9144897 C104.829196,16.1450764 104.575802,16.2603681 104.309068,16.2603681 C104.09568,16.2603681 103.922305,16.1867095 103.788938,16.0393902 C103.680039,15.919098 103.6156,15.7753193 103.595622,15.6080513 C103.279297,16.0355306 102.903602,16.3906786 102.46853,16.6735006 C101.808362,17.1026482 101.078188,17.3172188 100.277985,17.3172188 C99.4911182,17.3172188 98.820958,17.1282686 98.2674841,16.7503625 C97.7140102,16.3724564 97.2972439,15.8760618 97.0171728,15.2611637 C96.7371017,14.6462657 96.5970682,13.9865412 96.5970682,13.2819706 C96.5970682,12.308382 96.7871136,11.440492 97.1672102,10.6782747 C97.5473067,9.91605728 98.0640969,9.32038373 98.7175962,8.89123614 C99.3710955,8.46208854 100.104604,8.24751796 100.918144,8.24751796 C101.705011,8.24751796 102.378505,8.43646817 102.938647,8.81437427 C103.498789,9.19228036 103.91889,9.68867498 104.198961,10.303573 C104.479032,10.9184711 104.619066,11.5781955 104.619066,12.2827662 C104.619066,13.0011627 104.513775,13.6620089 104.303193,14.2653155 Z M101.648326,14.530976 C101.961739,14.0569921 102.118443,13.3652421 102.118443,12.4557054 C102.118443,11.7511348 101.985078,11.2195121 101.718343,10.8608216 C101.451609,10.5021311 101.131532,10.3227885 100.758104,10.3227885 C100.277982,10.3227885 99.8812208,10.5565744 99.5678079,11.0241531 C99.254395,11.4917318 99.0976908,12.1866843 99.0976908,13.1090313 C99.0976908,13.8392228 99.231056,14.3772505 99.4977905,14.7231306 C99.7645249,15.0690108 100.097938,15.2419483 100.49804,15.2419483 C100.951488,15.2419483 101.334913,15.0049599 101.648326,14.530976 Z M112.851195,14.9825395 C112.784511,14.5277711 112.75117,13.8904645 112.75117,13.0706004 C112.75117,12.2507363 112.911208,11.1426554 113.231289,9.74632446 L112.331065,9.74632446 C112.171025,9.74632446 112.091005,9.68227354 112.091005,9.55416978 C112.091005,9.24672076 112.121013,8.99371963 112.181028,8.7951588 C112.241043,8.59659797 112.384411,8.36921721 112.611135,8.11300969 L113.091254,8.11300969 C113.277969,8.11300969 113.478016,8.1066046 113.691404,8.09379422 C114.331566,6.12099632 114.985056,5.13461216 115.651892,5.13461216 C116.185361,5.14742254 116.558783,5.47408223 116.772171,6.11460103 C116.825518,6.29394629 116.885532,6.48609905 116.952216,6.69106506 L116.132012,8.07457875 C117.065582,8.1001995 117.655723,8.11300969 117.902452,8.11300969 C118.149182,8.11300969 118.282547,8.13542751 118.302552,8.18026382 C118.322557,8.22510014 118.332559,8.29235361 118.332559,8.38202624 C118.332559,8.61261301 118.275879,8.90084214 118.162517,9.24672229 C118.049155,9.59260245 117.919124,9.75913483 117.77242,9.74632446 L115.771922,9.65024712 C115.491851,11.213113 115.351817,12.5069416 115.351817,13.5317716 C115.351817,14.5566017 115.505187,15.0690091 115.811932,15.0690091 C116.06533,15.0690091 116.52544,14.8672487 117.192276,14.4637218 C117.859112,14.060195 118.339226,13.6726869 118.632634,13.301186 C118.926042,12.9296851 119.166099,12.7439375 119.352814,12.7439375 C119.539528,12.7439375 119.632883,12.9617106 119.632883,13.3972634 C119.632883,13.8328161 119.472845,14.27797 119.152764,14.7327384 C118.832682,15.1875067 118.429253,15.6038377 117.942462,15.9817438 C117.455672,16.3596499 116.915543,16.6702968 116.322059,16.913694 C115.728575,17.1570911 115.211785,17.2787879 114.771673,17.2787879 C114.331561,17.2787879 113.994814,17.179509 113.761421,16.9809481 C113.528029,16.7823873 113.334649,16.5133734 113.181277,16.1738985 C113.027905,15.8344235 112.917878,15.4373078 112.851195,14.9825395 Z M87.2226401,8.11739006 C88.8784632,8.11739006 90.8765208,8.13239431 92.2824084,8.16240327 C93.0165941,5.31155237 93.8908898,3.03180043 94.5938336,1.92146903 C95.0624628,1.27627646 95.531085,0.811144607 95.9997142,0.526059518 C96.1871658,0.406023691 96.0670364,0.346006678 96.2622986,0.346006678 C96.4575608,0.346006678 96.3994486,0.638589617 96.3994486,1.22376427 C96.3994486,1.80893893 96.3486812,2.42411332 96.2471449,3.06930589 C96.1456086,3.71449846 96.0167375,4.457209 95.8605278,5.29745979 C95.3450357,8.05828381 94.9584224,10.263909 94.7006763,11.9144017 C94.4429303,13.5648943 94.3140592,15.1553451 94.3140592,16.6858019 C94.3140592,17.1059273 94.0016444,17.3159869 93.3768055,17.3159869 C92.3926842,17.3159869 92.1882176,17.1321848 91.8289352,16.7645751 C91.4696528,16.3969653 91.2900143,15.7292761 91.2900143,14.7614872 C91.2900143,13.7936984 91.4930839,11.9678251 91.8992292,9.88220258 C90.1809222,9.80718019 89.0952809,9.76966956 88.6422727,9.76966956 L87.6815876,9.76966956 C87.5097569,9.76966956 86.8707036,9.77717168 86.6988729,9.79217616 C85.9959291,12.3729464 85.6444625,14.7127154 85.6444625,16.2131632 C85.6444625,17.0984275 85.2134952,17.5410529 83.4170833,17.5410529 C83.026559,17.5410529 82.7961531,17.3497487 82.7258587,16.9671345 C82.6555643,16.5845203 82.6204177,15.9618438 82.6204177,15.0990863 C82.6204177,14.2363288 82.901591,12.6871396 83.463946,10.4514723 C82.5110666,10.5865126 81.8159438,10.6540318 81.3785565,10.6540318 C81.1754839,10.6540318 81.0739491,10.5790105 81.0739491,10.4289657 C81.0739491,10.0988672 81.3277861,9.72376088 81.8354677,9.30363549 C82.3431493,8.88351009 83.0890396,8.54591439 84.0731609,8.29083826 C84.6511369,6.37026503 85.2291042,4.79481843 85.8070802,3.5644512 C84.1200151,3.59446016 82.8781664,3.90954948 82.0814968,4.50972861 C81.8315612,4.68978235 81.6284916,4.85107808 81.4722819,4.99362062 C81.3160722,5.13616316 81.1793907,5.20743337 81.0622334,5.20743337 C80.9450761,5.20743337 80.8318258,5.11740785 80.7224789,4.93735411 C80.6131321,4.75730037 80.5584595,4.51723231 80.5584595,4.21714275 C80.5584595,3.12181582 81.519135,2.28907976 83.4405147,1.71890959 C84.97137,1.26877523 85.8176839,1.03620931 87.8484103,1.02120483 L88.3624982,1.02120483 C88.471845,1.02120483 88.6241472,1.08122184 88.8194094,1.20125767 C89.0146716,1.3212935 89.1123012,1.51634879 89.1123012,1.7864294 C89.1123012,2.05651001 89.0615338,2.36034614 88.9599974,2.69794691 C88.8584611,3.03554767 88.7217797,3.28686891 88.549949,3.45191817 C88.4562231,4.15712866 87.9099629,5.91173173 87.2226401,8.11739006 Z" id="Combined-Shape"></path>
                    </g>
                </g>
            </g>
        </g>
    </g>
</svg>