<?xml version="1.0" encoding="UTF-8"?>
<svg width="160px" height="36px" viewBox="0 0 160 36" version="1.1" xmlns="http://www.w3.org/2000/svg" xmlns:xlink="http://www.w3.org/1999/xlink">
    <!-- Generator: Sketch 46.1 (44463) - http://www.bohemiancoding.com/sketch -->
    <title>logo</title>
    <desc>Created with Sketch.</desc>
    <defs>
        <linearGradient x1="14.3222953%" y1="16.7351991%" x2="78.5856008%" y2="89.8020213%" id="linearGradient-1">
            <stop stop-color="#FB167F" offset="0%"></stop>
            <stop stop-color="#FF4958" offset="100%"></stop>
        </linearGradient>
    </defs>
    <g id="Page-1" stroke="none" stroke-width="1" fill="none" fill-rule="evenodd">
        <g id="Mobile---User---Menu" transform="translate(-57.000000, -12.000000)">
            <g id="nav">
                <g id="logo" transform="translate(57.000000, 12.000000)">
                    <g id="Group" transform="translate(47.505155, 10.568807)" fill="#5B5B5B">
                        <path d="M26.9648155,5.26979668 C26.7158226,6.33220284 26.5126968,7.48817938 26.3550741,8.7380904 C27.1075132,7.85226648 27.7292675,6.88743567 28.2207009,5.84323387 C28.7121343,4.79976024 28.9578511,3.85349787 28.9578511,3.00371857 C28.9578511,2.61523764 28.9152602,2.31814257 28.8304424,2.11134109 C28.7456246,1.90526779 28.6240404,1.80223114 28.4664176,1.80223114 C28.2480028,1.80223114 28.0051983,2.11461788 27.7383681,2.73975543 C27.471538,3.36489298 27.2134444,4.2081187 26.9648155,5.26979668 Z M68.7202287,12.6122914 C69.2140868,12.1575844 69.5642666,11.6923402 69.7707682,11.2165587 C70.4039912,9.75760711 70.2652009,10.122349 70.6121741,9.32339533 C70.8319238,8.81391762 71.2887651,8.55918259 71.9827116,8.55918259 C72.3065533,8.55918259 72.5320826,8.58812976 72.6593061,8.64602495 C72.7865296,8.70392014 72.8501404,8.79655106 72.8501404,8.92392049 C72.8501404,8.99339472 72.8270092,9.10339394 72.7807461,9.25392144 C72.734483,9.40444894 72.6708722,9.55497419 72.5899118,9.70550169 C72.3817278,10.1223471 72.2776374,10.4755025 72.2776374,10.7649784 C72.2776374,10.938664 72.3383568,11.1297153 72.4597975,11.338138 C72.5537816,11.4994384 72.6875953,11.6919446 72.8612412,11.91566 C72.91197,11.9810162 72.9660983,12.0490358 73.0236262,12.1197192 C73.393731,12.6060388 73.6741968,13.0199832 73.8650321,13.3615649 C74.0558674,13.7031465 74.1512836,14.0765649 74.1512836,14.4818313 C74.1512836,14.9681509 74.038519,15.4284108 73.8129864,15.8626247 C73.5874538,16.2968387 73.2722911,16.6470993 72.867489,16.9134172 C72.4626869,17.1797351 72.0000628,17.3128921 71.4796029,17.3128921 C70.8781826,17.3128921 70.4184499,17.1739457 70.1003911,16.8960488 C69.7823323,16.6181518 69.6233053,16.3055225 69.6233053,15.9581513 C69.6233053,15.6570963 69.7331785,15.3965718 69.9529282,15.1765701 C70.1726779,14.9565684 70.4965148,14.8465692 70.9244485,14.8465692 C71.0748036,14.8465692 71.251179,14.8610427 71.45358,14.8899903 C71.6559811,14.9189379 71.8092253,14.9392009 71.9133173,14.95078 C71.9017515,14.649725 71.8352493,14.3660428 71.7138087,14.0997249 C71.592368,13.833407 71.4391238,13.5757773 71.2540714,13.3268279 C71.069019,13.0778786 70.895535,12.8607749 70.7336141,12.6755103 C70.3750751,13.3586735 69.9603717,13.7434242 69.1375451,14.0997249 C68.3784911,14.4284108 66.8102789,14.2353243 66.698867,14.0488892 C66.6011537,13.9931456 66.51003,13.9218852 66.4254628,13.8350913 C66.1888467,13.5926093 66.0705387,13.2649309 66.0705387,12.8520562 C66.0705387,12.621589 66.0825515,12.3729176 66.1069411,12.1056776 C66.1309668,11.9116192 66.1433436,11.7779992 66.1433436,11.7051818 C66.1433436,11.6083346 66.1218661,11.5355172 66.0796393,11.4867296 C66.0370484,11.438306 65.9853569,11.4139121 65.9249288,11.4139121 C65.7549292,11.4139121 65.5245015,11.6174368 65.2332817,12.023758 C64.9420619,12.4304433 64.6508421,12.9674718 64.3596223,13.6348434 C64.0684025,14.3025792 63.8317864,15.0063595 63.649774,15.7465486 C63.516177,16.329088 63.3643786,16.7175689 63.1947431,16.9116273 C63.0247435,17.1060499 62.7455366,17.202897 62.3574862,17.202897 C61.8962668,17.202897 61.5715567,16.960415 61.38372,16.4747228 C61.3220997,16.3158179 61.2705868,16.1256883 61.2291684,15.9043212 C60.9493157,16.1142407 60.6364745,16.3165533 60.29059,16.5112043 C59.4715343,16.9725027 58.5949627,17.2029698 57.6605112,17.2029698 C56.3864246,17.2029698 55.3973693,16.8570871 54.6937095,16.1653216 C54.5662948,16.0401255 54.4504219,15.9065816 54.3460863,15.7646901 C54.0289423,16.0753156 53.6990043,16.3484002 53.3561369,16.5838761 C52.7554961,16.9967509 52.0729496,17.2028242 51.3084977,17.2028242 C50.6652659,17.2028242 50.1436185,16.9727212 49.7431912,16.5110587 C49.0515442,16.9603422 48.3293191,17.1908093 47.5772439,17.2028242 C47.4192572,19.5449965 47.0614209,21.5019647 46.5033709,23.0737287 C45.9449569,24.6454927 45.1259013,25.4311927 44.0462038,25.4311927 C43.3909593,25.4311927 42.9057143,25.1949001 42.5901048,24.7215869 C42.2744954,24.2479096 42.1168726,23.5925528 42.1168726,22.7551525 C42.1168726,21.5656799 42.3898912,20.1792362 42.9359283,18.5958214 C43.129197,18.0351175 43.359679,17.4543441 43.6274068,16.8534689 C43.2844134,16.9287801 42.9084321,16.9725734 42.4994627,16.9846632 C42.0138536,17.3971739 41.4376025,17.6032472 40.7703451,17.6032472 C40.1391262,17.6032472 39.6571574,17.4579764 39.3233467,17.1667068 C38.989536,16.875073 38.8228127,16.5477587 38.8228127,16.1836716 C38.8228127,15.8683722 38.9378445,15.5953068 39.1686362,15.3644756 C39.3990638,15.1340085 39.7386989,15.0185929 40.1879055,15.0185929 C40.3455282,15.0185929 40.5304528,15.0338845 40.7430432,15.0641038 C40.9552697,15.0946871 41.1161686,15.1158041 41.225376,15.1274549 C41.2129992,14.8121555 41.1434705,14.5150604 41.0160618,14.2354415 C40.8886531,13.9569149 40.7277542,13.6863982 40.533729,13.4257118 C40.3397038,13.1646614 40.1576914,12.9371069 39.9876919,12.7430485 C39.6116543,13.4588437 39.2381649,14.053398 38.8683157,14.5270753 C38.800919,14.6132412 38.7324244,14.6985988 38.6628297,14.7831478 C38.6200441,14.8621151 38.5702782,14.9344541 38.5135372,15.0001701 C37.3122555,16.4688974 36.1899672,17.202897 35.1463083,17.202897 C34.3574666,17.202897 33.7841276,16.9240063 33.4262913,16.3654967 C33.331792,16.2180987 33.2497579,16.0580047 33.1801958,15.8852082 C32.8957926,16.146512 32.6076761,16.3794362 32.3159794,16.5838033 C31.7273514,16.9966781 31.0571818,17.2031155 30.3047426,17.2031155 C29.6859006,17.2031155 29.2184928,17.0239846 28.9032473,16.666087 C28.5876379,16.3081894 28.4300152,15.7893653 28.4300152,15.1096146 C28.4300152,14.7699214 28.5148329,14.1629882 28.6848325,13.2891791 C28.8424552,12.5245962 28.9214486,11.9966699 28.9214486,11.7054003 C28.9214486,11.5113418 28.854468,11.4137665 28.721235,11.4137665 C28.5636122,11.4137665 28.339009,11.6172912 28.0477892,12.0239765 C27.7565694,12.4306618 27.4653496,12.9676902 27.1741298,13.6350619 C26.88291,14.3024335 26.6462939,15.0062139 26.4642815,15.7467671 C26.2338538,16.7177874 25.663427,17.2031155 24.7533652,17.2031155 C24.3893404,17.2031155 24.1498121,17.0727723 24.0344163,16.8113578 C23.9190204,16.5510355 23.8615045,16.0806349 23.8615045,15.4005202 C23.8615045,15.0124034 23.8676929,14.7029294 23.8797057,14.4724622 L23.897907,13.0161138 C23.897907,12.6550752 23.9050395,12.2910881 23.9193046,11.9241522 C23.2453796,11.9174571 22.6222174,11.8664105 22.0496814,11.7710125 C20.9112064,13.9935599 18.2068021,17.3932418 14.5825552,17.3932418 C13.1514571,17.3932418 11.9858988,16.4415615 11.0862825,14.5382011 C9.58155749,16.4415615 7.87043576,17.3932418 5.95251493,17.3932418 C4.63970275,17.3932418 3.59564893,17.0652843 2.82115814,16.4085646 C2.04666735,15.7518449 1.65962312,14.7152579 1.65962312,13.2988036 C1.65962312,12.9595789 1.84751258,12.0630277 2.22369382,10.6099549 C2.59987506,9.1564796 2.89880839,7.9613463 3.12009147,7.02455494 C3.34177688,6.08736118 3.45201609,5.34573469 3.45201609,4.80007787 C3.45201609,3.60494457 3.14946177,3.00737791 2.54515779,3.00737791 C2.33835869,3.00737791 2.15046923,3.06653098 1.98068476,3.1844347 C1.81090028,3.30274083 1.64111581,3.42788778 1.47173367,3.56068037 C1.30194919,3.69387536 1.12854372,3.81902232 0.951919589,3.93732844 C0.77449079,4.05482976 0.571715019,4.11438523 0.343189945,4.11438523 C0.114262537,4.11438523 0,3.91519634 0,3.51641617 C0,2.70517417 0.376583574,2.04080883 1.12854372,1.52492974 C1.85113357,0.993356977 2.72178192,0.7281742 3.7396841,0.7281742 C4.75798861,0.7281742 5.13868202,1.089531 5.61061848,1.81224461 C5.99404172,2.38767916 6.1859545,3.16954583 6.1859545,4.15824702 C6.1859545,4.58600012 6.10468326,5.13930258 5.94254311,5.81815439 C5.10166739,9.32991477 4.30956046,12.1285327 4.29507647,13.4858339 C4.30956046,14.134908 4.58274448,14.5779523 5.11382388,14.8141622 C5.32022065,14.9022882 5.56363204,14.9465524 5.84405805,14.9465524 C7.15687023,14.9465524 9.12450734,13.8078418 10.2896634,12.258595 C9.69984335,10.1930666 9.40453102,7.84706419 9.40453102,5.22058774 C9.40453102,4.24677541 9.63707942,3.45364149 10.1017739,2.84158838 C10.566066,2.22913286 11.3224518,1.9229051 12.3697243,1.9229051 C13.1514571,1.9229051 13.7453004,2.14462849 14.150852,2.58686805 C14.5564035,3.02951001 14.7595816,3.6121878 14.7595816,4.33530381 C14.7595816,5.82580002 14.3685141,7.66276417 13.5867813,9.84619626 C13.3212416,10.5837987 13.0114453,11.314158 12.6573923,12.037274 C13.2918713,13.7486888 14.1323447,14.6045974 15.1800195,14.6045974 C16.2128631,14.6045974 17.7493366,13.9942191 18.7100833,12.7734627 C19.0478929,12.2135218 19.3696293,11.5966457 19.6752927,10.9226858 C18.9352303,10.4610234 18.3768164,9.86355644 18.0004148,9.12955685 C17.6243772,8.39482908 17.4365404,7.54832657 17.4365404,6.59004933 C17.4365404,5.6310439 17.5850625,4.82095011 17.8824707,4.15976793 C18.179879,3.49785759 18.5864946,3.0034273 19.1019537,2.67574891 C19.6177767,2.34807052 20.1911157,2.18423133 20.8219706,2.18423133 C21.5984354,2.18423133 22.2143653,2.46348614 22.6693962,3.02163166 C23.1244272,3.58014127 23.3519427,4.34436009 23.3519427,5.31574448 C23.3519427,6.68689649 23.0545344,8.21023692 22.460082,9.88467349 C22.9284116,9.96760958 23.4592866,10.0188505 24.052707,10.0388698 C24.1481165,9.10165107 24.2876295,8.14619976 24.471246,7.17251587 C24.853472,5.14564298 25.4177103,3.44389988 26.1639611,2.06583021 C26.9102118,0.688852793 27.8049847,1.70530257e-13 28.8486436,1.70530257e-13 C29.4066936,1.70530257e-13 29.8588123,0.239569312 30.2046358,0.718707935 C30.5504593,1.19857473 30.7233711,1.8204355 30.7233711,2.58465432 C30.7233711,3.81053559 30.3655348,5.08229183 29.6494981,6.39883078 C28.9334614,7.71573382 27.7685822,9.25400182 26.1548605,11.0136348 C26.118458,11.6445977 26.1002567,12.2941291 26.1002567,12.9611367 C26.500684,11.930042 26.9466143,11.089729 27.4380477,10.4398335 C27.9294811,9.79103029 28.4147261,9.32681924 28.8941467,9.04720035 C29.3735673,8.76867371 29.8133092,8.62886427 30.2137364,8.62886427 C31.0025781,8.62886427 31.3968169,9.0231706 31.3968169,9.81214734 C31.3968169,10.2854606 31.2632198,11.1407012 30.9963897,12.3789614 C30.765598,13.434814 30.6505662,14.132769 30.6505662,14.4724622 C30.6505662,14.9581544 30.8263901,15.2006364 31.178402,15.2006364 C31.4212066,15.2006364 31.7091501,15.0517248 32.0429608,14.7546297 C32.2734038,14.5495331 32.5572795,14.2559449 32.894588,13.8741047 C32.9131772,13.3730927 32.9812766,12.7623786 33.098669,12.0419624 C33.2380905,11.1863577 33.4171907,10.3882788 33.6356055,9.6480897 C33.744813,9.25997285 33.8904229,8.99273292 34.0724352,8.84709808 C34.2544476,8.70182732 34.5456674,8.62864582 34.9460946,8.62864582 C35.5649367,8.62864582 35.8743578,8.83544729 35.8743578,9.24795797 C35.8743578,9.55124253 35.7589619,10.2550229 35.5285342,11.3592991 C35.2373144,12.6944065 35.0917045,13.5984347 35.0917045,14.072112 C35.0917045,14.4361991 35.1401198,14.7150899 35.2373144,14.9091483 C35.3345091,15.1035708 35.4983202,15.200418 35.7287479,15.200418 C35.9471627,15.200418 36.2201813,15.0489577 36.5478036,14.7453091 C36.6425211,14.6576277 36.7463665,14.5552176 36.8593397,14.4380876 C37.4984238,13.6450565 37.983259,12.9884655 38.313178,12.4699832 C38.51958,12.1179109 38.7620205,11.6478745 39.0412275,11.0591457 C39.3200705,10.4704168 39.593089,9.86093501 39.8602832,9.2292439 C40.0907109,8.69549221 40.5701315,8.42861636 41.298181,8.42861636 C41.6378161,8.42861636 41.8744322,8.45883559 42.0080292,8.51963814 C42.1412623,8.58044068 42.2082429,8.67765194 42.2082429,8.81090782 C42.2082429,8.88372524 42.1838532,8.99877676 42.1354379,9.15679056 C42.0866586,9.31480436 42.0200421,9.47245408 41.9352243,9.63010379 C41.7168094,10.0670083 41.607602,10.4372849 41.607602,10.7405694 C41.607602,10.922613 41.6713063,11.1224968 41.798715,11.3413132 C41.9261237,11.5597654 42.1230611,11.8328307 42.3902552,12.1605091 C42.7783056,12.669867 43.0728016,13.1042229 43.2730153,13.4617564 C43.4732289,13.8203822 43.5733357,14.2114118 43.5733357,14.6363014 C43.5733357,14.7575424 43.5609588,14.9275711 43.5369332,15.1456593 C44.0209195,14.9580195 44.5734358,14.5169681 45.1942858,13.8223086 C45.2828669,13.6699531 45.373405,13.5165401 45.4659004,13.3620694 C45.4659004,11.5900575 45.4535235,10.3583508 45.4294979,9.66622123 C45.4171211,9.31451309 45.5569066,9.03562238 45.8481264,8.8288209 C46.1393462,8.62274761 46.5033709,8.51971096 46.9402006,8.51971096 C47.195018,8.51971096 47.3799425,8.57104724 47.4953384,8.67444797 C47.6107342,8.77748462 47.6740745,8.98064522 47.6864514,9.28392978 C47.6864514,9.58757842 47.6922758,9.81222016 47.7046526,9.95749091 C48.092703,9.4725269 48.475293,9.12336737 48.8513306,8.9107405 C49.2273681,8.69884181 49.6277954,8.59216429 50.0526123,8.59216429 C50.7318825,8.59216429 51.2870202,8.86522961 51.7180255,9.41136026 C52.1486668,9.95749091 52.3641694,10.6740143 52.3641694,11.5594742 C52.3641694,12.2031801 52.2611504,12.8279536 52.0547484,13.4348868 C51.8483464,14.04182 51.563315,14.593776 51.1992902,15.0914831 C51.4541076,15.1643005 51.666334,15.2003452 51.8363336,15.2003452 C52.2367608,15.2003452 52.6189868,15.0547103 52.9830115,14.7634406 C53.1866431,14.6005075 53.4225109,14.3768503 53.6906788,14.0924054 C53.655582,13.8494665 53.6380377,13.5938121 53.6380377,13.3254422 C53.6380377,12.4880419 53.8138616,11.7081673 54.1658736,10.9861826 C54.5175215,10.2641979 55.0060427,9.6907607 55.6310732,9.26587106 C56.2557397,8.84098141 56.9626757,8.62871863 57.7515174,8.62871863 C58.4551772,8.62871863 59.0194156,8.83806872 59.4442325,9.25676888 C59.8690494,9.67546905 60.0812758,10.2430808 60.0812758,10.9588761 C60.0812758,11.7962764 59.7809554,12.5153484 59.1803145,13.1160921 C58.5796737,13.7168359 57.5633166,14.1930618 56.1316072,14.545134 C56.4348398,15.1032795 57.011091,15.3825343 57.8607248,15.3825343 C58.4067619,15.3825343 59.0285162,15.1913886 59.7263517,14.8090972 C60.2361837,14.5296528 60.6960279,14.1869833 61.1055996,13.7810885 C61.137514,12.3363188 61.3604722,10.9585572 61.7750466,9.6480897 C61.884254,9.29638156 62.0629902,9.0382438 62.3119831,8.87440461 C62.560612,8.71056541 62.9093477,8.62864582 63.3585542,8.62864582 C63.6009947,8.62864582 63.7706303,8.65922913 63.8681889,8.71966759 C63.9650195,8.78047014 64.0137988,8.89588575 64.0137988,9.06555034 C64.0137988,9.25997285 63.9227926,9.69687737 63.7407802,10.3762639 C63.619196,10.8619561 63.5223654,11.2864816 63.4495604,11.6505687 C63.3767555,12.0146558 63.3155993,12.4639393 63.2675481,12.997691 C63.6679753,11.9542174 64.1168178,11.1044381 64.6144396,10.4490813 C65.1116975,9.79372454 65.5973065,9.32660079 66.0705387,9.04734598 C66.5437708,8.76845526 66.9744121,8.62864582 67.3628265,8.62864582 C67.7144744,8.62864582 67.9845808,8.72876977 68.1727816,8.92901767 C68.3606184,9.12926558 68.4549008,9.42381204 68.4549008,9.81192889 C68.4549008,10.0427601 68.3879202,10.4796646 68.2546872,11.1226425 C68.2546872,11.1226425 67.7968056,12.1696113 68.1727816,12.6153996 C68.3135981,12.7823632 68.5187218,12.732445 68.7202287,12.6122914 Z M33.7630142,6.08003612 C33.7630142,5.65514647 33.9297375,5.30052564 34.2635482,5.01544544 C34.5973589,4.73000115 35.0127112,4.58727901 35.510333,4.58727901 C35.9591755,4.58727901 36.3232003,4.69686922 36.6024073,4.9149574 C36.8816143,5.13340966 37.0210357,5.44288369 37.0210357,5.8433795 C37.0210357,6.32907169 36.863413,6.71463993 36.5478036,6.99935604 C36.2321941,7.28480033 35.8135656,7.42752247 35.2919182,7.42752247 C34.7822835,7.42752247 34.4000575,7.30883008 34.1452402,7.07217346 C33.8904229,6.83588094 33.7630142,6.50492576 33.7630142,6.08003612 Z M49.7613925,13.3165585 C49.9798073,12.7522235 50.0890147,12.160582 50.0890147,11.5416339 C50.0890147,11.1775468 50.0162098,10.9015688 49.8705999,10.7129716 C49.72499,10.5251027 49.5309648,10.4311682 49.2881603,10.4311682 C48.8513306,10.4311682 48.3234947,10.8921025 47.7046526,11.8146992 C47.6922758,12.3484509 47.6864514,13.1316023 47.6864514,14.163061 C47.6864514,14.7212065 47.6802629,15.1522857 47.6682501,15.4555702 C48.1050798,15.358359 48.5084193,15.1187896 48.8786324,14.7361341 C49.2488456,14.3538426 49.5429776,13.8805294 49.7613925,13.3165585 Z M45.4294979,16.1837444 C44.9074864,17.3972467 44.4950464,18.556136 44.1918137,19.6604121 C43.8885811,20.7650524 43.7367828,21.6931104 43.7367828,22.4460425 C43.7367828,22.8341594 43.7822859,23.1316185 43.8732921,23.3376918 C43.9642983,23.5437651 44.0705935,23.64753 44.1918137,23.64753 C44.519436,23.64753 44.7924546,22.9342833 45.0108694,21.5085182 C45.2292843,20.0823891 45.3687058,18.3074645 45.4294979,16.1837444 Z M55.8403874,13.0887856 L55.8403874,13.1251943 C56.5560601,12.9555297 57.1202985,12.7006688 57.5331025,12.3606114 C57.9455426,12.0212822 58.1519446,11.6266118 58.1519446,11.1773283 C58.1519446,10.9468612 58.0882403,10.761905 57.9608316,10.6220955 C57.8334229,10.4826501 57.6605112,10.4127454 57.4420963,10.4127454 C56.9928898,10.4127454 56.61394,10.6737959 56.304519,11.1955327 C55.9950979,11.7176336 55.8403874,12.3485965 55.8403874,13.0887856 Z M19.2745014,6.46261884 C19.2745014,7.65172731 19.6570914,8.53136174 20.4215434,9.10188623 C20.8947756,7.74274908 21.1313917,6.62026856 21.1313917,5.73408055 C21.1313917,5.2247227 21.0647751,4.85116934 20.931178,4.61451272 C20.797945,4.37785611 20.6155686,4.25989189 20.3851409,4.25989189 C20.0578827,4.25989189 19.7906885,4.45103761 19.5842865,4.83296498 C19.3782485,5.21525644 19.2745014,5.75883848 19.2745014,6.46261884 Z M11.5666413,5.97182943 C11.5666413,7.05316812 11.6601956,8.14106037 11.8469403,9.23587028 C12.3543908,7.9145982 12.6077521,6.6330116 12.6077521,5.39111051 C12.6077521,5.12423466 12.5644331,4.88393718 12.4774312,4.67021805 C12.3907933,4.45686301 12.2604725,4.3498214 12.0871967,4.3498214 C11.7399171,4.3498214 11.5666413,4.89049074 11.5666413,5.97182943 Z" id="logo"></path>
                        <path d="M104.651988,13.7070704 C104.371712,13.744947 104.083868,13.7638851 103.788456,13.7638851 C103.225446,13.7638851 102.694432,13.687024 102.195399,13.5332995 C101.824324,14.1353872 101.414868,14.7566811 100.967018,15.3971999 C100.45519,16.1273913 100.013745,16.6269885 99.6426697,16.8960064 C99.2715943,17.1650243 98.8493425,17.2995312 98.3759015,17.2995312 C97.8512777,17.2995312 97.4386225,17.0945683 97.1379235,16.6846362 C96.9516428,16.4306865 96.8083311,16.08579 96.707987,15.649942 C95.6630737,16.7496728 94.6771779,17.2995312 93.7502784,17.2995312 C92.9185577,17.2995312 92.3139699,17.004897 91.9364967,16.4156197 C91.8397879,16.2646465 91.7554676,16.1010613 91.6835359,15.9248637 C91.2805488,16.2956358 90.885034,16.5809179 90.4969874,16.7807136 C89.825213,17.1265937 89.015897,17.2995312 88.0690151,17.2995312 C87.4036386,17.2995312 86.7894541,17.216265 86.2264432,17.0497301 C85.6634323,16.8831952 84.9788725,16.6333966 84.1727433,16.3003269 C83.4433883,15.9800675 82.7396352,15.7174587 82.061463,15.5124927 C81.4088822,16.7038576 80.4300257,17.2995312 79.1248641,17.2995312 C78.4083048,17.2995312 77.8357057,17.1362014 77.4070497,16.8095368 C76.9783937,16.4828722 76.7640689,16.0633387 76.7640689,15.5509236 C76.7640689,14.9232152 77.0647634,14.4012002 77.6661613,13.984863 C78.2675593,13.5685258 79.0672787,13.3603603 80.0653435,13.3603603 L80.3148584,13.3603603 L80.6603406,7.76865912 C80.7371149,6.48762152 80.967434,5.43078135 81.3513051,4.59810691 C81.7351762,3.76543247 82.2661898,3.05446727 82.944362,2.46518998 C83.5329643,1.95277494 84.2047286,1.56526688 84.959675,1.30265417 C85.7146215,1.04004146 86.5143408,0.908737076 87.3588572,0.908737076 C88.740793,0.908737076 89.8028203,1.26742222 90.544971,1.98480328 C91.2871218,2.70218433 91.6581915,3.63732775 91.6581915,4.79026159 C91.6581915,5.57169453 91.5174409,6.20259608 91.2359355,6.68298518 C90.95443,7.16337428 90.564167,7.40356523 90.0651346,7.40356523 C89.706855,7.40356523 89.4253537,7.31709649 89.2206225,7.14415641 C89.0158913,6.97121634 88.9135272,6.7246203 88.9135272,6.4043609 C88.9135272,6.28906751 88.9391182,6.07769948 88.990301,5.77025046 C89.0670752,5.41155993 89.1054618,5.09130533 89.1054618,4.80947706 C89.1054618,4.27144127 88.9487168,3.84550266 88.6352221,3.53164845 C88.3217274,3.21779423 87.8450946,3.06086948 87.2053095,3.06086948 C86.0792877,3.06086948 85.209193,3.42916227 84.5949993,4.16575889 C83.9808057,4.90235551 83.5905426,6.0584746 83.4241985,7.63415084 L82.982749,11.9960621 C82.9187704,12.6109601 82.8355996,13.1425827 82.733234,13.5909459 C83.5521589,13.73186 84.5757997,13.9560382 85.8041871,14.2634873 C86.5207465,14.4428325 87.0709534,14.5709344 87.4548244,14.6477966 C87.8386955,14.7246589 88.1777765,14.7630894 88.4720777,14.7630894 C89.2142284,14.7630894 89.850805,14.6381901 90.3818267,14.3883878 C90.726275,14.226353 91.0586066,14.0009887 91.3788256,13.7122916 C91.4020723,13.1975849 91.4728015,12.5774736 91.5910144,11.851946 C91.738165,10.9488145 91.9268988,10.106545 92.1572214,9.32511202 C92.2723827,8.91517999 92.4259289,8.63335594 92.6178644,8.47963143 C92.8097999,8.32590692 93.1168922,8.24904582 93.5391503,8.24904582 C94.1917311,8.24904582 94.5180166,8.46681894 94.5180166,8.90237172 C94.5180166,9.22263112 94.3964593,9.96562179 94.153341,11.131366 C93.8462441,12.5405074 93.692698,13.4948661 93.692698,13.9944707 C93.692698,14.378782 93.74388,14.6734162 93.8462456,14.8783822 C93.9486113,15.0833483 94.1213507,15.1858297 94.364469,15.1858297 C94.5947916,15.1858297 94.8826906,15.0257024 95.2281746,14.705443 C95.5442309,14.4124627 95.9566599,13.9640342 96.4654722,13.360146 C96.3827538,12.131356 96.3413951,11.0233416 96.3413951,10.0360843 L96.3413951,9.36354295 C96.3541908,8.94080055 96.4693504,8.64616632 96.6868773,8.47963143 C96.9044042,8.31309654 97.2306897,8.22983035 97.6657436,8.22983035 C97.9984319,8.22983035 98.2447454,8.3034889 98.4046917,8.45080823 C98.564638,8.59812755 98.6446099,8.84472359 98.6446099,9.19060374 C98.6446099,10.663797 98.7341785,12.5789195 98.9133183,14.9360286 C99.6810604,13.7959052 100.256858,12.8863821 100.640729,12.2074322 C100.448794,11.8359313 100.352828,11.39398 100.352828,10.8815649 C100.352828,10.4460121 100.448794,10.0232761 100.640729,9.61334404 C100.832665,9.20341201 101.094973,8.87034723 101.427661,8.61413971 C101.760349,8.35793219 102.137817,8.22983035 102.560075,8.22983035 C102.931151,8.22983035 103.231845,8.36113473 103.462168,8.62374744 C103.69249,8.88636015 103.80765,9.26746312 103.80765,9.76706778 C103.80765,10.3435347 103.654104,11.0032592 103.347007,11.746261 C103.747578,11.7251541 104.256695,11.6562305 104.874368,11.5394885 C104.957808,11.2650488 105.062878,10.9977026 105.189579,10.7374489 C105.560654,9.97523154 106.075673,9.36995035 106.734652,8.92158719 C107.393631,8.47322403 108.138969,8.24904582 108.97069,8.24904582 C109.712841,8.24904582 110.307832,8.47002149 110.755681,8.91197946 C111.203531,9.35393743 111.427452,9.95281352 111.427452,10.7086257 C111.427452,11.5925417 111.110763,12.351545 110.477376,12.9856587 C109.843989,13.6197723 108.765967,14.122572 107.243279,14.4940729 C107.550376,15.0833502 108.068594,15.3779844 108.797949,15.3779844 C109.322572,15.3779844 109.754421,15.2562877 110.093507,15.0128905 C110.432593,14.7694934 110.826055,14.3595675 111.273905,13.7831006 C111.427453,13.5909449 111.600192,13.4948686 111.792128,13.4948686 C111.958472,13.4948686 112.089626,13.5717297 112.185594,13.7254542 C112.281562,13.8791787 112.329545,14.0905467 112.329545,14.3595646 C112.329545,14.8207381 112.220783,15.2178538 112.003256,15.5509236 C111.644976,16.1017698 111.174741,16.5309109 110.592537,16.83836 C110.010332,17.145809 109.316176,17.2995312 108.510047,17.2995312 C107.281659,17.2995312 106.328394,16.9312384 105.650222,16.1946418 C105.064781,15.5587651 104.732038,14.729581 104.651988,13.7070704 Z M92.6946382,6.60612331 C92.4259285,6.35632098 92.2915756,6.00724347 92.2915756,5.55888031 C92.2915756,5.11051715 92.4675139,4.73581927 92.8193957,4.43477544 C93.1712775,4.1337316 93.6095237,3.98321194 94.1341475,3.98321194 C94.6075885,3.98321194 94.9914538,4.0985036 95.2857549,4.32909036 C95.5800561,4.55967713 95.7272044,4.88633682 95.7272044,5.30907923 C95.7272044,5.82149427 95.5608628,6.2282176 95.2281746,6.52926144 C94.8954863,6.83030527 94.4540412,6.98082493 93.903826,6.98082493 C93.3664065,6.98082493 92.963348,6.85592564 92.6946382,6.60612331 Z M107.44481,10.9584268 C107.11852,11.509273 106.955377,12.1754025 106.955377,12.9568355 L106.955377,12.9952664 C107.710323,12.8159211 108.305314,12.5469073 108.740368,12.1882167 C109.175422,11.8295262 109.392946,11.4131952 109.392946,10.9392113 C109.392946,10.6958142 109.325769,10.5004589 109.191415,10.3531396 C109.05706,10.2058202 108.874724,10.1321617 108.644401,10.1321617 C108.17096,10.1321617 107.7711,10.4075806 107.44481,10.9584268 Z" id="Live"></path>
                    </g>
                    <g id="Group-2">
                        <rect id="Rectangle-5" fill="url(#linearGradient-1)" x="0" y="0" width="36" height="36" rx="9.04844557"></rect>
                        <path d="M5.65066283,17.7321638 C5.65066283,17.7321638 8.22937691,16.4489249 9.60469108,13.5972828 C10.9800052,10.7456408 12.3553194,8.89207342 14.7621192,9.03465552 C17.168919,9.17723763 18.2004046,10.3178944 18.2004046,10.3178944 C18.2004046,10.3178944 19.7476331,8.74949132 21.8106043,9.03465552 C23.8735756,9.31981973 24.733147,10.1753123 26.2803754,13.0269544 C27.8276038,15.8785965 29.7186608,17.3044175 30.2344036,17.5895817 C30.7501465,17.8747459 29.0310037,17.4469996 27.4837753,20.5838058 C25.9365469,23.7206121 23.7016613,27.0000005 19.5757188,27.0000005 C15.4497763,27.0000005 12.699148,26.8574184 10.4642624,23.4354479 C8.22937691,20.0134774 8.40129118,19.3005669 7.54171982,18.7302385 C6.68214846,18.1599101 5.65066283,17.7321638 5.65066283,17.7321638 Z M11.973811,11.2966747 L12.1457253,11.2966747 C12.1457253,11.2966747 13.1772109,10.5791822 14.3806108,10.4411821 C15.5840107,10.3031821 16.7874106,10.7263463 16.7874106,10.7263463 C16.7874106,10.7263463 16.4435821,10.0134358 14.5525251,9.87085371 C12.6614681,9.72827161 11.973811,11.2966747 11.973811,11.2966747 Z M24.1797243,11.2966747 C24.1797243,11.2966747 23.4920672,9.72827161 21.6010102,9.87085371 C19.7099533,10.0134358 19.3661247,10.7263463 19.3661247,10.7263463 C19.3661247,10.7263463 20.5695246,10.3031821 21.7729245,10.4411821 C22.9763244,10.5791822 24.00781,11.2966747 24.00781,11.2966747 L24.1797243,11.2966747 Z M23.9709732,18.3440709 C23.9709732,15.3981573 21.3706613,13.0098997 18.163179,13.0098997 C14.9556313,13.0098997 12.3553194,15.3981573 12.3553194,18.3440709 C12.3553194,21.2900445 14.9556313,23.6783021 18.163179,23.6783021 C21.3706613,23.6783021 23.9709732,21.2900445 23.9709732,18.3440709 Z M20.3057984,19.283833 C20.5944637,19.5719519 20.8832258,19.8581852 21.1738772,20.1482865 C21.4141006,20.3900375 21.4122114,20.6859892 21.1700019,20.9296259 C21.0052752,21.0940408 20.8327978,21.2506955 20.6778322,21.4228464 C20.4530133,21.6742433 20.1701369,21.7554475 19.846545,21.7380656 C19.3756655,21.7129477 18.9416745,21.5581786 18.5250984,21.3551561 C17.5969273,20.9045079 16.8024802,20.2817089 16.139795,19.4927301 C15.6495145,18.9086354 15.2445645,18.2742322 14.9771894,17.5587216 C14.8473893,17.2125099 14.7562701,16.856604 14.7834218,16.4814064 C14.8008367,16.2493737 14.8880805,16.0521049 15.0585718,15.8895998 C15.2406891,15.715539 15.4170418,15.5317841 15.5971973,15.3538553 C15.8355314,15.1198644 16.1300582,15.1218468 16.3683923,15.3538553 C16.5157041,15.4989059 16.6590437,15.6439565 16.8043694,15.7890072 C16.9458198,15.9283041 17.0872459,16.0694868 17.226807,16.2106694 C17.4747811,16.4601565 17.4747811,16.7502577 17.2286962,16.9977625 C17.0524404,17.1756913 16.8760877,17.3536926 16.6958353,17.5277292 C16.6473934,17.574097 16.6455042,17.6108432 16.6687805,17.6689118 C16.7869546,17.9531627 16.9594319,18.2046321 17.1512134,18.4405328 C17.5387486,18.9162989 17.9767118,19.3379369 18.4979467,19.6647843 C18.6103319,19.7344812 18.7342705,19.784717 18.8505553,19.8485393 C18.9106475,19.8814175 18.9513144,19.8717716 18.9997563,19.821439 C19.1761333,19.6396664 19.3563614,19.4617376 19.5365168,19.283833 C19.7729375,19.049818 20.0693777,19.049818 20.3057984,19.283833 Z" id="Combined-Shape" fill="#FFFFFF"></path>
                    </g>
                </g>
            </g>
        </g>
    </g>
</svg>