<?xml version="1.0" encoding="UTF-8"?>
<svg width="40px" height="40px" viewBox="0 0 40 40" version="1.1" xmlns="http://www.w3.org/2000/svg" xmlns:xlink="http://www.w3.org/1999/xlink">
    <!-- Generator: Sketch 46.1 (44463) - http://www.bohemiancoding.com/sketch -->
    <title>Group 4</title>
    <desc>Created with Sketch.</desc>
    <defs></defs>
    <g id="Page-1" stroke="none" stroke-width="1" fill="none" fill-rule="evenodd">
        <g id="Mobile---Notification" transform="translate(-78.000000, -358.000000)">
            <g id="notification---error" transform="translate(57.000000, 338.000000)">
                <g id="Group-4" transform="translate(21.000000, 20.000000)">
                    <path d="M21.4142136,20 L26.7071068,14.7071068 C27.0976311,14.3165825 27.0976311,13.6834175 26.7071068,13.2928932 C26.3165825,12.9023689 25.6834175,12.9023689 25.2928932,13.2928932 L20,18.5857864 L14.7071068,13.2928932 C14.3165825,12.9023689 13.6834175,12.9023689 13.2928932,13.2928932 C12.9023689,13.6834175 12.9023689,14.3165825 13.2928932,14.7071068 L18.5857864,20 L13.2928932,25.2928932 C12.9023689,25.6834175 12.9023689,26.3165825 13.2928932,26.7071068 C13.6834175,27.0976311 14.3165825,27.0976311 14.7071068,26.7071068 L20,21.4142136 L25.2928932,26.7071068 C25.6834175,27.0976311 26.3165825,27.0976311 26.7071068,26.7071068 C27.0976311,26.3165825 27.0976311,25.6834175 26.7071068,25.2928932 L21.4142136,20 Z M20,0 L20,0 C31.045695,-2.02906125e-15 40,8.954305 40,20 L40,20 C40,31.045695 31.045695,40 20,40 L20,40 L20,40 C8.954305,40 -9.30543353e-15,31.045695 -1.0658141e-14,20 L0,20 C-1.3527075e-15,8.954305 8.954305,2.02906125e-15 20,0 L20,0 Z" id="Combined-Shape" fill="#E21D36"></path>
                    <g id="x" transform="translate(13.000000, 13.000000)"></g>
                </g>
            </g>
        </g>
    </g>
</svg>