<?xml version="1.0" encoding="UTF-8"?>
<svg width="457px" height="84px" viewBox="0 0 457 84" version="1.1" xmlns="http://www.w3.org/2000/svg" xmlns:xlink="http://www.w3.org/1999/xlink">
    <!-- Generator: Sketch 46.1 (44463) - http://www.bohemiancoding.com/sketch -->
    <title>Group</title>
    <desc>Created with Sketch.</desc>
    <defs></defs>
    <g id="Page-1" stroke="none" stroke-width="1" fill="none" fill-rule="evenodd">
        <g id="Group">
            <g id="Group-5">
                <path d="M80.6598434,46.4273487 L79.3949583,44.6972127 C78.0281903,42.8122255 77.9940158,40.2587864 79.3441236,38.3403873 L80.5737662,36.5926886 C82.4535794,33.9197378 81.5817015,30.2015946 78.6941666,28.6421591 L76.8152078,27.6314496 C74.7643083,26.5346402 73.636335,24.2390723 74.0293422,21.9257275 L74.3879612,19.8182086 C74.9353946,16.5971743 72.5258761,13.6153777 69.2617805,13.4780891 L67.1258719,13.392846 C64.8024305,13.289826 62.7857055,11.7136845 62.1366029,9.46909118 L61.5383349,7.41254678 C60.6331368,4.26004969 57.1815085,2.63207698 54.1745763,3.93471216 L52.2088996,4.77386452 C50.0729909,5.69911674 47.5782497,5.15103331 46.0239489,3.40333467 L44.605492,1.80963056 C42.4354088,-0.623225911 38.6249478,-0.605663253 36.4715248,1.87816776 L35.0705823,3.488792 C33.5329417,5.25405329 31.0550741,5.83640532 28.9022917,4.94542171 L26.9199549,4.12297529 C23.8955083,2.87217136 20.4780545,4.56889546 19.6061766,7.72117836 L19.0429375,9.79442871 C18.427155,12.0559422 16.4456726,13.6672089 14.1211632,13.7869349 L11.9852546,13.9064466 C8.72222696,14.0955665 6.36354306,17.110775 6.96181107,20.3318092 L7.35481826,22.4393282 C7.78199998,24.735967 6.68884194,27.048455 4.65481615,28.179533 L2.79251741,29.2245111 C-0.0608429314,30.8182152 -0.881031847,34.5539211 1.04961597,37.1926033 L2.31450106,38.9227393 C3.6810554,40.8077265 3.71544353,43.3603089 2.36533569,45.2795648 L1.13547949,47.0272634 C-0.744120103,49.7002142 0.126903438,53.4183574 3.01443832,54.9777929 L4.89425151,55.9885025 C6.94515098,57.0853119 8.07226997,59.3810939 7.67926278,61.6942245 L7.32043013,63.8017434 C6.7740647,67.0227777 9.18358323,70.0045743 12.4466108,70.1418629 L14.5825195,70.2271061 C16.9070288,70.3301261 18.9228994,71.9062675 19.5728564,74.151075 L20.1702701,76.2074053 C21.0763225,79.3599023 24.5279509,80.9872325 27.534883,79.6852399 L29.4997054,78.845445 C31.635614,77.9208353 34.1303553,78.4689187 35.6855104,80.2166174 L37.1039673,81.8094648 C39.2907106,84.2433921 43.1011716,84.2258295 45.2370802,81.7417843 L46.6386634,80.1305175 C48.1765177,78.3658987 50.6543853,77.7837609 52.806954,78.6747445 L54.7895044,79.4971909 C57.813951,80.7477807 61.2314048,79.0512708 62.1024284,75.8987737 L62.6665218,73.8255233 C63.2812363,71.5633673 65.2637867,69.9527431 67.5874417,69.8330172 L69.7233504,69.7135054 C72.9872324,69.5243856 75.3450619,66.5091771 74.7467939,63.2881428 L74.3537867,61.1806238 C73.926605,58.8839851 75.0204038,56.5708545 77.0537888,55.440419 L78.9169419,54.3945842 C81.7703023,52.8184427 82.5904912,49.0838078 80.6598434,46.4273487 Z" id="Fill-4" fill="#FFFFFF"></path>
                <text id="20" font-family="GothamRounded-Bold, Gotham Rounded" font-size="38" font-weight="bold" letter-spacing="-1.67200041" fill="#FC2177">
                    <tspan x="16.4650004" y="51">20</tspan>
                </text>
                <text id="%" font-family="GothamRounded-Bold, Gotham Rounded" font-size="16" font-weight="bold" letter-spacing="-0.704000056" fill="#FC2177">
                    <tspan x="34.472" y="68">%</tspan>
                </text>
            </g>
            <text id="Bonus---Pre-Sales-Ev" font-family="GothamRounded-Bold, Gotham Rounded" font-size="30" font-weight="bold" fill="#FFFFFF">
                <tspan x="96" y="52">Bonus - Pre-Sales Event </tspan>
            </text>
        </g>
    </g>
</svg>