<?xml version="1.0" encoding="UTF-8"?>
<svg width="120px" height="87px" viewBox="0 0 120 87" version="1.1" xmlns="http://www.w3.org/2000/svg" xmlns:xlink="http://www.w3.org/1999/xlink">
    <!-- Generator: Sketch 46.1 (44463) - http://www.bohemiancoding.com/sketch -->
    <title>cloud-computing</title>
    <desc>Created with Sketch.</desc>
    <defs>
        <linearGradient x1="125.803437%" y1="123.985067%" x2="2.83276945e-14%" y2="-2.22044605e-14%" id="linearGradient-1">
            <stop stop-color="#3D1740" offset="0%"></stop>
            <stop stop-color="#65799B" offset="100%"></stop>
        </linearGradient>
    </defs>
    <g id="Page-1" stroke="none" stroke-width="1" fill="none" fill-rule="evenodd">
        <g id="Whipers---Download" transform="translate(-660.000000, -274.000000)" fill="url(#linearGradient-1)">
            <g id="Group-5" transform="translate(470.000000, 204.000000)">
                <path d="M287.106725,101.31214 C285.46131,84.2118777 271.224803,70.7959825 253.702707,70.7959825 C240.135895,70.7959825 228.527336,78.8448908 223.175022,90.3958079 C221.56,89.8817467 219.88524,89.5337991 218.104629,89.5337991 C208.792838,89.5337991 201.241747,97.0869869 201.241747,106.396681 C201.241747,108.246987 201.612227,109.997205 202.162969,111.657293 C194.916856,115.881921 190,123.635808 190,132.622183 C190,146.07476 200.904279,156.980611 214.358428,156.980611 L214.358428,156.9869 L281.811528,156.9869 L281.811528,156.980611 C297.337642,156.980611 309.909869,144.4 309.909869,128.873886 C309.905677,115.173974 300.092926,103.792838 287.106725,101.31214 Z M267.822882,125.595109 L253.653974,139.561223 C250.79441,142.42917 249.033712,142.334847 246.255895,139.561223 L232.086987,125.595109 C230.056419,122.278603 231.716507,119.564716 235.786026,119.564716 L242.460961,119.564716 L242.460961,104.529607 C242.460961,102.458166 244.139389,100.775546 246.207162,100.775546 L253.702707,100.775546 C255.774672,100.775546 257.451004,102.458166 257.451004,104.529607 L257.451004,119.564716 L264.115983,119.564716 C268.187074,119.564716 269.857642,122.278603 267.822882,125.595109 Z" id="cloud-computing"></path>
            </g>
        </g>
    </g>
</svg>