<?xml version="1.0" encoding="UTF-8"?>
<svg width="455px" height="67px" viewBox="0 0 455 67" version="1.1" xmlns="http://www.w3.org/2000/svg" xmlns:xlink="http://www.w3.org/1999/xlink">
    <!-- Generator: Sketch 46.1 (44463) - http://www.bohemiancoding.com/sketch -->
    <title>submit</title>
    <desc>Created with Sketch.</desc>
    <defs></defs>
    <g id="Page-1" stroke="none" stroke-width="1" fill="none" fill-rule="evenodd">
        <g id="Whipers---Home" transform="translate(-829.000000, -783.000000)">
            <g id="Group-12" transform="translate(242.000000, 780.000000)">
                <g id="submit" transform="translate(587.000000, 3.000000)">
                    <rect id="Rectangle-5" fill="#555177" transform="translate(227.500000, 33.500000) scale(-1, -1) translate(-227.500000, -33.500000) " x="0" y="0" width="455" height="67" rx="33.5"></rect>
                    <g id="send" transform="translate(13.000000, 27.000000)" stroke="#FFFFFF" stroke-width="0.660000014" fill="#FFFFFF">
                        <path d="M11.6989512,14.4776183 L11.6989512,2.37196452 L21.2739141,10.7145625 C21.3952793,10.8203176 21.5436504,10.8732292 21.6920859,10.8732292 C21.8400059,10.8732292 21.9879902,10.8206581 22.1092266,10.7155159 L31.6852852,2.4100309 L31.6852852,14.4776183 L11.6989512,14.4776183 Z M30.721002,1.44917825 L21.6931172,9.27934421 L12.7062891,1.44917825 L30.721002,1.44917825 Z M32.3426426,0.0601298999 L11.0415937,0.0601298999 C10.6785293,0.0601298999 10.3842363,0.371062089 10.3842363,0.754654077 L10.3842363,2.06450529 L4.11874805,2.06450529 C3.75568359,2.06450529 3.46139062,2.37543748 3.46139062,2.75902947 C3.46139062,3.14262146 3.75568359,3.45355365 4.11874805,3.45355365 L10.3842363,3.45355365 L10.3842363,12.4731748 L6.63944531,12.4731748 C6.27638086,12.4731748 5.98208789,12.784107 5.98208789,13.167699 C5.98208789,13.551291 6.27638086,13.8622913 6.63944531,13.8622913 L10.3842363,13.8622913 L10.3842363,15.1720744 C10.3842363,15.5556664 10.6785293,15.8666667 11.0415937,15.8666667 L32.3426426,15.8666667 C32.705707,15.8666667 33,15.5556664 33,15.1720744 L33,0.754654077 C33,0.371062089 32.705707,0.0601298999 32.3426426,0.0601298999 L32.3426426,0.0601298999 Z" id="Fill-1"></path>
                        <path d="M8.3707207,7.89308784 C8.3707207,7.50949585 8.07636328,7.19849557 7.71329883,7.19849557 L0.657357422,7.19849557 C0.294292969,7.19849557 0,7.50949585 0,7.89308784 C0,8.27667983 0.294292969,8.58761202 0.657357422,8.58761202 L7.71329883,8.58761202 C8.07636328,8.58761202 8.3707207,8.27667983 8.3707207,7.89308784" id="Fill-3"></path>
                    </g>
                    <text id="Contact-us-about-the" font-family="GothamRounded-Bold, Gotham Rounded" font-size="20" font-weight="bold" fill="#FFFFFF">
                        <tspan x="56.81" y="41">Contact us about the pre-sale for ICO</tspan>
                    </text>
                </g>
            </g>
        </g>
    </g>
</svg>