<?xml version="1.0" encoding="UTF-8"?>
<svg width="947px" height="218px" viewBox="0 0 947 218" version="1.1" xmlns="http://www.w3.org/2000/svg" xmlns:xlink="http://www.w3.org/1999/xlink">
    <!-- Generator: Sketch 46.1 (44463) - http://www.bohemiancoding.com/sketch -->
    <title>Group 4</title>
    <desc>Created with Sketch.</desc>
    <defs>
        <linearGradient x1="107.62586%" y1="106.901945%" x2="-5.46761414%" y2="-18.1659526%" id="linearGradient-1">
            <stop stop-color="#38ADF2" offset="0%"></stop>
            <stop stop-color="#843CF6" offset="100%"></stop>
        </linearGradient>
    </defs>
    <g id="Page-1" stroke="none" stroke-width="1" fill="none" fill-rule="evenodd">
        <g id="Group-4">
            <g id="Group-2">
                <rect id="Rectangle-5" fill="url(#linearGradient-1)" x="0" y="0" width="217.467485" height="217.467485" rx="54.8018114"></rect>
                <path d="M34.1734619,107.115805 C34.1734619,107.115805 49.7687273,99.3640626 58.0862022,82.1379678 C66.4036772,64.9118729 74.7211521,53.7149113 89.2767332,54.576216 C103.832314,55.4375208 110.07042,62.3279587 110.07042,62.3279587 C110.07042,62.3279587 119.42758,52.8536066 131.903792,54.576216 C144.380005,56.2988255 149.578426,61.466654 158.935586,78.6927488 C168.292745,95.9188436 179.729273,104.531891 182.848326,106.254501 C185.967379,107.97711 175.570535,105.393196 166.213376,124.3419 C156.856217,143.290604 143.34032,163.100613 118.387895,163.100613 C93.4354706,163.100613 76.8005208,162.239309 63.2846241,141.567995 C49.7687273,120.896681 50.8084117,116.590157 45.6099899,113.144938 C40.4115681,109.699719 34.1734619,107.115805 34.1734619,107.115805 Z M72.4139073,68.2405388 L73.4535917,68.2405388 C73.4535917,68.2405388 79.6916979,63.9063361 86.9694884,63.0727104 C94.247279,62.2390846 101.52507,64.7953199 101.52507,64.7953199 C101.52507,64.7953199 99.4457008,60.4887962 88.0091728,59.6274914 C76.5726448,58.7661867 72.4139073,68.2405388 72.4139073,68.2405388 Z M146.231497,68.2405388 C146.231497,68.2405388 142.07276,58.7661867 130.636232,59.6274914 C119.199704,60.4887962 117.120335,64.7953199 117.120335,64.7953199 C117.120335,64.7953199 124.398126,62.2390846 131.675916,63.0727104 C138.953707,63.9063361 145.191813,68.2405388 145.191813,68.2405388 L146.231497,68.2405388 Z M144.969035,110.812191 C144.969035,93.0166244 129.243153,78.5897254 109.845291,78.5897254 C90.4470344,78.5897254 74.7211521,93.0166244 74.7211521,110.812191 C74.7211521,128.608121 90.4470344,143.03502 109.845291,143.03502 C129.243153,143.03502 144.969035,128.608121 144.969035,110.812191 Z M122.803191,116.489072 C124.548949,118.22953 126.295294,119.958597 128.053063,121.711031 C129.50586,123.171392 129.494435,124.959165 128.029627,126.430917 C127.03341,127.424109 125.990321,128.370423 125.053136,129.410346 C123.693501,130.928975 121.982752,131.41951 120.025768,131.31451 C117.178035,131.162779 114.553391,130.227856 112.034068,129.001444 C106.420776,126.279186 101.616205,122.517004 97.6084903,117.75097 C94.6434256,114.222592 92.1944128,110.390313 90.5774111,106.068082 C89.7924204,103.976699 89.2413596,101.826756 89.4055645,99.5602758 C89.5108843,98.1586214 90.0385082,96.9669669 91.0695866,95.9853123 C92.1709759,94.9338524 93.2375027,93.823832 94.3270271,92.7490064 C95.7683983,91.335523 97.549605,91.347498 98.9909763,92.7490064 C99.8818726,93.6252229 100.748746,94.5014395 101.627631,95.3776561 C102.483079,96.219116 103.33838,97.0719668 104.182403,97.9248176 C105.682074,99.4319101 105.682074,101.184343 104.193828,102.679461 C103.127888,103.754286 102.061361,104.82955 100.97125,105.880864 C100.678289,106.160961 100.666863,106.382936 100.807631,106.733715 C101.522311,108.450807 102.565401,109.969875 103.725236,111.394895 C106.068929,114.268885 108.717596,116.815901 111.869863,118.790309 C112.549534,119.211331 113.299076,119.514794 114.00233,119.900329 C114.365749,120.098938 114.611691,120.04067 114.904652,119.736623 C115.971326,118.638577 117.061289,117.563752 118.150814,116.489072 C119.580613,115.075443 121.373392,115.075443 122.803191,116.489072 Z" id="Combined-Shape" fill="#FFFFFF"></path>
            </g>
            <g id="Group" transform="translate(288.000000, 63.000000)" fill="#FFFFFF">
                <g id="Group-3">
                    <path d="M162.666223,32.4960172 C161.166235,38.8930669 159.94256,45.8535305 158.993006,53.3796003 C163.525866,48.0458026 167.271452,42.2362817 170.231956,35.9488456 C173.192459,29.665794 174.672711,23.9680791 174.672711,18.8513162 C174.672711,16.512162 174.416134,14.723268 173.905173,13.4780575 C173.394212,12.2372316 172.661762,11.6168186 171.712207,11.6168186 C170.396428,11.6168186 168.93372,13.497788 167.326276,17.261919 C165.718832,21.0260501 164.164019,26.103352 162.666223,32.4960172 Z M112.937887,77.6777248 C114.972926,74.3061616 116.911138,70.5917749 118.752522,66.5336708 C114.294222,63.7538699 110.930212,60.1563516 108.662686,55.7367312 C106.397352,51.3127263 105.265782,46.2156939 105.265782,40.445634 C105.265782,34.6711895 106.160512,29.7933843 107.952165,25.8122183 C109.743818,21.8266678 112.193361,18.8495624 115.2986,16.8765176 C118.406033,14.9034728 121.859954,13.9169504 125.660364,13.9169504 C130.33796,13.9169504 134.048458,15.598423 136.789665,18.959176 C139.530873,22.3221213 140.901476,26.9237002 140.901476,32.7726819 C140.901476,41.0287783 139.109823,50.2012444 135.52871,60.2835033 C138.350031,60.7828851 141.54814,61.0914215 145.123036,61.2119632 C145.697804,55.5687026 146.538261,49.8156584 147.644408,43.9528307 C149.947022,31.7484525 153.346119,21.5017731 157.841699,13.2040235 C162.337279,4.91285082 167.727589,0.765072183 174.014822,0.765072183 C177.376638,0.765072183 180.100302,2.20758716 182.183619,5.09261712 C184.266937,7.98203163 185.308596,11.7264322 185.308596,16.3280112 C185.308596,23.709391 183.15291,31.3669971 178.839346,39.2942527 C174.525783,47.2237005 167.508292,56.4860498 157.786874,67.0813004 C157.567578,70.8805078 157.45793,74.791521 157.45793,78.8077633 C159.870192,72.599249 162.556575,67.5394852 165.517079,63.6262797 C168.477583,59.719651 171.400806,56.9245042 174.288942,55.2408393 C177.177078,53.5637512 179.826181,52.7219187 182.238443,52.7219187 C186.9906,52.7219187 189.365582,55.0961493 189.365582,59.8468028 C189.365582,62.6967564 188.560764,67.8464033 186.95332,75.3023204 C185.56298,81.6599092 184.870002,85.8624947 184.870002,87.9078844 C184.870002,90.8323753 185.929205,92.2924285 188.049803,92.2924285 C189.512511,92.2924285 191.247147,91.3957892 193.258097,89.6068953 C194.646336,88.3719499 196.356466,86.604172 198.388487,84.3050038 C198.500473,81.2882677 198.910719,77.6109843 199.617917,73.2731534 C200.457823,68.1213142 201.536762,63.315854 202.852541,58.858965 C203.510431,56.522003 204.387617,54.9128754 205.4841,54.0359666 C206.580583,53.1612501 208.334956,52.7206034 210.747218,52.7206034 C214.47526,52.7206034 216.339281,53.9658139 216.339281,56.4496581 C216.339281,58.2758206 215.644111,62.5134824 214.255964,69.1626434 C212.501591,77.2017049 211.624405,82.6451163 211.624405,85.4972621 C211.624405,87.6895342 211.916069,89.3688145 212.501591,90.5372955 C213.087113,91.7079687 214.073947,92.2911131 215.462095,92.2911131 C216.777874,92.2911131 218.422599,91.3791279 220.396268,89.5507731 C220.966868,89.0228185 221.592455,88.406178 222.273031,87.7009048 C226.123015,82.9258395 229.04377,78.9723183 231.031275,75.8503884 C232.274687,73.7304614 233.735202,70.9002382 235.417207,67.3553344 C237.097018,63.8104306 238.741743,60.1405672 240.35138,56.3369753 C241.739527,53.1231045 244.627663,51.5161691 249.013595,51.5161691 C251.059632,51.5161691 252.48506,51.6981277 253.289878,52.0642371 C254.092503,52.4303466 254.496009,53.0156832 254.496009,53.8180547 C254.496009,54.2565091 254.34908,54.9492671 254.057416,55.9007132 C253.763559,56.8521592 253.362246,57.801413 252.851285,58.7506668 C251.535505,61.3813932 250.877616,63.6109338 250.877616,65.4370964 C250.877616,66.5332324 251.261385,67.7367897 252.028923,69.0543452 C252.796461,70.3697084 253.982855,72.0139124 255.592492,73.9869572 C257.930194,77.0539457 259.704303,79.6693262 260.910434,81.8221374 C262.116565,83.9815253 262.719631,86.3360254 262.719631,88.8944069 C262.719631,89.6244334 262.64507,90.6482245 262.500334,91.9613954 C265.415975,90.8315628 268.744456,88.1758669 272.484594,83.9931245 C273.018226,83.0757486 273.563647,82.1520056 274.12086,81.2218933 C274.12086,70.5521054 274.046299,63.1356492 273.901564,58.9681401 C273.827003,56.8504054 274.669102,55.171125 276.423474,53.9259145 C278.177847,52.6850886 280.370813,52.0646756 283.002372,52.0646756 C284.537448,52.0646756 285.651475,52.3737859 286.346645,52.9963912 C287.041815,53.6168042 287.423391,54.840092 287.497952,56.6662545 C287.497952,58.4946094 287.533039,59.8472412 287.6076,60.7219577 C289.945302,57.8018514 292.250109,55.6994626 294.515442,54.4191757 C296.780776,53.1432734 299.193038,52.5009377 301.75223,52.5009377 C305.844304,52.5009377 309.188577,54.1451417 311.785048,57.4335497 C314.379327,60.7219577 315.677563,65.0363491 315.677563,70.3679546 C315.677563,74.2438915 315.056953,78.0058302 313.813542,81.6603477 C312.57013,85.3148651 310.853038,88.6383495 308.660072,91.6351853 C310.195148,92.0736397 311.473647,92.2906746 312.497762,92.2906746 C314.910024,92.2906746 317.212639,91.4137658 319.405604,89.6599482 C320.632326,88.6788816 322.053246,87.3321781 323.668749,85.6194542 C323.457318,84.1566498 323.351627,82.617282 323.351627,81.0013507 C323.351627,75.9591251 324.41083,71.2632785 326.531428,66.9160031 C328.649832,62.5687277 331.592793,59.1158993 335.358115,56.5575178 C339.121244,53.9991364 343.379984,52.7210418 348.132141,52.7210418 C352.371144,52.7210418 355.770241,53.9815982 358.329432,56.502711 C360.888623,59.0238239 362.167122,62.4415759 362.167122,66.7515827 C362.167122,71.7938083 360.357925,76.1235455 356.739532,79.7407943 C353.121138,83.3580431 346.998377,86.2255349 338.373443,88.3454619 C340.200183,91.7062149 343.671648,93.3876876 348.790031,93.3876876 C352.079479,93.3876876 355.825065,92.2367448 360.02898,89.9348591 C363.100322,88.2522452 365.870525,86.1889344 368.337876,83.7449268 C368.530135,75.0455575 369.873285,66.7496624 372.370773,58.858965 C373.028662,56.7412302 374.105409,55.1869094 375.605397,54.200387 C377.103193,53.2138646 379.204054,52.7206034 381.910174,52.7206034 C383.370689,52.7206034 384.392611,52.9047542 384.980326,53.2686714 C385.563655,53.6347808 385.857512,54.329731 385.857512,55.3513298 C385.857512,56.522003 385.309271,59.1527294 384.212788,63.243509 C383.480338,66.1679999 382.897009,68.724189 382.458415,70.916461 C382.019822,73.108733 381.651404,75.8139967 381.361933,79.0278675 C383.774195,72.7448159 386.478122,67.628053 389.475906,63.6819634 C392.471497,59.7358738 395.396914,56.9231888 398.247769,55.2417162 C401.098625,53.5624358 403.692903,52.7206034 406.032798,52.7206034 C408.151203,52.7206034 409.778384,53.3234782 410.912147,54.5292278 C412.043717,55.7349774 412.611695,57.5085254 412.611695,59.8454874 C412.611695,61.2353879 412.20819,63.8661143 411.405564,67.7376666 L412.392399,67.7376666 C413.99765,67.7376666 415.368253,68.3054651 416.50421,69.4366774 C417.63578,70.5700821 418.203758,71.9775207 418.203758,73.656801 C418.203758,74.6082471 417.984462,75.6298458 417.545869,76.7259819 C416.374825,79.4312455 414.7301,81.6958625 412.611695,83.5220251 C410.491098,85.3503799 408.151203,86.2623651 405.594205,86.2623651 C403.545975,86.2623651 401.811339,85.5323385 400.385911,84.0700931 C398.960483,82.6100399 398.247769,80.6369951 398.247769,78.1509587 C398.247769,76.7632505 398.320137,75.2659287 398.467066,73.656801 C398.611802,72.4883201 398.686363,71.6837562 398.686363,71.2453018 C398.686363,70.6621575 398.556978,70.2237031 398.302594,69.9299386 C398.046017,69.6383665 397.734615,69.4914842 397.370583,69.4914842 C396.346468,69.4914842 394.958321,70.7169643 393.203948,73.1635398 C391.449575,75.6123077 389.695203,78.8459089 387.94083,82.8643435 C386.186457,86.8849703 384.76103,91.1226321 383.664547,95.5795211 C382.859728,99.0871563 381.945261,101.426311 380.923339,102.594792 C379.899224,103.765465 378.21722,104.348609 375.879518,104.348609 C373.10103,104.348609 371.144905,102.888556 370.013334,99.9640651 C369.642121,99.0072536 369.331795,97.862429 369.082281,96.5295144 C367.396387,97.7934994 365.511762,99.0116816 363.428077,100.183731 C358.493904,102.961339 353.213243,104.349048 347.583899,104.349048 C339.908519,104.349048 333.950231,102.266389 329.711228,98.1010724 C328.943654,97.3472309 328.24561,96.5431254 327.617069,95.6887561 C325.706524,97.5591205 323.718904,99.2034405 321.653394,100.621308 C318.035001,103.107345 313.92319,104.348171 309.317962,104.348171 C305.442991,104.348171 302.300471,102.962655 299.888209,100.182854 C295.721574,102.888118 291.370729,104.275826 286.840062,104.348171 C285.888315,118.451056 283.732629,130.234519 280.370813,139.698557 C277.006803,149.162595 272.07263,153.893518 265.568294,153.893518 C261.620955,153.893518 258.697732,152.470733 256.79643,149.62078 C254.895129,146.768634 253.945575,142.822544 253.945575,137.780319 C253.945575,130.618166 255.590299,122.269994 258.879748,112.735803 C260.044041,109.359646 261.432516,105.862644 263.045367,102.244603 C260.979099,102.698073 258.714104,102.961765 256.250382,103.034561 C253.324965,105.518405 249.853501,106.759231 245.833794,106.759231 C242.031191,106.759231 239.127705,105.884515 237.116755,104.130697 C235.105805,102.374687 234.101427,100.403835 234.101427,98.2115629 C234.101427,96.3130553 234.794404,94.6688513 236.184745,93.2789509 C237.572892,91.8912427 239.618929,91.1962925 242.325049,91.1962925 C243.274603,91.1962925 244.38863,91.2883679 245.669322,91.4703265 C246.947821,91.6544773 247.917112,91.7816291 248.575001,91.8517818 C248.500441,89.9532742 248.081584,88.1643803 247.314046,86.4807154 C246.546508,84.8036273 245.577217,83.1747692 244.408366,81.6051024 C243.239516,80.0332434 242.143033,78.6630734 241.118918,77.4945924 C238.853584,81.8045992 236.603601,85.3845794 234.375548,88.2367252 C233.969535,88.755555 233.556908,89.2695169 233.137654,89.7786108 C232.879905,90.2540954 232.580103,90.6896687 232.238283,91.0853635 C225.001496,99.9289888 218.240582,104.348609 211.953349,104.348609 C207.201193,104.348609 203.747271,102.669329 201.591586,99.3063835 C201.022301,98.418858 200.52811,97.4548868 200.109052,96.4144296 C198.395744,97.9878142 196.660067,99.3903173 194.902821,100.62087 C191.356795,103.106906 187.319545,104.349924 182.786685,104.349924 C179.058643,104.349924 176.242875,103.271327 174.343766,101.116323 C172.442465,98.9613199 171.492911,95.8373323 171.492911,91.7443605 C171.492911,89.6989707 172.003872,86.0444532 173.027987,80.7830004 C173.977541,76.1792292 174.453415,73.0004348 174.453415,71.2466172 C174.453415,70.0781362 174.049909,69.4906073 173.247284,69.4906073 C172.297729,69.4906073 170.944669,70.7160874 169.190297,73.1648552 C167.435924,75.613623 165.681551,78.8472242 163.927179,82.8656588 C162.172806,86.8840934 160.747378,91.1217552 159.650895,95.5808365 C158.262748,101.427626 154.826371,104.349924 149.343956,104.349924 C147.15099,104.349924 145.708019,103.565091 145.012849,101.99104 C144.317678,100.423565 143.97119,97.5911499 143.97119,93.4959858 C143.97119,91.1590238 144.00847,89.2955926 144.080838,87.9078844 L144.190486,79.1387964 C144.190486,76.9648805 144.233454,74.77321 144.31939,72.5637851 C140.259517,72.5234718 136.50545,72.2161059 133.056366,71.6416873 C126.19794,85.0242772 109.906009,105.494729 88.0727418,105.494729 C79.4514899,105.494729 72.429908,99.7643916 67.0104199,88.3037168 C57.9456231,99.7643916 47.6374465,105.494729 36.0834662,105.494729 C28.1747945,105.494729 21.8851829,103.520004 17.2194787,99.5657076 C12.5537744,95.6114113 10.2221342,89.3698261 10.2221342,80.8409519 C10.2221342,78.7983834 11.3540219,73.3999937 13.6202211,64.6506287 C15.8864203,55.8988408 17.6872609,48.7026031 19.0203193,43.0619159 C20.3558014,37.4188056 21.0199068,32.9532616 21.0199068,29.6677066 C21.0199068,22.471469 19.1972525,18.8733502 15.5567913,18.8733502 C14.3109877,18.8733502 13.1791,19.2295276 12.1562807,19.9394594 C11.1334613,20.6518143 10.110642,21.4053597 9.09024646,22.2049417 C8.06742714,23.0069466 7.02279415,23.760492 5.95877121,24.4728468 C4.88990079,25.1803557 3.66833459,25.5389561 2.29164888,25.5389561 C0.912539419,25.5389561 0.224196562,24.3395832 0.224196562,21.9384143 C0.224196562,17.0536955 2.4928195,13.0533627 7.02279415,9.94710794 C11.3758356,6.74635714 16.6208143,5.1496162 22.7528827,5.1496162 C28.8873748,5.1496162 31.1807563,7.32544831 34.0238062,11.6771125 C36.3336327,15.1419677 37.4897579,19.8498093 37.4897579,25.8030605 C37.4897579,28.3786836 37.0001619,31.7102751 36.0233937,35.7978349 C30.957772,56.9431433 26.1859442,73.7944178 26.0986895,81.9671146 C26.1859442,85.8753743 27.8316653,88.5430705 31.0310054,89.9653572 C32.2743852,90.4959889 33.7407494,90.7625162 35.4300979,90.7625162 C43.3387695,90.7625162 55.1922517,83.9060161 62.2114098,74.5775599 C58.6582034,62.140426 56.8791764,48.0144781 56.8791764,32.1997161 C56.8791764,26.3361151 58.2800996,21.5604301 61.0795221,17.8750842 C63.8765209,14.1873153 68.4331567,12.3434308 74.7421583,12.3434308 C79.4514899,12.3434308 83.0289338,13.6784904 85.4720662,16.3413406 C87.9151986,19.0066138 89.1391885,22.5150825 89.1391885,26.8691697 C89.1391885,35.8438715 86.7833108,46.9047552 82.0739792,60.051821 C80.4743092,64.4931353 78.6080275,68.8908361 76.4751342,73.2449233 C80.297376,83.5498387 85.360574,88.7035078 91.6719994,88.7035078 C97.8940782,88.7035078 107.150135,85.0282468 112.937887,77.6777248 Z M203.620079,37.3746993 C203.620079,34.8163179 204.624458,32.681045 206.635407,30.964496 C208.646357,29.2457547 211.148531,28.3863841 214.146315,28.3863841 C216.850242,28.3863841 219.043208,29.046258 220.725213,30.3594289 C222.407218,31.6747921 223.247123,33.5382233 223.247123,35.9497225 C223.247123,38.8742134 222.297569,41.1958294 220.396268,42.9101861 C218.494967,44.6289274 215.973056,45.488298 212.830536,45.488298 C209.760384,45.488298 207.45777,44.7736174 205.922693,43.3486405 C204.387617,41.925856 203.620079,39.9330808 203.620079,37.3746993 Z M299.997857,80.9478593 C301.313636,77.5498377 301.971526,73.9873957 301.971526,70.2605332 C301.971526,68.0682612 301.532933,66.4065191 300.655747,65.2709222 C299.77856,64.1397098 298.60971,63.5741036 297.147001,63.5741036 C294.515442,63.5741036 291.335642,66.34952 287.6076,71.9047373 C287.533039,75.118608 287.497952,79.8341851 287.497952,86.0448917 C287.497952,89.4056447 287.460671,92.0012947 287.388303,93.8274573 C290.019862,93.2421207 292.449669,91.7996057 294.679915,89.4955278 C296.910161,87.1936422 298.682077,84.3436886 299.997857,80.9478593 Z M273.901564,98.2120013 C270.756851,105.518844 268.27222,112.496846 266.44548,119.146007 C264.618739,125.79736 263.704273,131.385461 263.704273,135.91908 C263.704273,138.256042 263.978393,140.047128 264.526635,141.287954 C265.074876,142.52878 265.715222,143.153577 266.44548,143.153577 C268.419149,143.153577 270.063873,138.858917 271.379653,130.273979 C272.695432,121.68685 273.535338,110.999524 273.901564,98.2120013 Z M336.61907,79.5763739 L336.61907,79.7956011 C340.930441,78.7740024 344.329538,77.239412 346.816361,75.1918299 C349.300992,73.1486324 350.544403,70.7722095 350.544403,68.0669459 C350.544403,66.6792377 350.160634,65.5655635 349.393096,64.7237311 C348.625558,63.8840909 347.583899,63.4631747 346.26812,63.4631747 C343.562,63.4631747 341.279123,65.0350337 339.415102,68.1765595 C337.551081,71.3202775 336.61907,75.1194849 336.61907,79.5763739 Z M116.338066,39.6783388 C116.338066,46.8382991 118.642873,52.1348283 123.248101,55.5701185 C126.098957,47.3863671 127.524385,40.6275925 127.524385,35.2916025 C127.524385,32.2246139 127.123072,29.9753429 126.318254,28.550366 C125.515628,27.1253892 124.416952,26.4150931 123.028805,26.4150931 C121.057329,26.4150931 119.447692,27.5660359 118.20428,29.8657293 C116.963061,32.1676149 116.338066,35.440677 116.338066,39.6783388 Z M69.9042079,36.7231561 C69.9042079,43.234204 70.4678002,49.7847127 71.5927916,56.3768746 C74.649786,48.4211195 76.1760902,40.7043221 76.1760902,33.2264822 C76.1760902,31.6195469 75.9151272,30.1726473 75.3910084,28.8857837 C74.8690826,27.6011123 74.0840008,26.9565843 73.0401491,26.9565843 C70.9480597,26.9565843 69.9042079,30.2121082 69.9042079,36.7231561 Z" id="Combined-Shape"></path>
                    <path d="M570.289096,86.497983 C574.032345,81.8146592 576.89609,77.9134027 578.880406,74.7941129 C580.268091,72.5576244 581.675028,69.8970141 583.10126,66.8122023 C584.527492,63.7273906 586.396984,59.5243975 588.709793,54.2030972 C590.174571,50.8098042 593.219723,49.1131832 597.84534,49.1131832 C600.003961,49.1131832 601.507264,49.305981 602.355294,49.6915825 C603.203324,50.077184 603.627332,50.6941371 603.627332,51.5424603 C603.627332,52.0051821 603.473147,52.7378139 603.164773,53.7403778 C602.856399,54.7429416 602.43239,55.7454904 601.892735,56.7480542 C600.50505,59.5243848 599.811218,61.8765185 599.811218,63.8045259 C599.811218,64.9613303 600.215953,66.2337961 601.025436,67.6219614 C601.834919,69.0101267 603.087671,70.7453073 604.783731,72.8275552 C607.250726,76.0666076 609.120218,78.8236168 610.392263,81.0986655 C611.664308,83.3737142 612.300321,85.8608064 612.300321,88.5600167 C612.300321,91.7990691 611.548669,94.8645548 610.045344,97.7565659 C608.542018,100.648577 606.441249,102.981431 603.742972,104.755198 C601.044696,106.528964 597.960997,107.415834 594.491785,107.415834 C590.482917,107.415834 587.418492,106.490405 585.298417,104.639518 C583.178343,102.788631 582.118322,100.706414 582.118322,98.3928051 C582.118322,96.3876774 582.8507,94.6524968 584.315479,93.1872112 C585.780257,91.7219256 587.938846,90.9892938 590.79131,90.9892938 C591.793527,90.9892938 592.969187,91.0856928 594.318325,91.2784935 C595.667463,91.4712942 596.688938,91.6062527 597.382781,91.683373 C597.305687,89.6782454 596.862406,87.7888265 596.052923,86.0150597 C595.24344,84.2412929 594.221965,82.5253921 592.988467,80.8673058 C591.754969,79.2092194 590.598582,77.7632356 589.519272,76.5293109 C587.12937,81.0794083 584.758776,84.858246 582.407421,87.8659375 C580.056066,90.873629 577.492742,93.7270371 574.717372,96.4262474 C573.329687,97.8144127 571.86493,98.508485 570.323058,98.508485 C569.08956,98.508485 568.087358,98.0650499 567.316422,97.1781665 C566.686921,96.4539901 566.314431,95.5884221 566.198944,94.5814446 C564.370416,97.154931 562.198688,99.2929732 559.683733,100.995602 C555.867599,103.579132 551.646787,104.870877 547.021171,104.870877 C542.472647,104.870877 538.598751,103.73337 535.399366,101.458321 C532.199982,99.1832728 529.790842,96.1949062 528.171876,92.4931321 C526.55291,88.7913579 525.74344,84.8197223 525.74344,80.5781061 C525.74344,74.7169637 526.842007,69.4921421 529.039175,64.9034846 C531.236343,60.3148271 534.223676,56.7287871 538.001263,54.1452573 C541.77885,51.5617274 546.018935,50.2699818 550.721646,50.2699818 C555.270169,50.2699818 559.163338,51.4074891 562.40127,53.6825378 C565.639201,55.9575865 568.067614,58.9459531 569.68658,62.6477272 C571.305546,66.3495014 572.115016,70.321137 572.115016,74.5627532 C572.115016,78.8876025 571.506381,82.8659915 570.289096,86.497983 Z M554.9425,88.0972972 C556.7542,85.2438463 557.660036,81.0794129 557.660036,75.603872 C557.660036,71.3622558 556.889112,68.1618115 555.347239,66.0024433 C553.805367,63.843075 551.955148,62.7634071 549.796527,62.7634071 C547.021157,62.7634071 544.727656,64.1708314 542.915956,66.9857221 C541.104256,69.8006129 540.19842,73.9843261 540.19842,79.5369873 C540.19842,83.9328441 540.969345,87.1718479 542.511217,89.2540959 C544.053089,91.3363438 545.9804,92.3774522 548.293209,92.3774522 C550.914392,92.3774522 553.1308,90.9507482 554.9425,88.0972972 Z M619.70127,90.815774 C619.315802,88.0780036 619.123071,84.2413265 619.123071,79.3056276 C619.123071,74.3699288 620.048181,67.6991233 621.898427,59.2930112 L616.694635,59.2930112 C615.769511,59.2930112 615.306956,58.9074155 615.306956,58.1362126 C615.306956,56.2853255 615.480414,54.7622225 615.827336,53.566858 C616.174257,52.3714934 617.003001,51.0026287 618.313592,49.4602228 L621.088949,49.4602228 C622.168259,49.4602228 623.324646,49.4216632 624.558144,49.3445429 C628.258637,37.4680176 632.036168,31.5298439 635.890848,31.5298439 C638.974593,31.6069642 641.133182,33.5735022 642.36668,37.429517 C642.675054,38.5092011 643.02197,39.6659882 643.407438,40.8999129 L638.666205,49.2288631 C644.062758,49.3831037 647.474099,49.4602228 648.900331,49.4602228 C650.326562,49.4602228 651.097487,49.5951813 651.213127,49.8651023 C651.328768,50.1350233 651.386587,50.5398988 651.386587,51.0797409 C651.386587,52.4679062 651.058944,54.2030868 650.403649,56.2853348 C649.748353,58.3675827 648.996701,59.3701315 648.148672,59.2930112 L636.584687,58.7146119 C634.965722,68.1232878 634.156251,75.9123208 634.156251,82.0819443 C634.156251,88.2515679 635.042814,91.3363334 636.815967,91.3363334 C638.280746,91.3363334 640.940436,90.121707 644.795116,87.6924177 C648.649797,85.2631284 651.425125,82.9302745 653.121185,80.693786 C654.817244,78.4572974 656.204909,77.3390699 657.284219,77.3390699 C658.36353,77.3390699 658.903177,78.6500953 658.903177,81.2721853 C658.903177,83.8942753 657.978067,86.5741654 656.127821,89.3119358 C654.277574,92.0497063 651.945527,94.5560783 649.13161,96.831127 C646.317693,99.1061756 643.195449,100.976315 639.764783,102.4416 C636.334117,103.906886 633.346785,104.639518 630.802695,104.639518 C628.258606,104.639518 626.312021,104.041844 624.962883,102.84648 C623.613745,101.651115 622.495904,100.031613 621.609328,97.9879256 C620.722751,95.9442378 620.086738,93.5535445 619.70127,90.815774 Z M471.554066,49.4865932 C481.125639,49.4865932 492.675515,49.576921 500.802322,49.7575792 C505.046321,32.5950493 510.100234,18.8706167 514.163637,12.186263 C516.872573,8.30211146 519.581468,5.50195121 522.290403,3.78569822 C523.373977,3.06306539 522.679563,2.70175439 523.808286,2.70175439 C524.937009,2.70175439 524.601089,4.46314551 524.601089,7.98598059 C524.601089,11.5088157 524.307626,15.2122534 523.72069,19.0964049 C523.133754,22.9805564 522.388807,27.4517801 521.485829,32.5102099 C518.506,49.1307652 516.271161,62.4089444 514.781247,72.345146 C513.291332,82.2813475 512.546386,91.856089 512.546386,101.069658 C512.546386,103.598873 510.740456,104.863461 507.128542,104.863461 C501.439777,104.863461 500.257847,103.756946 498.180997,101.543883 C496.104146,99.33082 495.065736,95.3112351 495.065736,89.4850079 C495.065736,83.6587806 496.239591,72.6667625 498.587335,60.1110169 C488.654571,59.6593714 482.378964,59.433552 479.760327,59.433552 L474.207036,59.433552 C473.21376,59.433552 469.519679,59.4787159 468.526402,59.569045 C464.462999,75.105651 462.431328,89.1913946 462.431328,98.2243051 C462.431328,103.553722 459.940099,106.218391 449.555845,106.218391 C447.298399,106.218391 445.966526,105.066712 445.560185,102.76332 C445.153845,100.459928 444.950678,96.7113261 444.950678,91.5174026 C444.950678,86.3234791 446.576015,76.9971389 449.826738,63.5381023 C444.318569,64.3510642 440.300374,64.7575391 437.772034,64.7575391 C436.598162,64.7575391 436.011235,64.3059003 436.011235,63.4026093 C436.011235,61.415369 437.478553,59.1571752 440.413233,56.6279603 C443.347914,54.0987454 447.659572,52.066371 453.348336,50.5307762 C456.689357,38.9686508 460.030327,29.4842371 463.371348,22.0772505 C453.61918,22.2579087 446.440608,24.1547914 441.835418,27.7679556 C440.390652,28.8519049 439.216797,29.8229282 438.313819,30.6810547 C437.41084,31.5391812 436.620746,31.968238 435.943512,31.968238 C435.266278,31.968238 434.611628,31.4262715 433.979543,30.3423222 C433.347459,29.258373 433.031421,27.813129 433.031421,26.0065469 C433.031421,19.4125222 438.584655,14.3993321 449.691292,10.9668261 C458.540481,8.256953 463.432643,6.85687288 475.171364,6.76654378 L478.143076,6.76654378 C478.775161,6.76654378 479.655552,7.12785478 480.784275,7.85048761 C481.912998,8.57312045 482.477351,9.7473812 482.477351,11.3733051 C482.477351,12.999229 482.183887,14.8283659 481.596951,16.8607708 C481.010015,18.8931756 480.219921,20.4061654 479.226645,21.3997856 C478.684857,25.6452535 475.527172,36.2082148 471.554066,49.4865932 Z" id="Combined-Shape"></path>
                </g>
            </g>
        </g>
    </g>
</svg>