<?xml version="1.0" encoding="UTF-8"?>
<svg width="30px" height="30px" viewBox="0 0 30 30" version="1.1" xmlns="http://www.w3.org/2000/svg" xmlns:xlink="http://www.w3.org/1999/xlink">
    <!-- Generator: Sketch 46.1 (44463) - http://www.bohemiancoding.com/sketch -->
    <title>Artboard</title>
    <desc>Created with Sketch.</desc>
    <defs>
        <polygon id="path-1" points="2.46395925e-16 10.0400391 2.46395925e-16 0 11.7710803 0 11.7710803 10.0400391"></polygon>
    </defs>
    <g id="Page-1" stroke="none" stroke-width="1" fill="none" fill-rule="evenodd">
        <g id="Artboard">
            <g id="icon-fb" transform="translate(1.000000, 1.000000)" opacity="0.900000036" stroke="#FFFFFF">
                <g id="Page-1">
                    <g id="Whipers---Home">
                        <g id="footer">
                            <g id="social">
                                <g id="icon-fb">
                                    <path d="M0,14 C0,21.7317619 6.28083858,28 14.029148,28 C21.7774574,28 28.058296,21.7317619 28.058296,14 C28.058296,6.26823813 21.7774574,0 14.029148,0 C6.28083858,0 0,6.26823813 0,14 Z" id="back"></path>
                                </g>
                            </g>
                        </g>
                    </g>
                </g>
            </g>
            <g id="medium" transform="translate(9.000000, 10.000000)">
                <mask id="mask-2" fill="white">
                    <use xlink:href="#path-1"></use>
                </mask>
                <g id="Clip-2"></g>
                <path d="M7.5998489,8.28882163 L11.3268644,2.10024393 C11.4105742,2.14237855 11.3817202,1.86367093 11.3817202,1.96090467 L11.3817202,9.87291365 C11.3816912,10.0207635 11.2342081,10.1178457 11.1069507,10.0537805 L7.5998489,8.28882163 Z" id="Fill-1" fill="#FFFFFF" opacity="0.699999988" mask="url(#mask-2)"></path>
                <path d="M5.13890183,4.15050519 L7.45535789,0.117399044 C7.52152807,0.0064258366 7.65959271,-0.0352986392 7.77446367,0.020958402 L11.2302022,1.71377568 C11.3623053,1.77849242 11.4106798,1.94523926 11.3343068,2.07267868 L7.60045181,8.30500411 L5.13890183,4.15050519 Z" id="Fill-3-Copy" fill="#FFFFFF" opacity="0.800000012" mask="url(#mask-2)"></path>
                <path d="M7.61658136,8.30899784 L3.83797104,6.43971697 L0.374513763,0.636801932 C0.278017769,0.475130712 0.445920799,0.283703689 0.612095543,0.365917431 L3.83797104,1.96197246 L7.61658136,8.30899784" id="Fill-4" fill="#FFFFFF" opacity="0.900000036" mask="url(#mask-2)"></path>
                <path d="M3.53361706,10.0200372 L0.108585168,8.30130226 C0.042201854,8.267978 0,8.19791857 0,8.12106751 L0,0.193908223 C0,0.0512538268 0.142803669,-0.0424706546 0.266024984,0.0193784476 L3.80829068,1.79694398 L3.80829068,9.83980245 C3.80829068,9.98713552 3.66083005,10.0838785 3.53361706,10.0200372" id="Fill-5" fill="#FFFFFF" mask="url(#mask-2)"></path>
            </g>
        </g>
    </g>
</svg>