<?xml version="1.0" encoding="UTF-8"?>
<svg width="39px" height="38px" viewBox="0 0 39 38" version="1.1" xmlns="http://www.w3.org/2000/svg" xmlns:xlink="http://www.w3.org/1999/xlink">
    <!-- Generator: Sketch 46.2 (44496) - http://www.bohemiancoding.com/sketch -->
    <title>icon-slack</title>
    <desc>Created with Sketch.</desc>
    <defs></defs>
    <g id="Page-1" stroke="none" stroke-width="1" fill="none" fill-rule="evenodd">
        <g id="icon-slack">
            <path d="M0,19 C0,8.50658923 8.59973419,0 19.2080451,0 C29.816356,0 38.4160902,8.50658923 38.4160902,19 C38.4160902,29.4934108 29.816356,38 19.2080451,38 C8.59973419,38 0,29.4934108 0,19 Z" id="back" fill="#FFFFFF"></path>
            <g id="Group" transform="translate(8.950820, 8.866667)">
                <path d="M13.2634797,1.25387541 C12.9525697,0.305827323 11.9247557,-0.21296612 10.9678775,0.0951868857 C10.0108315,0.40317377 9.48711419,1.42132459 9.79819185,2.36920656 L14.509132,16.7273093 C14.8326192,17.6128962 15.7983854,18.1105923 16.7254136,17.8462951 C17.6923537,17.5705356 18.2818081,16.5532153 17.9732459,15.6124765 C17.9615071,15.5765946 13.2634797,1.25387541 13.2634797,1.25387541" id="Shape" fill="#DFA22F"></path>
                <path d="M5.96397098,3.60331366 C5.6528933,2.6554317 4.62507928,2.13663826 3.66820102,2.44462514 C2.71115506,2.75261202 2.18743779,3.77076284 2.49851545,4.71881093 L7.20945553,19.0769137 C7.53294276,19.9625006 8.49870898,20.4601967 9.42573714,20.1957333 C10.3926772,19.9201399 10.9821317,18.9028197 10.6735695,17.9619147 C10.6618307,17.9261989 5.96397098,3.60331366 5.96397098,3.60331366" id="Shape" fill="#3CB187"></path>
                <path d="M19.1932405,13.145259 C20.1502865,12.8372721 20.6738361,11.8191213 20.3629261,10.8710733 C20.0520161,9.92319128 19.0242021,9.40439778 18.0673238,9.71238469 L3.5729492,14.3792 C2.67895727,14.6994798 2.17653749,15.6561661 2.44334319,16.5744787 C2.72171996,17.5323279 3.74869551,18.1162404 4.69836281,17.8105793 C4.73458533,17.7989508 19.1932405,13.145259 19.1932405,13.145259" id="Shape" fill="#CE1E5B"></path>
                <path d="M6.59384037,17.2005858 C7.53730287,16.896918 8.75327276,16.5055388 10.058122,16.0855869 C9.75157215,15.1509946 9.35647833,13.9462907 8.93237299,12.6535432 L5.46792367,13.7690404 L6.59384037,17.2005858" id="Shape" fill="#392538"></path>
                <path d="M13.8935168,14.8509814 C15.2032293,14.4295344 16.4205407,14.0376568 17.3577984,13.7359826 C17.0512486,12.8013901 16.6559871,11.5963541 16.2318818,10.3032743 L12.7674324,11.4187716 L13.8935168,14.8509814" id="Shape" fill="#BB242A"></path>
                <path d="M16.8215039,5.91421202 C17.7783822,5.60622514 18.3020994,4.58807432 17.9911895,3.64002623 C17.6802795,2.69214426 16.6524654,2.17335082 15.6954195,2.4813377 L1.20104488,7.148153 C0.307052943,7.46843279 -0.195366837,8.4251191 0.0716065574,9.34343169 C0.349815641,10.3012809 1.37679119,10.8851934 2.32662617,10.5795323 C2.362681,10.5679038 16.8215039,5.91421202 16.8215039,5.91421202" id="Shape" fill="#72C5CD"></path>
                <path d="M4.22143295,9.96970494 C5.16489546,9.66603712 6.38120075,9.27449177 7.68621768,8.85453992 C7.26077076,7.55697486 6.86517388,6.3511082 6.56063639,5.42249617 L3.09534856,6.53815956 L4.22143295,9.96970494" id="Shape" fill="#248C73"></path>
                <path d="M11.5209416,7.62026667 C12.8309895,7.19865356 14.0484687,6.80677596 14.9858941,6.50493552 C14.5602795,5.20720437 14.1646826,4.00100547 13.8599774,3.07222733 L10.3948573,4.18789071 L11.5209416,7.62026667" id="Shape" fill="#62803A"></path>
            </g>
        </g>
    </g>
</svg>