<?xml version="1.0" encoding="UTF-8"?>
<svg width="681px" height="154px" viewBox="0 0 681 154" version="1.1" xmlns="http://www.w3.org/2000/svg" xmlns:xlink="http://www.w3.org/1999/xlink">
    <!-- Generator: Sketch 46.1 (44463) - http://www.bohemiancoding.com/sketch -->
    <title>Group</title>
    <desc>Created with Sketch.</desc>
    <defs></defs>
    <g id="Page-1" stroke="none" stroke-width="1" fill="none" fill-rule="evenodd">
        <g id="Logo---User---For-Web" transform="translate(-368.000000, -166.000000)" fill="#FFFFFF">
            <g id="Group" transform="translate(368.000000, 166.000000)">
                <path d="M163.474194,31.9115466 C161.964674,38.3450061 160.733224,45.3450863 159.777637,52.9139919 C164.339299,47.5498359 168.108684,41.7072493 171.087999,35.3840273 C174.067314,29.0652148 175.556972,23.3350704 175.556972,18.1891847 C175.556972,15.8367168 175.298765,14.0376411 174.784557,12.7853433 C174.270349,11.537455 173.533245,10.9135108 172.577657,10.9135108 C171.253517,10.9135108 169.781515,12.805186 168.163857,16.5907412 C166.546199,20.3762964 164.981507,25.4824966 163.474194,31.9115466 Z M416.616387,76.3744312 C419.610401,73.6209277 421.733366,70.8036154 422.985282,67.9224943 C426.824197,59.0877319 425.98278,61.2964467 428.086306,56.4583384 C429.418538,53.3731678 432.188138,51.8306057 436.395189,51.8306057 C438.35848,51.8306057 439.72575,52.0058969 440.497043,52.3564844 C441.268336,52.707072 441.653976,53.2680037 441.653976,54.0392963 C441.653976,54.4600014 441.513743,55.1261077 441.233273,56.0376354 C440.952803,56.9491631 440.567163,57.860677 440.07634,58.7722047 C438.814225,61.2964351 438.183177,63.4349872 438.183177,65.187925 C438.183177,66.2396876 438.551288,67.3966092 439.287522,68.6587245 C439.857301,69.6354884 440.668547,70.8012201 441.721275,72.1559414 C442.028818,72.551709 442.356971,72.9636059 442.705734,73.3916328 C444.949494,76.3365683 446.649818,78.8432318 447.806757,80.9116984 C448.963696,82.980165 449.542157,85.2414209 449.542157,87.6955338 C449.542157,90.6404693 448.858521,93.4275986 447.49123,96.0570053 C446.123938,98.686412 444.213265,100.807435 441.759152,102.420138 C439.305039,104.03284 436.500381,104.83918 433.345093,104.83918 C429.698982,104.83918 426.911853,103.997782 424.983621,102.314962 C423.05539,100.632142 422.091288,98.7389972 422.091288,96.6354719 C422.091288,94.8124165 422.757395,93.2347962 424.089627,91.9025635 C425.42186,90.5703307 427.385121,89.9042244 429.979469,89.9042244 C430.890997,89.9042244 431.960273,89.9918699 433.187329,90.1671637 C434.414385,90.3424575 435.343429,90.4651613 435.974486,90.5352788 C435.904369,88.7122235 435.501199,86.9943702 434.764965,85.3816674 C434.028731,83.7689647 433.099688,82.2088734 431.977808,80.7013469 C430.855928,79.1938204 429.804181,77.8791368 428.822536,76.7572566 C426.648893,80.8941898 424.134754,83.2240685 419.146367,85.3816674 C414.544602,87.3720433 405.037316,86.2027971 404.361881,85.0738293 C403.769494,84.7362707 403.217057,84.3047493 402.704368,83.7791643 C401.269883,82.310801 400.552641,80.3265263 400.552641,77.8263402 C400.552641,76.4307336 400.625468,74.9248896 400.773331,73.3066034 C400.918986,72.1314718 400.994021,71.3223287 400.994021,70.8813787 C400.994021,70.2949153 400.863814,69.8539654 400.607813,69.5585289 C400.349606,69.2652972 400.036226,69.117579 399.669881,69.117579 C398.639258,69.117579 397.242291,70.3500341 395.47677,72.8105347 C393.71125,75.2732401 391.94573,78.5252458 390.18021,82.5665519 C388.41469,86.6100628 386.980205,90.8718439 385.876755,95.3541 C385.066823,98.8816994 384.146546,101.234167 383.11813,102.409299 C382.087508,103.586635 380.394815,104.173099 378.04226,104.173099 C375.246118,104.173099 373.277563,102.704735 372.138802,99.7635993 C371.76523,98.8013419 371.452932,97.6500014 371.201833,96.3095003 C369.505226,97.5806795 367.608627,98.8057951 365.511702,99.9845152 C360.546177,102.777933 355.231962,104.17354 349.566849,104.17354 C341.842699,104.17354 335.846551,102.079027 331.580614,97.890003 C330.808162,97.1318709 330.105682,96.3231888 329.473148,95.4639567 C327.550463,97.3449665 325.550214,98.9986454 323.47158,100.424583 C319.830195,102.924769 315.692257,104.172658 311.057767,104.172658 C307.158175,104.172658 303.995687,102.779256 301.568097,99.9836333 C297.374987,102.704294 292.996497,104.099901 288.437041,104.172658 C287.479247,118.355812 285.309864,130.206342 281.926686,139.724246 C278.541302,149.24215 273.575776,154 267.030111,154 C263.057691,154 260.115893,152.569117 258.20251,149.702943 C256.289128,146.834564 255.33354,142.866014 255.33354,137.79509 C255.33354,130.592173 256.988715,122.196486 260.299066,112.60803 C261.470757,109.212656 262.868054,105.69575 264.491154,102.057117 C262.411756,102.513169 260.132369,102.778361 257.652992,102.851572 C254.708988,105.349553 251.215465,106.597441 247.170217,106.597441 C243.343452,106.597441 240.421517,105.717746 238.397789,103.953947 C236.374062,102.187942 235.363302,100.205872 235.363302,98.0011224 C235.363302,96.0918092 236.060682,94.438247 237.459857,93.0404357 C238.856825,91.6448291 240.915862,90.9459235 243.639177,90.9459235 C244.594765,90.9459235 245.71587,91.038523 247.0047,91.2215172 C248.291322,91.4067162 249.266772,91.5345917 249.928842,91.6051437 C249.853808,89.6958304 249.43229,87.8967547 248.659875,86.203507 C247.88746,84.5168735 246.91201,82.8787445 245.735732,81.3001437 C244.559454,79.7193382 243.456004,78.3413697 242.425382,77.1662381 C240.145654,81.500776 237.881375,85.1011322 235.639164,87.9695115 C235.230571,88.4912942 234.815323,89.0081814 234.393405,89.5201729 C234.134018,89.9983638 233.832311,90.4364162 233.488319,90.8343632 C226.205549,99.7283233 219.401676,104.173099 213.074494,104.173099 C208.292141,104.173099 204.816274,102.48426 202.646891,99.1021744 C202.073989,98.2095974 201.576657,97.2401396 201.154937,96.1937605 C199.430743,97.7761002 197.684037,99.1865859 195.915625,100.424142 C192.347068,102.924328 188.284165,104.174421 183.722502,104.174421 C179.970772,104.174421 177.137112,103.089685 175.225937,100.922416 C173.312555,98.7551468 172.356967,95.6133785 172.356967,91.4971109 C172.356967,89.4400795 172.871175,85.7647618 173.901797,80.4733626 C174.857385,75.8433883 175.336282,72.6465013 175.336282,70.8827016 C175.336282,69.70757 174.930212,69.1166971 174.122487,69.1166971 C173.166899,69.1166971 171.805242,70.3491522 170.039722,72.8118575 C168.274202,75.2745629 166.508682,78.5265687 164.743162,82.5678748 C162.977642,86.6091809 161.543157,90.870962 160.439707,95.3554228 C159.042739,101.23549 155.584526,104.174421 150.067276,104.174421 C147.860376,104.174421 146.408236,103.385121 145.708649,101.802111 C145.009061,100.225715 144.660371,97.3771783 144.660371,93.2587059 C144.660371,90.9084428 144.697888,89.0344055 144.770716,87.638799 L144.881061,78.8198004 C144.881061,76.6335112 144.924302,74.4293666 145.010784,72.2073663 C140.925114,72.1668236 137.147193,71.8577083 133.676193,71.2800203 C126.774189,84.7387793 110.378738,105.325742 88.4067407,105.325742 C79.7307087,105.325742 72.6645113,99.5627893 67.2105874,88.0368844 C58.0881923,99.5627893 47.7145168,105.325742 36.0871218,105.325742 C28.1281979,105.325742 21.7986216,103.339777 17.1032712,99.3629744 C12.4079208,95.3861717 10.0614652,89.1090616 10.0614652,80.5316439 C10.0614652,78.4774499 11.200545,73.0483344 13.4811438,64.2491711 C15.7617425,55.4475709 17.5740258,48.2103748 18.9155545,42.5375827 C20.2595224,36.8623538 20.9278476,32.3713934 20.9278476,29.0671382 C20.9278476,21.8299421 19.093612,18.211344 15.4300191,18.211344 C14.1762995,18.211344 13.0372197,18.5695487 12.0079013,19.2835212 C10.978583,19.9999306 9.94926459,20.7577649 8.92238536,21.5618978 C7.89306698,22.3684675 6.84179632,23.1263018 5.77101251,23.8427111 C4.69535041,24.5542469 3.46602231,24.9148883 2.08058904,24.9148883 C0.692716633,24.9148883 0,23.708689 0,21.2938535 C0,16.3813325 2.28303792,12.3582312 6.84179632,9.23429673 C11.2224973,6.01532836 16.5008029,4.40949932 22.6718349,4.40949932 C28.845306,4.40949932 31.1532597,6.59771552 34.0143746,10.9741479 C36.3388779,14.4587238 37.5023492,19.1933609 37.5023492,25.1804959 C37.5023492,27.7707785 37.0096423,31.1213323 36.0266676,35.2321571 C30.9288586,56.4978172 26.1267103,73.4450034 26.0389011,81.6642164 C26.1267103,85.5947205 27.7828884,88.2776003 31.0025573,89.7079822 C32.2538377,90.241634 33.7295192,90.5096783 35.429602,90.5096783 C43.3885258,90.5096783 55.3173257,83.6141534 62.3810841,74.2326029 C58.8053003,61.7246811 57.0149693,47.5183332 57.0149693,31.6135591 C57.0149693,25.7165845 58.424794,20.9137179 61.2420043,17.2073963 C64.0567754,13.4986379 68.6423643,11.6442587 74.9914538,11.6442587 C79.7307087,11.6442587 83.3308839,12.9869169 85.7895401,15.6649232 C88.2481964,18.3453662 89.4799636,21.8738039 89.4799636,26.2526731 C89.4799636,35.2784557 87.1091165,46.4022942 82.3698616,59.6241885 C80.7600271,64.0907812 78.881887,68.5135122 76.7354411,72.8923814 C80.5819697,83.2559487 85.6773396,88.4389508 92.0288681,88.4389508 C98.2904824,88.4389508 107.605353,84.7427715 113.42988,77.3504129 C115.477851,73.9596598 117.428378,70.2241322 119.281462,66.1429308 C114.794834,63.3473082 111.409449,59.729314 109.127514,55.2845387 C106.847787,50.8353539 105.709026,45.7093109 105.709026,39.9064098 C105.709026,34.0990992 106.609442,29.1935312 108.412479,25.1897058 C110.215516,21.1814709 112.680624,18.1874209 115.805594,16.2031462 C118.932771,14.2188715 122.408639,13.2267342 126.233197,13.2267342 C130.940515,13.2267342 134.67459,14.9177772 137.433215,18.2976584 C140.19184,21.6797444 141.571152,26.3075139 141.571152,32.189786 C141.571152,40.4928732 139.768115,49.7175458 136.164247,59.8571895 C139.003495,60.3594136 142.221925,60.6697061 145.819536,60.7909338 C146.397956,55.1155537 147.243754,49.3297652 148.356929,43.4335683 C150.674174,31.159727 154.094869,20.854727 158.619014,12.5097496 C163.143159,4.17138636 168.567719,1.70530257e-13 174.894902,1.70530257e-13 C178.27808,1.70530257e-13 181.01905,1.45072528 183.115605,4.35217583 C185.21216,7.25803588 186.260437,11.0237483 186.260437,15.6515178 C186.260437,23.0749099 184.091055,30.7761005 179.750082,38.7484753 C175.40911,46.7230548 168.347029,56.0381221 158.563841,66.6936772 C158.343151,70.5145084 158.232806,74.4477818 158.232806,78.4868832 C160.660397,72.2430321 163.363849,67.1544699 166.343164,63.2189918 C169.322479,59.2901279 172.264277,56.4790721 175.170764,54.7858243 C178.077252,53.0991908 180.743187,52.252567 183.170777,52.252567 C187.95313,52.252567 190.343202,54.6403108 190.343202,59.4180034 C190.343202,62.2841779 189.53327,67.4631349 187.915612,74.9614885 C186.516438,81.3552625 185.819057,85.5817676 185.819057,87.638799 C185.819057,90.5799351 186.88499,92.0482983 189.019062,92.0482983 C190.491065,92.0482983 192.236723,91.1465557 194.26045,89.34748 C195.65751,88.1055058 197.378507,86.3276662 199.42344,84.015412 C199.536137,80.9815057 199.948989,77.2832925 200.660681,72.9207722 C201.505924,67.7396105 202.591718,62.9067992 203.915859,58.4245432 C204.577929,56.07428 205.460689,54.4559938 206.564139,53.5740939 C207.667589,52.6943988 209.433109,52.2512441 211.860699,52.2512441 C215.612429,52.2512441 217.488294,53.5035419 217.488294,56.0015233 C217.488294,57.8380797 216.788707,62.0998608 215.391739,68.7868666 C213.626219,76.8716836 212.743459,82.346077 212.743459,85.2144563 C212.743459,87.4192059 213.036977,89.1080442 213.626219,90.2831758 C214.215461,91.4605121 215.208566,92.0469755 216.605534,92.0469755 C217.929674,92.0469755 219.584849,91.1297996 221.571059,89.2910384 C222.145284,88.7600788 222.774847,88.1399287 223.459747,87.4306413 C227.334194,82.628398 230.273508,78.6523747 232.273642,75.5126759 C233.524954,73.380683 234.994749,70.5343511 236.687442,66.9692709 C238.377927,63.4041907 240.033102,59.7134398 241.652967,55.8881991 C243.049935,52.6560361 245.956422,51.0399546 250.370222,51.0399546 C252.42926,51.0399546 253.863745,51.2229489 254.673677,51.5911421 C255.481403,51.9593353 255.887472,52.5480034 255.887472,53.3549418 C255.887472,53.7958917 255.73961,54.4925926 255.446092,55.449454 C255.150368,56.4063153 254.746505,57.3609719 254.232297,58.3156285 C252.908157,60.9613281 252.246087,63.2035585 252.246087,65.040115 C252.246087,66.1424898 252.632295,67.3528974 253.40471,68.6779519 C254.177125,70.0008017 255.371058,71.654364 256.990922,73.6386387 C259.343478,76.7230834 261.12886,79.3533498 262.342655,81.518414 C263.55645,83.6900924 264.163348,86.0579935 264.163348,88.6309364 C264.163348,89.365118 264.088313,90.3947361 263.942658,91.7153811 C266.876824,90.5791179 270.226455,87.9083067 273.990358,83.7017576 C274.527381,82.7791603 275.076268,81.8501597 275.637021,80.9147535 C275.637021,70.1842369 275.561986,62.7255688 275.416331,58.5343397 C275.341296,56.4045515 276.188746,54.7157133 277.954266,53.4634155 C279.719786,52.2155272 281.926686,51.591583 284.574966,51.591583 C286.119796,51.591583 287.240902,51.9024527 287.940489,52.5286016 C288.640076,53.1525458 289.024077,54.3827961 289.099111,56.2193525 C289.099111,58.0581138 289.134422,59.4184443 289.209456,60.2981394 C291.562012,57.3614129 293.881464,55.2470579 296.161192,53.9594841 C298.440919,52.6763198 300.868509,52.0303282 303.443962,52.0303282 C307.562037,52.0303282 310.92756,53.6838904 313.54053,56.9910149 C316.151292,60.2981394 317.457777,64.6370868 317.457777,69.9990379 C317.457777,73.8970353 316.833225,77.6803857 315.581912,81.3557034 C314.3306,85.0310211 312.602597,88.3734216 310.395697,91.3873144 C311.940527,91.8282643 313.22715,92.0465345 314.257772,92.0465345 C316.685362,92.0465345 319.002607,91.1646347 321.209507,89.4008349 C322.444024,88.4141844 323.873972,87.059816 325.49974,85.3373438 C325.286966,83.8662137 325.180603,82.3180843 325.180603,80.6929557 C325.180603,75.6220315 326.246536,70.8994577 328.380608,66.5274391 C330.512474,62.1554205 333.474134,58.6829398 337.263381,56.109997 C341.050422,53.5370541 345.336222,52.2516851 350.118574,52.2516851 C354.384512,52.2516851 357.805207,53.5194161 360.380659,56.0548782 C362.956112,58.5903403 364.242735,62.0275451 364.242735,66.3620829 C364.242735,71.4330071 362.422042,75.7873877 358.780657,79.4252246 C355.139272,83.0630616 348.977607,85.9468741 340.297869,88.078867 C342.136217,91.4587483 345.629739,93.1497913 350.780644,93.1497913 C354.090994,93.1497913 357.86038,91.9922977 362.091007,89.6773105 C365.181864,87.9851198 367.969669,85.9100653 370.452698,83.4521472 C370.646179,74.7032641 371.997863,66.3601517 374.51122,58.4245432 C375.17329,56.294755 376.256878,54.7315875 377.766397,53.7394501 C379.27371,52.7473128 381.38792,52.2512441 384.111235,52.2512441 C385.581031,52.2512441 386.609446,52.4364431 387.200895,52.8024315 C387.787931,53.1706247 388.083655,53.8695304 388.083655,54.8969437 C388.083655,56.07428 387.53193,58.7199796 386.42848,62.8340425 C385.691376,65.7751785 385.10434,68.3459166 384.66296,70.5506663 C384.22158,72.755416 383.850821,75.476077 383.55951,78.70824 C385.9871,72.3894275 388.708208,67.2435418 391.72504,63.2749924 C394.739666,59.306443 397.683671,56.4777492 400.552641,54.7867062 C403.421611,53.097868 406.032373,52.2512441 408.387136,52.2512441 C410.519001,52.2512441 412.156521,52.8575503 413.297488,54.0701626 C414.436249,55.2827749 415.007836,57.0664174 415.007836,59.4166805 C415.007836,60.8144918 414.601766,63.4601914 413.794041,67.3537793 C413.794041,67.3537793 411.018134,73.6937574 413.297488,76.3932529 C414.151188,77.4043106 415.394751,77.1020283 416.616387,76.3744312 Z M204.688274,36.8179965 C204.688274,34.2450536 205.699034,32.0976275 207.722761,30.3713085 C209.746489,28.6427847 212.264561,27.7785229 215.281394,27.7785229 C218.002502,27.7785229 220.209402,28.4421525 221.902094,29.7627976 C223.594786,31.0856474 224.440029,32.9596846 224.440029,35.3849092 C224.440029,38.3260453 223.484441,40.6608751 221.571059,42.3849894 C219.657677,44.1135131 217.119742,44.977775 213.957254,44.977775 C210.867594,44.977775 208.550349,44.2590266 207.005519,42.8259393 C205.460689,41.3950568 204.688274,39.3909393 204.688274,36.8179965 Z M301.678442,80.6391598 C303.002582,77.2217978 303.664652,73.6390796 303.664652,69.8910052 C303.664652,67.6862555 303.223272,66.0150553 302.340512,64.872995 C301.457752,63.7353441 300.281474,63.1665187 298.809472,63.1665187 C296.161192,63.1665187 292.961187,65.9577318 289.209456,71.5445674 C289.134422,74.7767304 289.099111,79.519147 289.099111,85.7652028 C289.099111,89.145084 289.061594,91.7555076 288.988766,93.592064 C291.637046,93.0033959 294.082292,91.5526706 296.326709,89.2354787 C298.571127,86.9204916 300.354302,84.054317 301.678442,80.6391598 Z M275.416331,98.0015634 C272.251636,105.349994 269.751219,112.367712 267.912871,119.054718 C266.074523,125.743928 265.154246,131.363835 265.154246,135.923258 C265.154246,138.273521 265.430108,140.074801 265.981833,141.322689 C266.533558,142.570578 267.177973,143.198931 267.912871,143.198931 C269.899081,143.198931 271.554256,138.879827 272.878396,130.246027 C274.202536,121.610023 275.047779,110.861868 275.416331,98.0015634 Z M338.532349,79.2598684 L338.532349,79.4803434 C342.871114,78.45293 346.291809,76.9096053 348.794434,74.8503691 C351.294852,72.7955424 352.546164,70.4055938 352.546164,67.6849327 C352.546164,66.2893261 352.159957,65.1693133 351.387542,64.3226895 C350.615127,63.4782703 349.566849,63.0549584 348.242709,63.0549584 C345.519394,63.0549584 343.222011,64.6357639 341.346146,67.7951702 C339.470281,70.9567812 338.532349,74.7776123 338.532349,79.2598684 Z M116.851665,39.1347474 C116.851665,46.3354598 119.171117,51.662135 123.805607,55.1169777 C126.674577,46.8866472 128.109062,40.089404 128.109062,34.7230434 C128.109062,31.6385986 127.705199,29.3765254 126.895267,27.9434381 C126.087542,26.5103509 124.981885,25.796012 123.584917,25.796012 C121.600914,25.796012 119.981049,26.9535056 118.729737,29.2662879 C117.480631,31.5812751 116.851665,34.8729663 116.851665,39.1347474 Z M70.1227627,36.1627449 C70.1227627,42.7108514 70.689936,49.2986434 71.8220758,55.9283256 C74.8984945,47.9272891 76.4344969,40.1665703 76.4344969,32.6461692 C76.4344969,31.0300877 76.1718758,29.5749529 75.6444267,28.2807648 C75.1191845,26.9887815 74.3291143,26.3405851 73.2786298,26.3405851 C71.1732472,26.3405851 70.1227627,29.6146384 70.1227627,36.1627449 Z" id="logo"></path>
                <path d="M634.452677,83.0039264 C632.753501,83.2332899 631.008451,83.3479709 629.217517,83.3479709 C625.804263,83.3479709 622.584993,82.8825342 619.559609,81.9516469 C617.309965,85.5976222 614.827636,89.3599021 612.112548,93.2385992 C609.00959,97.660314 606.333329,100.685652 604.083685,102.314705 C601.834041,103.943758 599.274139,104.758272 596.403903,104.758272 C593.223371,104.758272 590.721649,103.517108 588.898661,101.034742 C587.769335,99.496935 586.900507,97.4083949 586.292171,94.7690934 C579.957384,101.428574 573.980391,104.758272 568.361063,104.758272 C563.318756,104.758272 559.653442,102.974098 557.365011,99.4056969 C556.778714,98.4914708 556.267523,97.5008715 555.831437,96.4338967 C553.388327,98.6791277 550.990518,100.40667 548.637986,101.616543 C544.565354,103.71104 539.658876,104.758272 533.918404,104.758272 C529.884559,104.758272 526.161065,104.254049 522.747812,103.245588 C519.334558,102.237127 515.184415,100.724457 510.297256,98.7075349 C505.875541,96.7681863 501.609039,95.1779443 497.49762,93.9367612 C493.541348,101.151138 487.607031,104.758272 479.694489,104.758272 C475.350348,104.758272 471.878966,103.769219 469.280239,101.791084 C466.681512,99.8129482 465.382168,97.2724397 465.382168,94.1694819 C465.382168,90.3683587 467.205128,87.2072679 470.851103,84.6861147 C474.497079,82.1649616 479.345377,80.9044039 485.396145,80.9044039 L486.908829,80.9044039 L489.003315,47.0435469 C489.468759,39.2861525 490.865069,32.8863982 493.192287,27.8440919 C495.519505,22.8017855 498.738776,18.4964963 502.850195,14.9280949 C506.418596,11.8251371 510.491167,9.47856053 515.06803,7.88829469 C519.644893,6.29802884 524.493191,5.50290785 529.613072,5.50290785 C537.991057,5.50290785 544.429598,7.67494569 548.928887,12.0190865 C553.428176,16.3632274 555.677786,22.0260403 555.677786,29.0076952 C555.677786,33.7397058 554.824486,37.5601652 553.117859,40.469188 C551.411232,43.3782109 549.045262,44.8327005 546.019879,44.8327005 C543.847808,44.8327005 542.141207,44.3090843 540.900024,43.261836 C539.658841,42.2145878 539.038259,40.7213118 539.038259,38.7819632 C539.038259,38.0837977 539.193404,36.8038468 539.5037,34.9420722 C539.969144,32.7700018 540.201862,30.8306823 540.201862,29.1240555 C540.201862,25.8659499 539.251595,23.286655 537.351034,21.3860934 C535.450472,19.4855317 532.560886,18.5352652 528.682189,18.5352652 C521.855682,18.5352652 516.580733,20.7654826 512.857184,25.2259844 C509.133634,29.6864861 506.767664,36.6874295 505.759203,46.2290245 L503.082916,72.6428202 C502.695046,76.3663695 502.190823,79.5856399 501.570231,82.3007279 C506.534964,83.1540413 512.740786,84.5115649 520.187885,86.3733396 C524.532025,87.4593748 527.867655,88.2351026 530.194873,88.7005462 C532.522092,89.1659899 534.57777,89.3987082 536.361971,89.3987082 C540.86126,89.3987082 544.720505,88.6423736 547.939824,87.1296817 C550.028042,86.1484709 552.042802,84.7837648 553.98413,83.0355435 C554.125063,79.9187088 554.553859,76.1635901 555.270525,71.7701177 C556.162625,66.3011547 557.306824,61.2007444 558.703155,56.4687339 C559.40132,53.9863677 560.332194,52.2797665 561.495803,51.3488792 C562.659412,50.4179919 564.521159,49.9525552 567.081099,49.9525552 C571.03737,49.9525552 573.015476,51.2712925 573.015476,53.9088066 C573.015476,55.8481551 572.278535,60.3473764 570.80463,67.4066052 C568.942855,75.939739 568.011982,81.7189111 568.011982,84.7442949 C568.011982,87.0715132 568.322273,88.8556871 568.942864,90.0968702 C569.563456,91.3380533 570.610688,91.9586356 572.084593,91.9586356 C573.480924,91.9586356 575.226312,90.9889758 577.320808,89.0496272 C579.2369,87.2754683 581.737251,84.5599849 584.821925,80.9031064 C584.320445,73.4620999 584.069708,66.7524574 584.069708,60.7740662 L584.069708,56.7014546 C584.147282,54.1415144 584.845437,52.3573405 586.164194,51.3488792 C587.482951,50.340418 589.461057,49.8361949 592.098571,49.8361949 C594.115493,49.8361949 595.608769,50.2822384 596.578443,51.1743387 C597.548118,52.0664391 598.032948,53.5597151 598.032948,55.6542116 C598.032948,64.5752151 598.575957,76.1723456 599.661992,90.4459512 C604.316429,83.5418703 607.807204,78.0342029 610.134422,73.9227839 C608.970813,71.6731395 608.389017,68.9968786 608.389017,65.8939209 C608.389017,63.2564068 608.970813,60.6965051 610.134422,58.2141389 C611.298031,55.7317727 612.888273,53.7148804 614.905196,52.1634016 C616.922118,50.6119227 619.210515,49.8361949 621.770456,49.8361949 C624.0201,49.8361949 625.84306,50.6313159 627.239391,52.2215817 C628.635722,53.8118476 629.333877,56.1196378 629.333877,59.1450216 C629.333877,62.635849 628.403004,66.6308472 626.541229,71.1301359 C628.969693,71.002322 632.056213,70.5849513 635.800857,69.878014 C636.306709,68.2161287 636.943696,66.5971988 637.711821,65.0212184 C639.961466,60.4055688 643.08377,56.7402549 647.078828,54.0251669 C651.073886,51.3100789 655.592501,49.9525552 660.634807,49.9525552 C665.134096,49.9525552 668.74123,51.2906857 671.456318,53.9669867 C674.171406,56.6432878 675.52893,60.2698152 675.52893,64.8466779 C675.52893,70.19928 673.609003,74.7954672 669.769093,78.6353774 C665.929183,82.4752876 659.393676,85.5200192 650.162377,87.7696636 C652.024152,91.338065 655.165849,93.1222389 659.587564,93.1222389 C662.768096,93.1222389 665.386177,92.3852975 667.441886,90.9113926 C669.497596,89.4374877 671.882959,86.9551587 674.598047,83.4643312 C675.528934,82.3007221 676.576167,81.7189262 677.739776,81.7189262 C678.748237,81.7189262 679.543358,82.1843629 680.125163,83.1152502 C680.706967,84.0461376 680.997865,85.3260884 680.997865,86.9551412 C680.997865,89.7478032 680.338497,92.1525594 679.01974,94.1694819 C676.847669,97.5051615 673.99687,100.10385 670.467255,101.965624 C666.937641,103.827399 662.729317,104.758272 657.842159,104.758272 C650.39506,104.758272 644.615888,102.528055 640.504469,98.0675531 C636.955233,94.2169662 634.937982,89.1957961 634.452677,83.0039264 Z M561.961244,40.0037467 C560.332191,38.4910548 559.517677,36.3771966 559.517677,33.6621085 C559.517677,30.9470205 560.584303,28.6780167 562.717586,26.855029 C564.85087,25.0320414 567.507738,24.1205612 570.688269,24.1205612 C573.558505,24.1205612 575.885689,24.8187162 577.669889,26.2150472 C579.45409,27.6113782 580.346177,29.5894841 580.346177,32.1494242 C580.346177,35.2523819 579.337731,37.7153177 577.320808,39.5383054 C575.303886,41.361293 572.627625,42.2727732 569.291945,42.2727732 C566.03384,42.2727732 563.590297,41.5164386 561.961244,40.0037467 Z M651.38416,66.3593622 C649.406025,69.6950418 648.416972,73.7288264 648.416972,78.4608369 L648.416972,78.6935576 C652.993835,77.6075224 656.600969,75.978494 659.238483,73.8064236 C661.875997,71.6343531 663.194734,69.1132378 663.194734,66.2430019 C663.194734,64.769097 662.787477,63.5861121 661.972951,62.6940117 C661.158424,61.8019114 660.053012,61.3558679 658.656681,61.3558679 C655.786445,61.3558679 653.362296,63.0236827 651.38416,66.3593622 Z" id="Live"></path>
            </g>
        </g>
    </g>
</svg>