<?xml version="1.0" encoding="UTF-8"?>
<svg width="154px" height="118px" viewBox="0 0 154 118" version="1.1" xmlns="http://www.w3.org/2000/svg" xmlns:xlink="http://www.w3.org/1999/xlink">
    <!-- Generator: Sketch 46.1 (44463) - http://www.bohemiancoding.com/sketch -->
    <title>Group 6</title>
    <desc>Created with Sketch.</desc>
    <defs>
        <linearGradient x1="14.3222953%" y1="16.7351991%" x2="78.5856008%" y2="89.8020213%" id="linearGradient-1">
            <stop stop-color="#FB167F" offset="0%"></stop>
            <stop stop-color="#FF4958" offset="100%"></stop>
        </linearGradient>
        <linearGradient x1="50%" y1="0%" x2="50%" y2="100%" id="linearGradient-2">
            <stop stop-color="#FF6969" offset="0%"></stop>
            <stop stop-color="#D3394A" offset="100%"></stop>
        </linearGradient>
        <linearGradient x1="13.9138297%" y1="8.31608149%" x2="84.7611938%" y2="90.6994421%" id="linearGradient-3">
            <stop stop-color="#FB167F" offset="0%"></stop>
            <stop stop-color="#FF4958" offset="100%"></stop>
        </linearGradient>
        <circle id="path-4" cx="31.3299912" cy="31.3299912" r="31.3299912"></circle>
        <circle id="path-6" cx="34.4973176" cy="33.9717665" r="31.3299912"></circle>
        <linearGradient x1="14.3222953%" y1="16.7351991%" x2="78.5856008%" y2="89.8020213%" id="linearGradient-7">
            <stop stop-color="#FFFFFF" offset="0%"></stop>
            <stop stop-color="#FAC0C5" offset="100%"></stop>
        </linearGradient>
        <filter x="0.0%" y="0.0%" width="100.6%" height="100.0%" filterUnits="objectBoundingBox" id="filter-8">
            <feOffset dx="0" dy="0" in="SourceAlpha" result="shadowOffsetOuter1"></feOffset>
            <feColorMatrix values="0 0 0 0 0.600791879   0 0 0 0 0.0760827626   0 0 0 0 0.170786359  0 0 0 1 0" type="matrix" in="shadowOffsetOuter1" result="shadowMatrixOuter1"></feColorMatrix>
            <feMerge>
                <feMergeNode in="shadowMatrixOuter1"></feMergeNode>
                <feMergeNode in="SourceGraphic"></feMergeNode>
            </feMerge>
        </filter>
        <filter x="-61.0%" y="-61.0%" width="222.0%" height="222.0%" filterUnits="objectBoundingBox" id="filter-9">
            <feGaussianBlur stdDeviation="12" in="SourceGraphic"></feGaussianBlur>
        </filter>
        <circle id="path-10" cx="33.5678477" cy="33.5678477" r="33.5678477"></circle>
        <circle id="path-12" cx="36.9614118" cy="35.7818829" r="33.5678477"></circle>
        <linearGradient x1="14.3222953%" y1="16.7351991%" x2="78.5856008%" y2="89.8020213%" id="linearGradient-13">
            <stop stop-color="#FFFFFF" offset="0%"></stop>
            <stop stop-color="#FFD8DB" offset="100%"></stop>
        </linearGradient>
        <path d="M43.676422,24.6575342 L39.7643733,31.3706141 L44.9295103,36.3462901 L50.159157,31.8062001 L45.4159485,28.0361586 L41.9016213,30.5019122 L45.4159485,24.6575342 L54.8000798,31.3706141 C48.744883,36.7226138 45.7690085,40.7242595 45.8724566,43.3755512 C45.9759046,46.0268429 45.9759046,52.7115005 45.8724566,63.4295242 L44.9295103,64.9456027 L43.9412329,63.4295242 L43.9412329,43.3755512 C44.0278277,41.3630442 43.0302238,39.2347951 40.9484211,36.990804 C38.8666184,34.7468129 37.0271504,32.8734162 35.4300171,31.3706141 L43.676422,24.6575342 Z M43.037534,31.9608 L45.200462,29.9661136 L47.3418666,31.9608 L45.1897003,34.2681145 L43.037534,31.9608 Z M57.2245922,33.4299519 C57.4377703,33.3094096 53.5701387,46.2821212 53.1238388,51.405226 C52.8263055,54.8206293 51.3832334,57.5111577 48.7946224,59.4768113 C48.5745353,49.5122915 48.7454097,43.5010413 49.3072455,41.4430608 C50.1499994,38.3560899 57.0114142,33.5504941 57.2245922,33.4299519 Z M58.9107134,35.9699949 L64.7237879,40.592101 L55.1916228,52.1764828 L58.9107134,35.9699949 Z M32.5252335,33.4299519 C32.7384115,33.5504941 39.5998263,38.3560899 40.4425802,41.4430608 C41.004416,43.5010413 41.1752904,49.5122915 40.9552033,59.4768113 C38.3665923,57.5111577 36.9235202,54.8206293 36.6259869,51.405226 C36.179687,46.2821212 32.3120554,33.3094096 32.5252335,33.4299519 Z M31.0870471,35.9699949 L34.8061377,52.1764828 L25.2739726,40.592101 L31.0870471,35.9699949 Z" id="path-14"></path>
        <filter x="0.0%" y="0.0%" width="100.0%" height="100.0%" filterUnits="objectBoundingBox" id="filter-15">
            <feOffset dx="0" dy="0" in="SourceAlpha" result="shadowOffsetOuter1"></feOffset>
            <feColorMatrix values="0 0 0 0 0.600791879   0 0 0 0 0.0760827626   0 0 0 0 0.170786359  0 0 0 1 0" type="matrix" in="shadowOffsetOuter1"></feColorMatrix>
        </filter>
    </defs>
    <g id="Page-1" stroke="none" stroke-width="1" fill="none" fill-rule="evenodd">
        <g id="Whipers---Pre-sales" transform="translate(-654.000000, -97.000000)">
            <g id="pre-sale-popup" transform="translate(450.000000, 84.000000)">
                <g id="Group-6" transform="translate(205.000000, 26.000000)">
                    <g id="rosecoin" transform="translate(68.000000, 3.000000)">
                        <circle id="Oval" stroke="url(#linearGradient-2)" stroke-width="0.5" fill="url(#linearGradient-1)" cx="42" cy="42" r="42"></circle>
                        <path d="M41.4436877,8.19127369 L41.4436877,2.30136986 L44.5002997,2.30136986 L44.5002997,8.19127369 L41.4436877,8.19127369 Z M41.4436877,81.2946481 L41.4436877,75.4047443 L44.5002997,75.4047443 L44.5002997,81.2946481 L41.4436877,81.2946481 Z M30.2107441,10.5370363 L27.8921152,5.00230985 L29.7658605,4.40986027 L32.0843024,9.94458667 L30.2107441,10.5370363 Z M55.3887349,79.1816104 L53.0702929,73.6470464 L54.9440381,73.0545968 L57.2624801,78.5891608 L55.3887349,79.1816104 Z M19.8987934,16.5313658 L16.081283,12.0197843 L17.419344,10.9061804 L21.2368544,15.4179244 L19.8987934,16.5313658 Z M67.0982354,72.5563415 L63.280725,68.04476 L64.6186222,66.9313185 L68.4362964,71.4429001 L67.0982354,72.5563415 Z M12.525293,25.6649636 L7.3821672,22.7200929 L8.25548493,21.2199677 L13.3986108,24.1648384 L12.525293,25.6649636 Z M76.2394959,62.2842921 L71.0963701,59.3394214 L71.9696878,57.8391337 L77.1128137,60.7841669 L76.2394959,62.2842921 Z M8.72808853,38.3034009 L2.8794962,36.7446942 L3.1829385,34.14586 L9.03153083,35.7043193 L8.72808853,38.3034009 Z M81.2864962,50.8434215 L75.4377401,49.2847147 L75.7411824,46.6858805 L81.5899385,48.2443398 L81.2864962,50.8434215 Z M9.02874695,49.3281616 L3.18015462,50.8866209 L2.87671233,48.2877867 L8.72530466,46.7290799 L9.02874695,49.3281616 Z M81.5766742,36.7777472 L75.7279181,38.3362065 L75.4244758,35.7373723 L81.2732319,34.1786656 L81.5766742,36.7777472 Z M13.3968094,59.4259827 L8.2536836,62.3708534 L7.38036587,60.8707282 L12.5234917,57.9258574 L13.3968094,59.4259827 Z M77.0954554,22.8066542 L71.9523296,25.7516873 L71.0788481,24.2513997 L76.2219739,21.306529 L77.0954554,22.8066542 Z M21.2402933,68.1792304 L17.4227829,72.690812 L16.0848857,71.5773706 L19.9023961,67.0656266 L21.2402933,68.1792304 Z M68.4397353,12.1472714 L64.6222249,16.6588529 L63.2841639,15.5454115 L67.1016743,11.0336675 L68.4397353,12.1472714 Z M32.0851212,73.6566282 L29.7665759,79.1913547 L27.892934,78.5989051 L30.2114793,73.0641787 L32.0851212,73.6566282 Z M57.2632989,5.00328428 L54.9447535,10.5380107 L53.0711117,9.94556109 L55.389657,4.41083469 L57.2632989,5.00328428 Z" id="Combined-Shape" fill="#DB2342"></path>
                        <g id="Oval-3" transform="translate(10.931507, 10.931507)">
                            <mask id="mask-5" fill="white">
                                <use xlink:href="#path-4"></use>
                            </mask>
                            <g id="Mask">
                                <use fill="url(#linearGradient-3)" xlink:href="#path-4"></use>
                                <use fill-opacity="0.299394248" fill="#000000" xlink:href="#path-4"></use>
                            </g>
                            <g mask="url(#mask-5)">
                                <use fill="url(#linearGradient-3)" xlink:href="#path-6"></use>
                                <use fill-opacity="0.100000001" fill="#000000" xlink:href="#path-6"></use>
                            </g>
                        </g>
                        <g id="Group-4" filter="url(#filter-8)" transform="translate(18.986301, 23.589041)">
                            <path d="M5.95816029,34.2900468 L7.62421461,36.5834856 L6.63085587,36.5834856 L5.09376391,34.380669 L4.9473742,34.380669 L4.9473742,36.5834856 L4.13525986,36.5834856 L4.13525986,31.2019211 L5.08679297,31.2019211 C5.79783226,31.2019211 6.31135293,31.3355294 6.6273704,31.60275 C6.97591907,31.9001782 7.15019079,32.2928705 7.15019079,32.7808386 C7.15019079,33.1619185 7.04098051,33.4895494 6.82255668,33.763741 C6.60413284,34.0379326 6.3160036,34.2133661 5.95816029,34.2900468 Z M4.9473742,33.6731188 L5.20529893,33.6731188 C5.97442966,33.6731188 6.35898926,33.3791805 6.35898926,32.791295 C6.35898926,32.2405881 5.98488597,31.9652388 5.23666815,31.9652388 L4.9473742,31.9652388 L4.9473742,33.6731188 Z M8.04247093,33.8683051 C8.04247093,33.1107926 8.32014387,32.4601782 8.87549809,31.9164423 C9.42852864,31.3727063 10.0930848,31.1008424 10.8691865,31.1008424 C11.6359936,31.1008424 12.2935789,31.37503 12.8419621,31.9234132 C13.392669,32.4717964 13.6680184,33.1305435 13.6680184,33.8996743 C13.6680184,34.6734523 13.3915072,35.3298758 12.8384767,35.8689644 C12.2831224,36.4103767 11.6127572,36.6810788 10.8273609,36.6810788 C10.1325872,36.6810788 9.50869444,36.4405838 8.95566388,35.9595866 C8.34686553,35.427469 8.04247093,34.7303821 8.04247093,33.8683051 Z M8.86155621,33.8787615 C8.86155621,34.4736179 9.06138778,34.9627405 9.46105693,35.346144 C9.85840241,35.7295476 10.3173179,35.9212465 10.8378173,35.9212465 C11.4024661,35.9212465 11.8788088,35.7260621 12.2668597,35.3356876 C12.6549106,34.9406658 12.8489331,34.4596758 12.8489331,33.8927033 C12.8489331,33.3187599 12.6572342,32.8377699 12.2738306,32.4497191 C11.8927508,32.0593445 11.4210553,31.8641602 10.8587301,31.8641602 C10.2987286,31.8641602 9.82587131,32.0593445 9.44014411,32.4497191 C9.05441691,32.8354463 8.86155621,33.311789 8.86155621,33.8787615 Z M17.7320755,32.003579 L17.0733218,32.3939515 C16.950168,32.180175 16.832825,32.0407577 16.7212895,31.9756952 C16.6051066,31.9013382 16.4552329,31.8641602 16.2716639,31.8641602 C16.0462691,31.8641602 15.8592175,31.9280598 15.7105034,32.055861 C15.5617893,32.1813385 15.4874333,32.3393449 15.4874333,32.5298849 C15.4874333,32.7924582 15.6826177,33.0039079 16.0729922,33.1642403 L16.6097544,33.3838248 C17.0466021,33.5604228 17.3661003,33.7759388 17.5682585,34.0303794 C17.7704167,34.2848199 17.8714943,34.5967663 17.8714943,34.9662279 C17.8714943,35.461167 17.7065171,35.8701246 17.3765577,36.1931131 C17.0442746,36.5184252 16.6318315,36.6810788 16.1392161,36.6810788 C15.6721609,36.6810788 15.2864394,36.5428232 14.9820403,36.2663079 C14.6822884,35.9897926 14.4952368,35.6005858 14.4208797,35.0986757 L15.2434505,34.9174313 C15.280629,35.2334488 15.3456904,35.4518693 15.4386368,35.5726995 C15.6059401,35.8050653 15.8499205,35.9212465 16.1705853,35.9212465 C16.423864,35.9212465 16.6341519,35.8364342 16.8014552,35.6668072 C16.9687586,35.4971802 17.052409,35.2822451 17.052409,35.0219954 C17.052409,34.9174308 17.0378864,34.8215813 17.0088407,34.7344442 C16.9797949,34.647307 16.9344843,34.567142 16.8729074,34.4939468 C16.8113304,34.4207516 16.7317463,34.3522047 16.6341527,34.2883041 C16.5365591,34.2244035 16.4203779,34.1634084 16.2856058,34.105317 L15.7662709,33.8892179 C15.0296713,33.5778477 14.6613771,33.1224176 14.6613771,32.5229139 C14.6613771,32.1185975 14.815898,31.7805103 15.1249445,31.5086423 C15.433991,31.2344507 15.8185506,31.097357 16.2786349,31.097357 C16.8990515,31.097357 17.3835269,31.399428 17.7320755,32.003579 Z M21.820531,31.9652388 L19.6630255,31.9652388 L19.6630255,33.2583479 L21.7577926,33.2583479 L21.7577926,34.0216657 L19.6630255,34.0216657 L19.6630255,35.8201679 L21.820531,35.8201679 L21.820531,36.5834856 L18.8509112,36.5834856 L18.8509112,31.2019211 L21.820531,31.2019211 L21.820531,31.9652388 Z M26.8640051,31.491215 L26.8640051,32.4532045 C26.3946262,32.0605064 25.908989,31.8641602 25.4070789,31.8641602 C24.8540484,31.8641602 24.388162,32.06283 24.0094057,32.4601755 C23.6283258,32.8551973 23.4377888,33.3385109 23.4377888,33.9101307 C23.4377888,34.4747795 23.6283258,34.9511222 24.0094057,35.3391731 C24.3904856,35.7272239 24.8575338,35.9212465 25.4105644,35.9212465 C25.6963743,35.9212465 25.9391929,35.874774 26.1390275,35.7818277 C26.250563,35.7353545 26.3661633,35.6726167 26.4858317,35.5936124 C26.6055,35.514608 26.7315566,35.4193394 26.8640051,35.3078039 L26.8640051,36.2872207 C26.3992735,36.5497941 25.9113127,36.6810788 25.400108,36.6810788 C24.6309772,36.6810788 23.9745538,36.4127003 23.4308178,35.8759354 C22.8894056,35.3345231 22.6187035,34.681585 22.6187035,33.9171016 C22.6187035,33.2316226 22.8452567,32.6205097 23.29837,32.0837448 C23.8560479,31.4261496 24.5775328,31.097357 25.4628464,31.097357 C25.9461672,31.097357 26.4132155,31.2286417 26.8640051,31.491215 Z M27.5854972,33.8683051 C27.5854972,33.1107926 27.8631702,32.4601782 28.4185244,31.9164423 C28.9715549,31.3727063 29.6361111,31.1008424 30.4122128,31.1008424 C31.1790199,31.1008424 31.8366052,31.37503 32.3849884,31.9234132 C32.9356953,32.4717964 33.2110446,33.1305435 33.2110446,33.8996743 C33.2110446,34.6734523 32.9345335,35.3298758 32.381503,35.8689644 C31.8261487,36.4103767 31.1557835,36.6810788 30.3703872,36.6810788 C29.6756135,36.6810788 29.0517207,36.4405838 28.4986902,35.9595866 C27.8898918,35.427469 27.5854972,34.7303821 27.5854972,33.8683051 Z M28.4045825,33.8787615 C28.4045825,34.4736179 28.6044141,34.9627405 29.0040832,35.346144 C29.4014287,35.7295476 29.8603442,35.9212465 30.3808436,35.9212465 C30.9454924,35.9212465 31.4218351,35.7260621 31.809886,35.3356876 C32.1979368,34.9406658 32.3919594,34.4596758 32.3919594,33.8927033 C32.3919594,33.3187599 32.2002605,32.8377699 31.8168569,32.4497191 C31.435777,32.0593445 30.9640816,31.8641602 30.4017564,31.8641602 C29.8417549,31.8641602 29.3688976,32.0593445 28.9831704,32.4497191 C28.5974432,32.8354463 28.4045825,33.311789 28.4045825,33.8787615 Z M35.0444015,31.2019211 L35.0444015,36.5834856 L34.2322871,36.5834856 L34.2322871,31.2019211 L35.0444015,31.2019211 Z M36.3375106,36.5834856 L36.3375106,30.8359468 L40.262149,34.9418296 L40.262149,31.2019211 L41.0742634,31.2019211 L41.0742634,36.9111197 L37.1496249,32.8156933 L37.1496249,36.5834856 L36.3375106,36.5834856 Z" id="ROSECOIN" fill="#FFFFFF"></path>
                            <polygon id="Star" fill="#FFFFFF" points="22.9762135 18.6230694 19.6944275 20.3484064 20.3211929 16.6940839 17.6661722 14.1060784 21.3353205 13.5729199 22.9762135 10.2481076 24.6171065 13.5729199 28.2862549 14.1060784 25.6312342 16.6940839 26.2579996 20.3484064"></polygon>
                            <g id="Group-3">
                                <path d="M8.39841885,6.39701387 C6.93639028,10.1961637 6.32441556,13.2524964 6.56249472,15.566012 C6.91961345,19.0362855 7.76612648,21.0975586 10.8744758,23.4216125 C12.9467087,24.9709817 14.0920852,25.6576512 14.3106055,25.481621" id="Path-5" stroke="#FFFFFF" stroke-width="0.5"></path>
                                <path d="M8.92540671,9.18948565 L10.6152445,7.42001763 L14.0351543,8.07164456 L11.174668,10.2897243 L8.92540671,9.18948565 Z M7.63036735,13.2610224 L10.971988,11.7198836 L10.2511247,15.1161558 C8.50395313,15.5151452 7.63036735,15.6699353 7.63036735,15.5805259 C7.63036735,15.4911165 7.63036735,14.7179486 7.63036735,13.2610224 Z M9.39882952,18.0487284 L11.8160687,15.3315766 L12.4231027,19.2708432 L10.1295838,20.7192756 L9.39882952,18.0487284 Z M12.76962,0.110128121 L11.8045013,4.2778917 L8.66690177,4.73907659 L8.66690177,1.93173301 L12.76962,0.110128121 Z M3.73099963,3.59290389 L6.93783562,6.91524565 L5.76031374,9.80808698 L3.49965279,8.10852594 L3.73099963,3.59290389 Z M0.674371446,10.0322252 L5.01966858,11.6692555 C5.01966858,13.2598489 5.02492138,14.1340493 5.03542698,14.2918569 C5.04593259,14.4496645 4.04074734,14.3707607 2.01987124,14.0551455 L0.674371446,10.0322252 Z M0.255767784,16.6323158 L4.19704616,16.1801836 L5.88302815,18.1261793 L3.65706923,19.6316102 L0.255767784,16.6323158 Z M2.12213325,22.5636799 L6.02552439,20.9457608 L8.1027843,22.5636799 L6.02552439,24.3879671 L2.12213325,22.5636799 Z" id="Combined-Shape" fill="#FFFFFF"></path>
                            </g>
                            <g id="Group-3" transform="translate(38.039620, 13.066667) scale(-1, 1) translate(-38.039620, -13.066667) translate(30.572954, 0.000000)">
                                <path d="M8.39841885,6.39701387 C6.93639028,10.1961637 6.32441556,13.2524964 6.56249472,15.566012 C6.91961345,19.0362855 7.76612648,21.0975586 10.8744758,23.4216125 C12.9467087,24.9709817 14.0920852,25.6576512 14.3106055,25.481621" id="Path-5" stroke="#FFFFFF" stroke-width="0.5"></path>
                                <path d="M8.92540671,9.18948565 L10.6152445,7.42001763 L14.0351543,8.07164456 L11.174668,10.2897243 L8.92540671,9.18948565 Z M7.63036735,13.2610224 L10.971988,11.7198836 L10.2511247,15.1161558 C8.50395313,15.5151452 7.63036735,15.6699353 7.63036735,15.5805259 C7.63036735,15.4911165 7.63036735,14.7179486 7.63036735,13.2610224 Z M9.39882952,18.0487284 L11.8160687,15.3315766 L12.4231027,19.2708432 L10.1295838,20.7192756 L9.39882952,18.0487284 Z M12.76962,0.110128121 L11.8045013,4.2778917 L8.66690177,4.73907659 L8.66690177,1.93173301 L12.76962,0.110128121 Z M3.73099963,3.59290389 L6.93783562,6.91524565 L5.76031374,9.80808698 L3.49965279,8.10852594 L3.73099963,3.59290389 Z M0.674371446,10.0322252 L5.01966858,11.6692555 C5.01966858,13.2598489 5.02492138,14.1340493 5.03542698,14.2918569 C5.04593259,14.4496645 4.04074734,14.3707607 2.01987124,14.0551455 L0.674371446,10.0322252 Z M0.255767784,16.6323158 L4.19704616,16.1801836 L5.88302815,18.1261793 L3.65706923,19.6316102 L0.255767784,16.6323158 Z M2.12213325,22.5636799 L6.02552439,20.9457608 L8.1027843,22.5636799 L6.02552439,24.3879671 L2.12213325,22.5636799 Z" id="Combined-Shape" fill="#FFFFFF"></path>
                            </g>
                        </g>
                    </g>
                    <circle id="Oval" fill="#000000" filter="url(#filter-9)" cx="65.5" cy="46" r="29.5"></circle>
                    <g id="rosecoin">
                        <circle id="Oval" stroke="url(#linearGradient-2)" stroke-width="0.5625" fill="url(#linearGradient-1)" cx="45" cy="45" r="45"></circle>
                        <path d="M44.4039511,8.77636467 L44.4039511,2.46575342 L47.6788926,2.46575342 L47.6788926,8.77636467 L44.4039511,8.77636467 Z M44.4039511,87.1014087 L44.4039511,80.7907975 L47.6788926,80.7907975 L47.6788926,87.1014087 L44.4039511,87.1014087 Z M32.3686544,11.2896817 L29.8844092,5.3596177 L31.8919933,4.72485028 L34.3760383,10.6549143 L32.3686544,11.2896817 Z M59.3450731,84.8374397 L56.8610281,78.9075497 L58.8686123,78.2727823 L61.3526572,84.2026723 L59.3450731,84.8374397 Z M21.3201358,17.7121777 L17.2299461,12.8783403 L18.6635829,11.6851933 L22.7537726,16.5192047 L21.3201358,17.7121777 Z M71.8909665,77.7389374 L67.8007768,72.9051 L69.2342381,71.712127 L73.3246032,76.5459644 L71.8909665,77.7389374 Z M13.4199568,27.4981753 L7.90946486,24.3429567 L8.84516243,22.7356797 L14.3556544,25.8908983 L13.4199568,27.4981753 Z M81.6851742,66.7331701 L76.1746823,63.5779515 L77.1103798,61.9705004 L82.6208718,65.1258931 L81.6851742,66.7331701 Z M9.35152342,41.0393581 L3.0851745,39.3693152 L3.41029125,36.58485 L9.67664017,38.2546278 L9.35152342,41.0393581 Z M87.0926745,54.4750944 L80.8261502,52.8050515 L81.1512669,50.0205862 L87.4177913,51.6903641 L87.0926745,54.4750944 Z M9.67365745,52.8516017 L3.40730853,54.5213795 L3.08219178,51.7369143 L9.3485407,50.0668714 L9.67365745,52.8516017 Z M87.4035795,39.4047291 L81.1370551,41.074507 L80.8119384,38.2900418 L87.0784627,36.6199988 L87.4035795,39.4047291 Z M14.3537244,63.6706957 L8.84323243,66.8259143 L7.90753486,65.2186373 L13.4180268,62.0634187 L14.3537244,63.6706957 Z M82.6022736,24.4357009 L77.0917817,27.5910936 L76.1559086,25.9836425 L81.6664006,22.8284239 L82.6022736,24.4357009 Z M22.7574571,73.0491755 L18.6672674,77.8830128 L17.2338061,76.6900399 L21.3239958,71.8560285 L22.7574571,73.0491755 Z M73.3282878,13.0149336 L69.2380981,17.848771 L67.8044613,16.655798 L71.894651,11.8217866 L73.3282878,13.0149336 Z M34.3769155,78.917816 L31.8927599,84.84788 L29.8852865,84.2131126 L32.3694422,78.2830486 L34.3769155,78.917816 Z M61.3535345,5.36066172 L58.8693788,11.2907257 L56.8619054,10.6559583 L59.3460611,4.72589431 L61.3535345,5.36066172 Z" id="Combined-Shape" fill="#DB2342"></path>
                        <g id="Oval-3" transform="translate(11.712329, 11.712329)">
                            <mask id="mask-11" fill="white">
                                <use xlink:href="#path-10"></use>
                            </mask>
                            <g id="Mask">
                                <use fill="url(#linearGradient-3)" xlink:href="#path-10"></use>
                                <use fill-opacity="0.299394248" fill="#000000" xlink:href="#path-10"></use>
                            </g>
                            <g mask="url(#mask-11)">
                                <use fill="url(#linearGradient-3)" xlink:href="#path-12"></use>
                                <use fill-opacity="0.100000001" fill="#000000" xlink:href="#path-12"></use>
                            </g>
                        </g>
                        <g id="Combined-Shape">
                            <use fill="black" fill-opacity="1" filter="url(#filter-15)" xlink:href="#path-14"></use>
                            <use fill="url(#linearGradient-13)" fill-rule="evenodd" xlink:href="#path-14"></use>
                        </g>
                    </g>
                </g>
            </g>
        </g>
    </g>
</svg>