<?xml version="1.0" encoding="UTF-8"?>
<svg width="326px" height="1144px" viewBox="0 0 326 1144" version="1.1" xmlns="http://www.w3.org/2000/svg" xmlns:xlink="http://www.w3.org/1999/xlink">
    <!-- Generator: Sketch 45.2 (43514) - http://www.bohemiancoding.com/sketch -->
    <title>roadmap section</title>
    <desc>Created with Sketch.</desc>
    <defs>
        <linearGradient x1="127.748692%" y1="129.389028%" x2="0%" y2="3.42010059%" id="linearGradient-1">
            <stop stop-color="#28FEF0" offset="0%"></stop>
            <stop stop-color="#1890E4" offset="100%"></stop>
        </linearGradient>
    </defs>
    <g id="Page-1" stroke="none" stroke-width="1" fill="none" fill-rule="evenodd">
        <g id="Mobile" transform="translate(-31.000000, -4324.000000)">
            <g id="roadmap-section" transform="translate(0.000000, 4150.000000)">
                <path d="M57,174 L57,1318" id="Path-14" stroke="#28FEF0"></path>
                <text id="2017" opacity="0.5" font-family="GothamRounded-Medium, Gotham Rounded" font-size="16" font-weight="400" fill="#FFFFFF">
                    <tspan x="98.304" y="187">2017</tspan>
                </text>
                <text id="2018" opacity="0.5" font-family="GothamRounded-Medium, Gotham Rounded" font-size="16" font-weight="400" fill="#FFFFFF">
                    <tspan x="98.136" y="543">2018</tspan>
                </text>
                <g id="milestone" transform="translate(32.000000, 236.000000)">
                    <g id="waves" stroke="#7EC8FF">
                        <circle id="Oval" stroke-width="2.26800014" opacity="0.5" cx="24.5290197" cy="24.3658555" r="12.4548681"></circle>
                        <circle id="Oval" stroke-width="1.51200009" opacity="0.2" cx="24.5562137" cy="24.4474376" r="18.8998544"></circle>
                        <circle id="Oval" stroke-width="0.756000047" opacity="0.149999991" cx="24.5562137" cy="24.5562137" r="24.5562137"></circle>
                    </g>
                    <circle id="Oval-8" fill="#28FEF0" cx="24.5" cy="24.5" r="8.5"></circle>
                </g>
                <circle id="Oval-8" fill="#28FEF0" cx="57" cy="621" r="6"></circle>
                <circle id="Oval-8" fill="#28FEF0" cx="57" cy="851" r="6"></circle>
                <circle id="Oval-8" fill="#28FEF0" cx="57" cy="1032" r="6"></circle>
                <circle id="Oval-8" fill="#28FEF0" cx="57" cy="1159" r="6"></circle>
                <g id="sub-info" transform="translate(87.000000, 227.000000)">
                    <path d="M10,44.4061034 L10,252 C10,256.418278 13.581722,260 18,260 L262,260 C266.418278,260 270,256.418278 270,252 L270,8 C270,3.581722 266.418278,-8.11624501e-16 262,0 L18,0 C13.581722,8.11624501e-16 10,3.581722 10,8 L10,8 L10,25.3997605 C3.96117278,29.4116338 0.941759165,32.5793576 0.941759165,34.9029319 C0.941759165,37.2265063 3.96117278,40.3942301 10,44.4061034 Z" id="Combined-Shape" fill="url(#linearGradient-1)"></path>
                    <text id="Beta-Release-of-the" font-family="GothamRounded-Medium, Gotham Rounded" font-size="12" font-weight="400" fill="#FFFFFF">
                        <tspan x="39.7539062" y="52">Beta Release of the Whispers Live </tspan>
                        <tspan x="39.7539062" y="64">and WhispersHost Apps with </tspan>
                        <tspan x="39.7539062" y="76">RoseCoin enabled for gifting/</tspan>
                        <tspan x="39.7539062" y="88">tipping within the platform </tspan>
                        <tspan x="39.7539062" y="100"></tspan>
                        <tspan x="39.7539062" y="112">Marketing of Whispers Live </tspan>
                        <tspan x="39.7539062" y="124">platform- SEA and Asia focus</tspan>
                        <tspan x="39.7539062" y="136"></tspan>
                        <tspan x="39.7539062" y="148">Recruit/Finalize Teams and </tspan>
                        <tspan x="39.7539062" y="160">Infrastructure Setup</tspan>
                        <tspan x="39.7539062" y="172"></tspan>
                        <tspan x="39.7539062" y="184">Launch and Conclude RoseCoin </tspan>
                        <tspan x="39.7539062" y="196">ICO</tspan>
                        <tspan x="39.7539062" y="208"></tspan>
                        <tspan x="39.7539062" y="220">Enable RoseCoin Trading on </tspan>
                        <tspan x="39.7539062" y="232">Cryptocurrency Exchanges</tspan>
                    </text>
                    <path d="M28.0058594,50.5644531 C27.2356732,50.5644531 26.5725939,50.2819039 26.0166016,49.7167969 C25.4606092,49.1516899 25.1826172,48.4794961 25.1826172,47.7001953 C25.1826172,46.9072226 25.4628878,46.2304716 26.0234375,45.6699219 C26.5839872,45.1093722 27.2607382,44.8291016 28.0537109,44.8291016 C28.8466837,44.8291016 29.5222954,45.1105115 30.0805664,45.6733398 C30.6388374,46.2361682 30.9179688,46.9186158 30.9179688,47.7207031 C30.9179688,48.5091185 30.6342802,49.180173 30.0668945,49.7338867 C29.4995089,50.2876004 28.812504,50.5644531 28.0058594,50.5644531 Z" id="●" fill="#FFFFFF"></path>
                    <path d="M27.8232422,113.735352 C27.053056,113.735352 26.3899767,113.452802 25.8339844,112.887695 C25.277992,112.322588 25,111.650395 25,110.871094 C25,110.078121 25.2802706,109.40137 25.8408203,108.84082 C26.40137,108.280271 27.078121,108 27.8710938,108 C28.6640665,108 29.3396782,108.28141 29.8979492,108.844238 C30.4562202,109.407067 30.7353516,110.089514 30.7353516,110.891602 C30.7353516,111.680017 30.451663,112.351071 29.8842773,112.904785 C29.3168917,113.458499 28.6298868,113.735352 27.8232422,113.735352 Z" id="●" fill="#FFFFFF"></path>
                    <path d="M27.8232422,148.735352 C27.053056,148.735352 26.3899767,148.452802 25.8339844,147.887695 C25.277992,147.322588 25,146.650395 25,145.871094 C25,145.078121 25.2802706,144.40137 25.8408203,143.84082 C26.40137,143.280271 27.078121,143 27.8710938,143 C28.6640665,143 29.3396782,143.28141 29.8979492,143.844238 C30.4562202,144.407067 30.7353516,145.089514 30.7353516,145.891602 C30.7353516,146.680017 30.451663,147.351071 29.8842773,147.904785 C29.3168917,148.458499 28.6298868,148.735352 27.8232422,148.735352 Z" id="●" fill="#FFFFFF"></path>
                    <path d="M27.8232422,183.90625 C27.053056,183.90625 26.3899767,183.623701 25.8339844,183.058594 C25.277992,182.493487 25,181.821293 25,181.041992 C25,180.249019 25.2802706,179.572268 25.8408203,179.011719 C26.40137,178.451169 27.078121,178.170898 27.8710938,178.170898 C28.6640665,178.170898 29.3396782,178.452308 29.8979492,179.015137 C30.4562202,179.577965 30.7353516,180.260413 30.7353516,181.0625 C30.7353516,181.850915 30.451663,182.52197 29.8842773,183.075684 C29.3168917,183.629397 28.6298868,183.90625 27.8232422,183.90625 Z" id="●" fill="#FFFFFF"></path>
                    <path d="M27.8232422,220.90625 C27.053056,220.90625 26.3899767,220.623701 25.8339844,220.058594 C25.277992,219.493487 25,218.821293 25,218.041992 C25,217.249019 25.2802706,216.572268 25.8408203,216.011719 C26.40137,215.451169 27.078121,215.170898 27.8710938,215.170898 C28.6640665,215.170898 29.3396782,215.452308 29.8979492,216.015137 C30.4562202,216.577965 30.7353516,217.260413 30.7353516,218.0625 C30.7353516,218.850915 30.451663,219.52197 29.8842773,220.075684 C29.3168917,220.629397 28.6298868,220.90625 27.8232422,220.90625 Z" id="●" fill="#FFFFFF"></path>
                    <text id="Q4,-2017" opacity="0.800000012" font-family="GothamRounded-Medium, Gotham Rounded" font-size="12" font-weight="400" fill="#FFFFFF">
                        <tspan x="24" y="26">Q4, 2017</tspan>
                    </text>
                </g>
                <g id="sub-info" transform="translate(87.000000, 587.000000)">
                    <path d="M10,44.4061034 L10,182 C10,186.418278 13.581722,190 18,190 L262,190 C266.418278,190 270,186.418278 270,182 L270,8 C270,3.581722 266.418278,-8.11624501e-16 262,0 L18,0 C13.581722,8.11624501e-16 10,3.581722 10,8 L10,8 L10,25.3997605 C3.96117278,29.4116338 0.941759165,32.5793576 0.941759165,34.9029319 C0.941759165,37.2265063 3.96117278,40.3942301 10,44.4061034 Z" id="Combined-Shape" fill="#FFFFFF"></path>
                    <text id="Expansion-to-North-A" opacity="0.699999988" font-family="GothamRounded-Medium, Gotham Rounded" font-size="12" font-weight="400" fill="#000000">
                        <tspan x="39.7539062" y="52">Expansion to North America &amp; </tspan>
                        <tspan x="39.7539062" y="64">Australia</tspan>
                        <tspan x="39.7539062" y="76"></tspan>
                        <tspan x="39.7539062" y="88">Reinforce Customer Service/Host </tspan>
                        <tspan x="39.7539062" y="100">Recruitment Team with additional </tspan>
                        <tspan x="39.7539062" y="112">hires</tspan>
                        <tspan x="39.7539062" y="124"></tspan>
                        <tspan x="39.7539062" y="136">Release of multi-language version </tspan>
                        <tspan x="39.7539062" y="148">of Whispers platform and </tspan>
                        <tspan x="39.7539062" y="160">additional enhancements + events</tspan>
                    </text>
                    <path d="M28.0058594,50.5644531 C27.2356732,50.5644531 26.5725939,50.2819039 26.0166016,49.7167969 C25.4606092,49.1516899 25.1826172,48.4794961 25.1826172,47.7001953 C25.1826172,46.9072226 25.4628878,46.2304716 26.0234375,45.6699219 C26.5839872,45.1093722 27.2607382,44.8291016 28.0537109,44.8291016 C28.8466837,44.8291016 29.5222954,45.1105115 30.0805664,45.6733398 C30.6388374,46.2361682 30.9179688,46.9186158 30.9179688,47.7207031 C30.9179688,48.5091185 30.6342802,49.180173 30.0668945,49.7338867 C29.4995089,50.2876004 28.812504,50.5644531 28.0058594,50.5644531 Z" id="●" fill="#000000" opacity="0.699999988"></path>
                    <path d="M27.8232422,87.7353516 C27.053056,87.7353516 26.3899767,87.4528023 25.8339844,86.8876953 C25.277992,86.3225883 25,85.6503945 25,84.8710938 C25,84.078121 25.2802706,83.40137 25.8408203,82.8408203 C26.40137,82.2802706 27.078121,82 27.8710938,82 C28.6640665,82 29.3396782,82.2814099 29.8979492,82.8442383 C30.4562202,83.4070666 30.7353516,84.0895142 30.7353516,84.8916016 C30.7353516,85.680017 30.451663,86.3510715 29.8842773,86.9047852 C29.3168917,87.4584989 28.6298868,87.7353516 27.8232422,87.7353516 Z" id="●" fill="#000000" opacity="0.699999988"></path>
                    <path d="M27.8232422,135.735352 C27.053056,135.735352 26.3899767,135.452802 25.8339844,134.887695 C25.277992,134.322588 25,133.650395 25,132.871094 C25,132.078121 25.2802706,131.40137 25.8408203,130.84082 C26.40137,130.280271 27.078121,130 27.8710938,130 C28.6640665,130 29.3396782,130.28141 29.8979492,130.844238 C30.4562202,131.407067 30.7353516,132.089514 30.7353516,132.891602 C30.7353516,133.680017 30.451663,134.351071 29.8842773,134.904785 C29.3168917,135.458499 28.6298868,135.735352 27.8232422,135.735352 Z" id="●" fill="#000000" opacity="0.699999988"></path>
                    <text id="Q1,-2018" opacity="0.5" font-family="GothamRounded-Medium, Gotham Rounded" font-size="12" font-weight="400" fill="#000000">
                        <tspan x="24" y="26">Q1, 2018</tspan>
                    </text>
                </g>
                <g id="sub-info" transform="translate(87.000000, 817.000000)">
                    <path d="M10,44.4061034 L10,132 C10,136.418278 13.581722,140 18,140 L262,140 C266.418278,140 270,136.418278 270,132 L270,8 C270,3.581722 266.418278,-8.11624501e-16 262,0 L18,0 C13.581722,8.11624501e-16 10,3.581722 10,8 L10,8 L10,25.3997605 C3.96117278,29.4116338 0.941759165,32.5793576 0.941759165,34.9029319 C0.941759165,37.2265063 3.96117278,40.3942301 10,44.4061034 Z" id="Combined-Shape" fill="#FFFFFF"></path>
                    <text id="Expansion-to-South-A" opacity="0.699999988" font-family="GothamRounded-Medium, Gotham Rounded" font-size="12" font-weight="400" fill="#000000">
                        <tspan x="39.7539062" y="52">Expansion to South America &amp; </tspan>
                        <tspan x="39.7539062" y="64">Africa</tspan>
                        <tspan x="39.7539062" y="76"></tspan>
                        <tspan x="39.7539062" y="88">Market and enable RoseCoin to be </tspan>
                        <tspan x="39.7539062" y="100">used on other livestreaming </tspan>
                        <tspan x="39.7539062" y="112">platforms</tspan>
                    </text>
                    <path d="M28.0058594,50.5644531 C27.2356732,50.5644531 26.5725939,50.2819039 26.0166016,49.7167969 C25.4606092,49.1516899 25.1826172,48.4794961 25.1826172,47.7001953 C25.1826172,46.9072226 25.4628878,46.2304716 26.0234375,45.6699219 C26.5839872,45.1093722 27.2607382,44.8291016 28.0537109,44.8291016 C28.8466837,44.8291016 29.5222954,45.1105115 30.0805664,45.6733398 C30.6388374,46.2361682 30.9179688,46.9186158 30.9179688,47.7207031 C30.9179688,48.5091185 30.6342802,49.180173 30.0668945,49.7338867 C29.4995089,50.2876004 28.812504,50.5644531 28.0058594,50.5644531 Z" id="●" fill="#000000" opacity="0.699999988"></path>
                    <path d="M27.8232422,87.7353516 C27.053056,87.7353516 26.3899767,87.4528023 25.8339844,86.8876953 C25.277992,86.3225883 25,85.6503945 25,84.8710938 C25,84.078121 25.2802706,83.40137 25.8408203,82.8408203 C26.40137,82.2802706 27.078121,82 27.8710938,82 C28.6640665,82 29.3396782,82.2814099 29.8979492,82.8442383 C30.4562202,83.4070666 30.7353516,84.0895142 30.7353516,84.8916016 C30.7353516,85.680017 30.451663,86.3510715 29.8842773,86.9047852 C29.3168917,87.4584989 28.6298868,87.7353516 27.8232422,87.7353516 Z" id="●" fill="#000000" opacity="0.699999988"></path>
                    <text id="Q2,-2018" opacity="0.5" font-family="GothamRounded-Medium, Gotham Rounded" font-size="12" font-weight="400" fill="#000000">
                        <tspan x="24" y="26">Q2, 2018</tspan>
                    </text>
                </g>
                <g id="sub-info" transform="translate(87.000000, 997.000000)">
                    <path d="M10,44.4061034 L10,79 C10,83.418278 13.581722,87 18,87 L262,87 C266.418278,87 270,83.418278 270,79 L270,8 C270,3.581722 266.418278,-8.11624501e-16 262,0 L18,0 C13.581722,8.11624501e-16 10,3.581722 10,8 L10,8 L10,25.3997605 C3.96117278,29.4116338 0.941759165,32.5793576 0.941759165,34.9029319 C0.941759165,37.2265063 3.96117278,40.3942301 10,44.4061034 Z" id="Combined-Shape" fill="#FFFFFF"></path>
                    <text id="Expansion-to-Europe" opacity="0.699999988" font-family="GothamRounded-Medium, Gotham Rounded" font-size="12" font-weight="400" fill="#000000">
                        <tspan x="39.7539062" y="52">Expansion to Europe &amp; Rest of </tspan>
                        <tspan x="39.7539062" y="64">World</tspan>
                    </text>
                    <path d="M28.0058594,50.5644531 C27.2356732,50.5644531 26.5725939,50.2819039 26.0166016,49.7167969 C25.4606092,49.1516899 25.1826172,48.4794961 25.1826172,47.7001953 C25.1826172,46.9072226 25.4628878,46.2304716 26.0234375,45.6699219 C26.5839872,45.1093722 27.2607382,44.8291016 28.0537109,44.8291016 C28.8466837,44.8291016 29.5222954,45.1105115 30.0805664,45.6733398 C30.6388374,46.2361682 30.9179688,46.9186158 30.9179688,47.7207031 C30.9179688,48.5091185 30.6342802,49.180173 30.0668945,49.7338867 C29.4995089,50.2876004 28.812504,50.5644531 28.0058594,50.5644531 Z" id="●" fill="#000000" opacity="0.699999988"></path>
                    <text id="Q3,-2018" opacity="0.5" font-family="GothamRounded-Medium, Gotham Rounded" font-size="12" font-weight="400" fill="#000000">
                        <tspan x="24" y="26">Q3, 2018</tspan>
                    </text>
                </g>
                <g id="sub-info" transform="translate(87.000000, 1124.000000)">
                    <path d="M10,44.4061034 L10,126 C10,130.418278 13.581722,134 18,134 L262,134 C266.418278,134 270,130.418278 270,126 L270,8 C270,3.581722 266.418278,-8.11624501e-16 262,0 L18,0 C13.581722,8.11624501e-16 10,3.581722 10,8 L10,8 L10,25.3997605 C3.96117278,29.4116338 0.941759165,32.5793576 0.941759165,34.9029319 C0.941759165,37.2265063 3.96117278,40.3942301 10,44.4061034 Z" id="Combined-Shape" fill="#FFFFFF"></path>
                    <text id="Continuous-improveme" opacity="0.699999988" font-family="GothamRounded-Medium, Gotham Rounded" font-size="12" font-weight="400" fill="#000000">
                        <tspan x="39.7539062" y="52">Continuous improvements of the </tspan>
                        <tspan x="39.7539062" y="64">Whispers platform to ensure </tspan>
                        <tspan x="39.7539062" y="76">happier dating lives for our users </tspan>
                        <tspan x="39.7539062" y="88">&amp; hosts 1 minute at a time.  </tspan>
                        <tspan x="39.7539062" y="100"></tspan>
                        <tspan x="39.7539062" y="112">Globally.</tspan>
                    </text>
                    <path d="M28.0058594,50.5644531 C27.2356732,50.5644531 26.5725939,50.2819039 26.0166016,49.7167969 C25.4606092,49.1516899 25.1826172,48.4794961 25.1826172,47.7001953 C25.1826172,46.9072226 25.4628878,46.2304716 26.0234375,45.6699219 C26.5839872,45.1093722 27.2607382,44.8291016 28.0537109,44.8291016 C28.8466837,44.8291016 29.5222954,45.1105115 30.0805664,45.6733398 C30.6388374,46.2361682 30.9179688,46.9186158 30.9179688,47.7207031 C30.9179688,48.5091185 30.6342802,49.180173 30.0668945,49.7338867 C29.4995089,50.2876004 28.812504,50.5644531 28.0058594,50.5644531 Z" id="●" fill="#000000" opacity="0.699999988"></path>
                    <path d="M28.0058594,111.564453 C27.2356732,111.564453 26.5725939,111.281904 26.0166016,110.716797 C25.4606092,110.15169 25.1826172,109.479496 25.1826172,108.700195 C25.1826172,107.907223 25.4628878,107.230472 26.0234375,106.669922 C26.5839872,106.109372 27.2607382,105.829102 28.0537109,105.829102 C28.8466837,105.829102 29.5222954,106.110512 30.0805664,106.67334 C30.6388374,107.236168 30.9179688,107.918616 30.9179688,108.720703 C30.9179688,109.509119 30.6342802,110.180173 30.0668945,110.733887 C29.4995089,111.2876 28.812504,111.564453 28.0058594,111.564453 Z" id="●" fill="#000000" opacity="0.699999988"></path>
                    <text id="Q3,-2018" opacity="0.5" font-family="GothamRounded-Medium, Gotham Rounded" font-size="12" font-weight="400" fill="#000000">
                        <tspan x="24" y="26">Q3, 2018</tspan>
                    </text>
                </g>
            </g>
        </g>
    </g>
</svg>