<?xml version="1.0" encoding="UTF-8"?>
<svg width="60px" height="60px" viewBox="0 0 60 60" version="1.1" xmlns="http://www.w3.org/2000/svg" xmlns:xlink="http://www.w3.org/1999/xlink">
    <!-- Generator: Sketch 45.2 (43514) - http://www.bohemiancoding.com/sketch -->
    <title>button home</title>
    <desc>Created with Sketch.</desc>
    <defs>
        <linearGradient x1="132.695312%" y1="143.313802%" x2="-32.1484375%" y2="-36.8294271%" id="linearGradient-1">
            <stop stop-color="#1BCEDF" offset="0%"></stop>
            <stop stop-color="#4F247A" offset="100%"></stop>
        </linearGradient>
    </defs>
    <g id="Page-1" stroke="none" stroke-width="1" fill="none" fill-rule="evenodd">
        <g id="Group-6">
            <g id="button-home">
                <rect id="Rectangle" fill="url(#linearGradient-1)" x="0" y="-3.55271368e-15" width="60" height="60" rx="10"></rect>
                <g id="Page-1" transform="translate(15.000000, 14.000000)" stroke="#FFFFFF" fill="#FFFFFF">
                    <path d="M15.2780228,0 C15.4003029,0.143185436 15.5139636,0.294861653 15.6464069,0.427948206 C16.1814547,0.966019263 16.7222917,1.49830115 17.2511001,2.02286415 C17.0049961,2.27276326 16.7815985,2.49944137 16.5352372,2.74953345 C16.2516966,2.43215837 15.9547766,2.09992442 15.6578566,1.76762614 C15.6187475,1.7896893 15.5795098,1.81181679 15.5404008,1.83381563 L15.5404008,5.69718512 L14.5022099,5.69718512 L14.5022099,1.76524615 C14.1428955,2.15890961 13.8439814,2.48625493 13.5540084,2.80395164 C13.2612051,2.50593811 13.0385794,2.27938864 12.7939549,2.03045439 C13.4301202,1.37454159 14.0967751,0.687302958 14.76343,0 L15.2780228,0 Z" id="Fill-3"></path>
                    <path d="M14.76343,32.9339368 C14.2115293,32.3689783 13.6616226,31.8020257 13.1059911,31.2407336 C12.9940028,31.1275876 12.8605303,31.0357971 12.7437821,30.9398898 C13.0253287,30.6694714 13.2600473,30.444144 13.5464825,30.1690942 C13.8194739,30.4644061 14.1212826,30.7909796 14.4910175,31.1910111 L14.4910175,27.2397106 L15.5220041,27.2397106 L15.5220041,31.170749 C15.8888444,30.7869271 16.1955417,30.4660786 16.4990871,30.1484462 C16.7629445,30.4212447 16.9842194,30.6502384 17.2779232,30.9539768 C17.1501113,31.0586321 16.9768865,31.1805906 16.82714,31.3266706 C16.3674157,31.7749453 15.9152173,32.2311961 15.4638551,32.6879615 C15.3921981,32.7603904 15.3394523,32.8514733 15.2780228,32.9339368 L14.76343,32.9339368 Z" id="Fill-4"></path>
                    <path d="M24.5247401,11.5323261 C24.3509364,11.2345699 24.1908981,10.960292 24.0132349,10.6559103 C25.1375558,10.0008337 26.2486259,9.35347605 27.4335401,8.66314986 C26.9194619,8.52266604 26.4861748,8.4043097 26.0266434,8.27874907 C26.1260242,7.95970155 26.2193584,7.6597583 26.3281948,7.31015684 C27.3564155,7.582891 28.3706135,7.85189437 29.4147222,8.12887392 C29.1406372,9.15934593 28.8733063,10.1642169 28.5949759,11.2103197 C28.2476258,11.1259265 27.921181,11.0466149 27.5690709,10.9610638 C27.6860121,10.5255897 27.798129,10.1083193 27.937648,9.58890224 C26.7515117,10.2643696 25.6478389,10.892816 24.5247401,11.5323261" id="Fill-6"></path>
                    <path d="M24.0017274,22.2835262 C24.182864,21.9731624 24.343224,21.6986915 24.514712,21.4049234 C25.6391615,22.0441762 26.7421911,22.6712718 27.9359177,23.349891 C27.8019949,22.8445609 27.6921294,22.4297348 27.5721006,21.9768289 C27.9018902,21.8928859 28.2250545,21.8104868 28.5906083,21.7174098 C28.8674592,22.7509051 29.1365269,23.7556474 29.4165297,24.800721 C28.3878588,25.0753849 27.3735964,25.346318 26.3341834,25.6239408 C26.2261189,25.2902917 26.1287322,24.9893836 26.0211823,24.657021 C26.4596154,24.529402 26.8853766,24.4054494 27.406659,24.2537089 C26.2371826,23.5769551 25.136919,22.9403395 24.0017274,22.2835262" id="Fill-7"></path>
                    <path d="M3.57976623,7.31014397 C3.68699449,7.64289252 3.78129362,7.93563148 3.89000134,8.27294703 C3.4470013,8.39561308 3.01152717,8.51615644 2.48728579,8.66120727 C3.65708379,9.34091999 4.76834686,9.98660526 5.90186607,10.6451553 C5.73031371,10.9401456 5.57046833,11.2150025 5.39036086,11.5246587 C4.27845455,10.8924172 3.17735469,10.2663507 1.98137678,9.58638074 C2.11324118,10.0928043 2.22259214,10.5127764 2.33773227,10.9548759 C2.05039654,11.0309713 1.77676184,11.116072 1.49695202,11.1681746 C1.43159874,11.1803318 1.29445977,11.0945878 1.27644902,11.0298778 C1.01059754,10.0751795 0.759218972,9.11649322 0.496712339,8.12963295 C1.52982163,7.85496906 2.54620666,7.58487219 3.57976623,7.31014397" id="Fill-8"></path>
                    <path d="M2.47429233,24.2693461 C3.00419422,24.4143326 3.44101915,24.5338468 3.88877918,24.6564485 C3.78560333,24.9811565 3.69246204,25.2743457 3.58233919,25.6212456 C2.56016499,25.3507628 1.54667455,25.0826599 0.498513414,24.8053588 C0.701648907,24.0372647 0.89912388,23.2895615 1.09730642,22.5419868 C1.15191757,22.3358924 1.22164489,22.1327569 1.2606253,21.9237679 C1.29420247,21.7435962 1.39313293,21.7271935 1.53734755,21.7651447 C1.79445096,21.8327494 2.05155437,21.9002897 2.33882578,21.9758061 C2.22452186,22.408643 2.11246929,22.833182 1.97796761,23.3425645 C3.15747854,22.6697345 4.25761354,22.0421886 5.38508629,21.3990763 C5.56030512,21.6985693 5.72458886,21.9795369 5.89884284,22.2774218 C4.77027658,22.9338492 3.66428809,23.5771545 2.47429233,24.2693461" id="Fill-9"></path>
                    <path d="M22.9988633,16.4728734 C22.9695315,20.9475147 19.3503362,24.531782 14.8845073,24.5090756 C10.4794003,24.4866264 6.87963091,20.8224687 6.91333674,16.3952342 C6.94691392,11.9781629 10.5980782,8.39100105 15.0269208,8.42393498 C19.4158825,8.45648297 23.0275518,12.1030803 22.9988633,16.4728734" id="Fill-16"></path>
                </g>
            </g>
        </g>
    </g>
</svg>